<?xml version="1.0" standalone="no"?><!DOCTYPE svg PUBLIC "-//W3C//DTD SVG 1.1//EN" "http://www.w3.org/Graphics/SVG/1.1/DTD/svg11.dtd" ><svg version="1.1" xmlns="http://www.w3.org/2000/svg"><defs><font horiz-adv-x="0" id="font"><font-face ascent="1440" bbox="-49.5 -544 1920 1440" cap-height="1200" descent="-560" font-family="Benzinova" font-stretch="extra-condensed" font-weight="100" units-per-em="2048" x-height="852" /><missing-glyph horiz-adv-x="1024" /><glyph d="M139 300C130 300 123 293 123 284C123 275 130 268 139 268H462C471 268 478 275 478 284C478 293 471 300 462 300ZM496 13C498 5 506 -1 515 0C523 2 529 10 528 19L317 1203C315 1210 308 1216 301 1216H299C292 1216 285 1210 283 1203L72 19C71 10 77 2 85 0C94 -1 102 5 104 13L315 1197L299 1184H301L285 1197Z" glyph-name="A" horiz-adv-x="600" unicode="A" /><glyph d="M622 1184C631 1184 638 1191 638 1200C638 1209 631 1216 622 1216H296C289 1216 282 1210 280 1203L72 19C71 10 77 2 85 0C94 -1 102 5 104 13L312 1197L296 1184ZM137 284C128 284 121 277 121 268C121 259 128 252 137 252H293C302 252 309 259 309 268C309 277 302 284 293 284ZM622 0C631 0 638 7 638 16C638 25 631 32 622 32H298L314 16V1195C314 1204 307 1211 298 1211C289 1211 282 1204 282 1195V16C282 7 289 0 298 0ZM299 562C290 562 283 555 283 546C283 537 290 530 299 530H542C551 530 558 537 558 546C558 555 551 562 542 562Z" glyph-name="AE" horiz-adv-x="718" unicode="&#198;" /><glyph d="M139 300C130 300 123 293 123 284C123 275 130 268 139 268H462C471 268 478 275 478 284C478 293 471 300 462 300ZM496 13C498 5 506 -1 515 0C523 2 529 10 528 19L317 1203C315 1210 308 1216 301 1216H299C292 1216 285 1210 283 1203L72 19C71 10 77 2 85 0C94 -1 102 5 104 13L315 1197L299 1184H301L285 1197ZM437 1389C443 1395 443 1405 437 1411C431 1417 421 1417 415 1411L291 1289C285 1283 285 1273 291 1267C297 1261 307 1261 313 1267Z" glyph-name="Aacute" horiz-adv-x="600" unicode="&#193;" /><glyph d="M139 300C130 300 123 293 123 284C123 275 130 268 139 268H462C471 268 478 275 478 284C478 293 471 300 462 300ZM496 13C498 5 506 -1 515 0C523 2 529 10 528 19L317 1203C315 1210 308 1216 301 1216H299C292 1216 285 1210 283 1203L72 19C71 10 77 2 85 0C94 -1 102 5 104 13L315 1197L299 1184H301L285 1197ZM300 1262C334 1262 364 1290 366 1326V1328C366 1336 358 1344 350 1344C342 1344 334 1336 334 1328C334 1310 318 1294 300 1294C282 1294 266 1310 266 1328C266 1336 258 1344 250 1344C242 1344 234 1336 234 1328C234 1292 264 1262 300 1262Z" glyph-name="Abreve" horiz-adv-x="600" unicode="&#258;" /><glyph d="M139 300C130 300 123 293 123 284C123 275 130 268 139 268H462C471 268 478 275 478 284C478 293 471 300 462 300ZM496 13C498 5 506 -1 515 0C523 2 529 10 528 19L317 1203C315 1210 308 1216 301 1216H299C292 1216 285 1210 283 1203L72 19C71 10 77 2 85 0C94 -1 102 5 104 13L315 1197L299 1184H301L285 1197ZM394 1350C400 1356 400 1366 394 1372C388 1378 378 1378 372 1372L289 1289H311L228 1372C222 1378 212 1378 206 1372C200 1366 200 1356 206 1350L289 1267C295 1260 305 1260 311 1267Z" glyph-name="Acaron" horiz-adv-x="600" unicode="&#461;" /><glyph d="M139 300C130 300 123 293 123 284C123 275 130 268 139 268H462C471 268 478 275 478 284C478 293 471 300 462 300ZM496 13C498 5 506 -1 515 0C523 2 529 10 528 19L317 1203C315 1210 308 1216 301 1216H299C292 1216 285 1210 283 1203L72 19C71 10 77 2 85 0C94 -1 102 5 104 13L315 1197L299 1184H301L285 1197ZM206 1289C200 1283 200 1273 206 1267C212 1261 222 1261 228 1267L311 1350H289L372 1267C378 1261 388 1261 394 1267C400 1273 400 1283 394 1289L311 1372C305 1379 295 1379 289 1372Z" glyph-name="Acircumflex" horiz-adv-x="600" unicode="&#194;" /><glyph d="M139 300C130 300 123 293 123 284C123 275 130 268 139 268H462C471 268 478 275 478 284C478 293 471 300 462 300ZM496 13C498 5 506 -1 515 0C523 2 529 10 528 19L317 1203C315 1210 308 1216 301 1216H299C292 1216 285 1210 283 1203L72 19C71 10 77 2 85 0C94 -1 102 5 104 13L315 1197L299 1184H301L285 1197ZM340 1298C350 1298 360 1306 360 1318C360 1328 350 1338 340 1338C328 1338 320 1328 320 1318C320 1306 328 1298 340 1298ZM260 1298C270 1298 280 1306 280 1318C280 1328 270 1338 260 1338C248 1338 240 1328 240 1318C240 1306 248 1298 260 1298Z" glyph-name="Adieresis" horiz-adv-x="600" unicode="&#196;" /><glyph d="M139 300C130 300 123 293 123 284C123 275 130 268 139 268H462C471 268 478 275 478 284C478 293 471 300 462 300ZM496 13C498 5 506 -1 515 0C523 2 529 10 528 19L317 1203C315 1210 308 1216 301 1216H299C292 1216 285 1210 283 1203L72 19C71 10 77 2 85 0C94 -1 102 5 104 13L315 1197L299 1184H301L285 1197ZM300 1298C310 1298 320 1306 320 1318C320 1328 310 1338 300 1338C288 1338 280 1328 280 1318C280 1306 288 1298 300 1298Z" glyph-name="Adotaccent" horiz-adv-x="600" unicode="&#550;" /><glyph d="M139 300C130 300 123 293 123 284C123 275 130 268 139 268H462C471 268 478 275 478 284C478 293 471 300 462 300ZM496 13C498 5 506 -1 515 0C523 2 529 10 528 19L317 1203C315 1210 308 1216 301 1216H299C292 1216 285 1210 283 1203L72 19C71 10 77 2 85 0C94 -1 102 5 104 13L315 1197L299 1184H301L285 1197ZM283 1267C289 1261 299 1261 305 1267C311 1273 311 1283 305 1289L181 1411C175 1417 165 1417 159 1411C153 1405 153 1395 159 1389Z" glyph-name="Agrave" horiz-adv-x="600" unicode="&#192;" /><glyph d="M139 300C130 300 123 293 123 284C123 275 130 268 139 268H462C471 268 478 275 478 284C478 293 471 300 462 300ZM496 13C498 5 506 -1 515 0C523 2 529 10 528 19L317 1203C315 1210 308 1216 301 1216H299C292 1216 285 1210 283 1203L72 19C71 10 77 2 85 0C94 -1 102 5 104 13L315 1197L299 1184H301L285 1197ZM387 1302C395 1302 403 1310 403 1318C403 1326 395 1334 387 1334H213C205 1334 197 1326 197 1318C197 1310 205 1302 213 1302Z" glyph-name="Amacron" horiz-adv-x="600" unicode="&#256;" /><glyph d="M139 300C130 300 123 293 123 284C123 275 130 268 139 268H462C471 268 478 275 478 284C478 293 471 300 462 300ZM496 13C498 5 506 -1 515 0C523 2 529 10 528 19L317 1203C315 1210 308 1216 301 1216H299C292 1216 285 1210 283 1203L72 19C71 10 77 2 85 0C94 -1 102 5 104 13L315 1197L299 1184H301L285 1197ZM554 -204C590 -204 620 -174 620 -138C620 -130 612 -122 604 -122C596 -122 588 -130 588 -138C588 -158 574 -172 554 -172C534 -172 520 -158 520 -138C520 -118 534 -104 554 -104C568 -104 574 -94 568 -82L528 14C526 22 516 26 508 22C500 20 496 10 500 2L532 -76C506 -84 488 -110 488 -138C488 -174 518 -204 554 -204Z" glyph-name="Aogonek" horiz-adv-x="600" unicode="&#260;" /><glyph d="M139 300C130 300 123 293 123 284C123 275 130 268 139 268H462C471 268 478 275 478 284C478 293 471 300 462 300ZM496 13C498 5 506 -1 515 0C523 2 529 10 528 19L317 1203C315 1210 308 1216 301 1216H299C292 1216 285 1210 283 1203L72 19C71 10 77 2 85 0C94 -1 102 5 104 13L315 1197L299 1184H301L285 1197ZM300 1262C336 1262 366 1292 366 1328C366 1364 336 1394 300 1394C264 1394 234 1364 234 1328C234 1292 264 1262 300 1262ZM300 1362C318 1362 334 1346 334 1328C334 1310 318 1294 300 1294C282 1294 266 1310 266 1328C266 1346 282 1362 300 1362Z" glyph-name="Aring" horiz-adv-x="600" unicode="&#197;" /><glyph d="M139 300C130 300 123 293 123 284C123 275 130 268 139 268H462C471 268 478 275 478 284C478 293 471 300 462 300ZM496 13C498 5 506 -1 515 0C523 2 529 10 528 19L317 1203C315 1210 308 1216 301 1216H299C292 1216 285 1210 283 1203L72 19C71 10 77 2 85 0C94 -1 102 5 104 13L315 1197L299 1184H301L285 1197ZM193 1315C199 1345 225 1369 258 1369C282 1369 303 1356 315 1336C321 1326 332 1319 344 1319C361 1319 375 1331 377 1347C379 1355 387 1361 396 1360C404 1358 410 1350 409 1341C403 1311 377 1287 344 1287C320 1287 299 1300 287 1320C281 1330 270 1337 258 1337C241 1337 227 1325 225 1309C223 1301 215 1295 206 1296C198 1298 192 1306 193 1315Z" glyph-name="Atilde" horiz-adv-x="600" unicode="&#195;" /><glyph d="M109 637V669H295C480 669 616 533 616 348C616 163 479 0 295 0H96C87 0 80 7 80 16V1184C80 1193 87 1200 96 1200H195C347 1200 457 1090 457 938V925C457 773 346 637 195 637ZM109 669H195C330 669 425 791 425 925V938C425 1072 329 1168 195 1168H96L112 1184V16L96 32H295C463 32 584 181 584 348C584 515 462 637 295 637H109Z" glyph-name="B" horiz-adv-x="686" unicode="B" /><glyph d="M109 637V669H295C480 669 616 533 616 348C616 163 479 0 295 0H96C87 0 80 7 80 16V1184C80 1193 87 1200 96 1200H195C347 1200 457 1090 457 938V925C457 773 346 637 195 637ZM109 669H195C330 669 425 791 425 925V938C425 1072 329 1168 195 1168H96L112 1184V16L96 32H295C463 32 584 181 584 348C584 515 462 637 295 637H109ZM188 1298C198 1298 208 1306 208 1318C208 1328 198 1338 188 1338C176 1338 168 1328 168 1318C168 1306 176 1298 188 1298Z" glyph-name="Bdotaccent" horiz-adv-x="686" unicode="&#7682;" /><glyph d="M308 -32C434 -32 536 70 536 196C536 204 528 212 520 212C512 212 504 204 504 196C504 88 416 0 308 0C200 0 112 88 112 196V1004C112 1112 200 1200 308 1200C416 1200 504 1112 504 1004C504 996 512 988 520 988C528 988 536 996 536 1004C536 1130 434 1232 308 1232C182 1232 80 1130 80 1004V196C80 70 182 -32 308 -32Z" glyph-name="C" horiz-adv-x="616" unicode="C" /><glyph d="M308 -32C434 -32 536 70 536 196C536 204 528 212 520 212C512 212 504 204 504 196C504 88 416 0 308 0C200 0 112 88 112 196V1004C112 1112 200 1200 308 1200C416 1200 504 1112 504 1004C504 996 512 988 520 988C528 988 536 996 536 1004C536 1130 434 1232 308 1232C182 1232 80 1130 80 1004V196C80 70 182 -32 308 -32ZM443 1389C449 1395 449 1405 443 1411C437 1417 427 1417 421 1411L297 1289C291 1283 291 1273 297 1267C303 1261 313 1261 319 1267Z" glyph-name="Cacute" horiz-adv-x="616" unicode="&#262;" /><glyph d="M308 -32C434 -32 536 70 536 196C536 204 528 212 520 212C512 212 504 204 504 196C504 88 416 0 308 0C200 0 112 88 112 196V1004C112 1112 200 1200 308 1200C416 1200 504 1112 504 1004C504 996 512 988 520 988C528 988 536 996 536 1004C536 1130 434 1232 308 1232C182 1232 80 1130 80 1004V196C80 70 182 -32 308 -32ZM402 1350C408 1356 408 1366 402 1372C396 1378 386 1378 380 1372L297 1289H319L236 1372C230 1378 220 1378 214 1372C208 1366 208 1356 214 1350L297 1267C303 1260 313 1260 319 1267Z" glyph-name="Ccaron" horiz-adv-x="616" unicode="&#268;" /><glyph d="M308 -32C434 -32 536 70 536 196C536 204 528 212 520 212C512 212 504 204 504 196C504 88 416 0 308 0C200 0 112 88 112 196V1004C112 1112 200 1200 308 1200C416 1200 504 1112 504 1004C504 996 512 988 520 988C528 988 536 996 536 1004C536 1130 434 1232 308 1232C182 1232 80 1130 80 1004V196C80 70 182 -32 308 -32ZM308 -228C344 -228 374 -198 374 -162C374 -134 356 -108 330 -100L362 -22C366 -14 362 -4 354 -2C346 2 336 -2 334 -10L294 -106C288 -118 294 -128 308 -128C328 -128 342 -142 342 -162C342 -182 328 -196 308 -196C288 -196 274 -182 274 -162C274 -154 266 -146 258 -146C250 -146 242 -154 242 -162C242 -198 272 -228 308 -228Z" glyph-name="Ccedilla" horiz-adv-x="616" unicode="&#199;" /><glyph d="M308 -32C434 -32 536 70 536 196C536 204 528 212 520 212C512 212 504 204 504 196C504 88 416 0 308 0C200 0 112 88 112 196V1004C112 1112 200 1200 308 1200C416 1200 504 1112 504 1004C504 996 512 988 520 988C528 988 536 996 536 1004C536 1130 434 1232 308 1232C182 1232 80 1130 80 1004V196C80 70 182 -32 308 -32ZM214 1289C208 1283 208 1273 214 1267C220 1261 230 1261 236 1267L319 1350H297L380 1267C386 1261 396 1261 402 1267C408 1273 408 1283 402 1289L319 1372C313 1379 303 1379 297 1372Z" glyph-name="Ccircumflex" horiz-adv-x="616" unicode="&#264;" /><glyph d="M308 -32C434 -32 536 70 536 196C536 204 528 212 520 212C512 212 504 204 504 196C504 88 416 0 308 0C200 0 112 88 112 196V1004C112 1112 200 1200 308 1200C416 1200 504 1112 504 1004C504 996 512 988 520 988C528 988 536 996 536 1004C536 1130 434 1232 308 1232C182 1232 80 1130 80 1004V196C80 70 182 -32 308 -32ZM308 1298C318 1298 328 1306 328 1318C328 1328 318 1338 308 1338C296 1338 288 1328 288 1318C288 1306 296 1298 308 1298Z" glyph-name="Cdotaccent" horiz-adv-x="616" unicode="&#266;" /><glyph d="M536 972C536 1098 434 1200 308 1200H96C87 1200 80 1193 80 1184V16C80 7 87 0 96 0H308C434 0 536 102 536 228ZM504 972V228C504 120 416 32 308 32H96L112 16V1184L96 1168H308C416 1168 504 1080 504 972Z" glyph-name="D" horiz-adv-x="616" unicode="D" /><glyph d="M536 972C536 1098 434 1200 308 1200H96C87 1200 80 1193 80 1184V16C80 7 87 0 96 0H308C434 0 536 102 536 228ZM504 972V228C504 120 416 32 308 32H96L112 16V1184L96 1168H308C416 1168 504 1080 504 972ZM402 1350C408 1356 408 1366 402 1372C396 1378 386 1378 380 1372L297 1289H319L236 1372C230 1378 220 1378 214 1372C208 1366 208 1356 214 1350L297 1267C303 1260 313 1260 319 1267Z" glyph-name="Dcaron" horiz-adv-x="616" unicode="&#270;" /><glyph d="M536 972C536 1098 434 1200 308 1200H96C87 1200 80 1193 80 1184V16C80 7 87 0 96 0H308C434 0 536 102 536 228ZM504 972V228C504 120 416 32 308 32H96L112 16V1184L96 1168H308C416 1168 504 1080 504 972ZM208 -204C244 -204 274 -174 274 -138C274 -110 256 -84 230 -76L262 2C266 10 262 20 254 22C246 26 236 22 234 14L194 -82C188 -94 194 -104 208 -104C228 -104 242 -118 242 -138C242 -158 228 -172 208 -172C188 -172 174 -158 174 -138C174 -130 166 -122 158 -122C150 -122 142 -130 142 -138C142 -174 172 -204 208 -204Z" glyph-name="Dcedilla" horiz-adv-x="616" unicode="&#7696;" /><glyph d="M536 972C536 1098 434 1200 308 1200H96C87 1200 80 1193 80 1184V16C80 7 87 0 96 0H308C434 0 536 102 536 228ZM504 972V228C504 120 416 32 308 32H96L112 16V1184L96 1168H308C416 1168 504 1080 504 972ZM190 580C198 580 206 588 206 596C206 604 198 612 190 612H16C8 612 0 604 0 596C0 588 8 580 16 580Z" glyph-name="Dcroat" horiz-adv-x="616" unicode="&#272;" /><glyph d="M536 972C536 1098 434 1200 308 1200H96C87 1200 80 1193 80 1184V16C80 7 87 0 96 0H308C434 0 536 102 536 228ZM504 972V228C504 120 416 32 308 32H96L112 16V1184L96 1168H308C416 1168 504 1080 504 972ZM308 1298C318 1298 328 1306 328 1318C328 1328 318 1338 308 1338C296 1338 288 1328 288 1318C288 1306 296 1298 308 1298Z" glyph-name="Ddotaccent" horiz-adv-x="616" unicode="&#7690;" /><glyph d="M746 32 731 10 406 860H436L111 10L96 32ZM746 0H96C83 0 76 10 81 22L406 872C414 893 428 893 436 872L761 22C766 10 759 0 746 0Z" glyph-name="Delta" horiz-adv-x="843" unicode="&#916;" /><glyph d="M536 0C545 0 552 7 552 16C552 25 545 32 536 32H96L112 16V1184L96 1168H536C545 1168 552 1175 552 1184C552 1193 545 1200 536 1200H96C87 1200 80 1193 80 1184V16C80 7 87 0 96 0ZM97 563C88 563 81 556 81 547C81 538 88 531 97 531H316C325 531 332 538 332 547C332 556 325 563 316 563Z" glyph-name="E" horiz-adv-x="632" unicode="E" /><glyph d="M536 0C545 0 552 7 552 16C552 25 545 32 536 32H96L112 16V1184L96 1168H536C545 1168 552 1175 552 1184C552 1193 545 1200 536 1200H96C87 1200 80 1193 80 1184V16C80 7 87 0 96 0ZM97 563C88 563 81 556 81 547C81 538 88 531 97 531H316C325 531 332 538 332 547C332 556 325 563 316 563ZM451 1389C457 1395 457 1405 451 1411C445 1417 435 1417 429 1411L305 1289C299 1283 299 1273 305 1267C311 1261 321 1261 327 1267Z" glyph-name="Eacute" horiz-adv-x="632" unicode="&#201;" /><glyph d="M536 0C545 0 552 7 552 16C552 25 545 32 536 32H96L112 16V1184L96 1168H536C545 1168 552 1175 552 1184C552 1193 545 1200 536 1200H96C87 1200 80 1193 80 1184V16C80 7 87 0 96 0ZM97 563C88 563 81 556 81 547C81 538 88 531 97 531H316C325 531 332 538 332 547C332 556 325 563 316 563ZM316 1262C350 1262 380 1290 382 1326V1328C382 1336 374 1344 366 1344C358 1344 350 1336 350 1328C350 1310 334 1294 316 1294C298 1294 282 1310 282 1328C282 1336 274 1344 266 1344C258 1344 250 1336 250 1328C250 1292 280 1262 316 1262Z" glyph-name="Ebreve" horiz-adv-x="632" unicode="&#276;" /><glyph d="M536 0C545 0 552 7 552 16C552 25 545 32 536 32H96L112 16V1184L96 1168H536C545 1168 552 1175 552 1184C552 1193 545 1200 536 1200H96C87 1200 80 1193 80 1184V16C80 7 87 0 96 0ZM97 563C88 563 81 556 81 547C81 538 88 531 97 531H316C325 531 332 538 332 547C332 556 325 563 316 563ZM410 1350C416 1356 416 1366 410 1372C404 1378 394 1378 388 1372L305 1289H327L244 1372C238 1378 228 1378 222 1372C216 1366 216 1356 222 1350L305 1267C311 1260 321 1260 327 1267Z" glyph-name="Ecaron" horiz-adv-x="632" unicode="&#282;" /><glyph d="M536 0C545 0 552 7 552 16C552 25 545 32 536 32H96L112 16V1184L96 1168H536C545 1168 552 1175 552 1184C552 1193 545 1200 536 1200H96C87 1200 80 1193 80 1184V16C80 7 87 0 96 0ZM97 563C88 563 81 556 81 547C81 538 88 531 97 531H316C325 531 332 538 332 547C332 556 325 563 316 563ZM316 -204C352 -204 382 -174 382 -138C382 -110 364 -84 338 -76L370 2C374 10 370 20 362 22C354 26 344 22 342 14L302 -82C296 -94 302 -104 316 -104C336 -104 350 -118 350 -138C350 -158 336 -172 316 -172C296 -172 282 -158 282 -138C282 -130 274 -122 266 -122C258 -122 250 -130 250 -138C250 -174 280 -204 316 -204Z" glyph-name="Ecedilla" horiz-adv-x="632" unicode="&#552;" /><glyph d="M536 0C545 0 552 7 552 16C552 25 545 32 536 32H96L112 16V1184L96 1168H536C545 1168 552 1175 552 1184C552 1193 545 1200 536 1200H96C87 1200 80 1193 80 1184V16C80 7 87 0 96 0ZM97 563C88 563 81 556 81 547C81 538 88 531 97 531H316C325 531 332 538 332 547C332 556 325 563 316 563ZM222 1289C216 1283 216 1273 222 1267C228 1261 238 1261 244 1267L327 1350H305L388 1267C394 1261 404 1261 410 1267C416 1273 416 1283 410 1289L327 1372C321 1379 311 1379 305 1372Z" glyph-name="Ecircumflex" horiz-adv-x="632" unicode="&#202;" /><glyph d="M536 0C545 0 552 7 552 16C552 25 545 32 536 32H96L112 16V1184L96 1168H536C545 1168 552 1175 552 1184C552 1193 545 1200 536 1200H96C87 1200 80 1193 80 1184V16C80 7 87 0 96 0ZM97 563C88 563 81 556 81 547C81 538 88 531 97 531H316C325 531 332 538 332 547C332 556 325 563 316 563ZM356 1298C366 1298 376 1306 376 1318C376 1328 366 1338 356 1338C344 1338 336 1328 336 1318C336 1306 344 1298 356 1298ZM276 1298C286 1298 296 1306 296 1318C296 1328 286 1338 276 1338C264 1338 256 1328 256 1318C256 1306 264 1298 276 1298Z" glyph-name="Edieresis" horiz-adv-x="632" unicode="&#203;" /><glyph d="M536 0C545 0 552 7 552 16C552 25 545 32 536 32H96L112 16V1184L96 1168H536C545 1168 552 1175 552 1184C552 1193 545 1200 536 1200H96C87 1200 80 1193 80 1184V16C80 7 87 0 96 0ZM97 563C88 563 81 556 81 547C81 538 88 531 97 531H316C325 531 332 538 332 547C332 556 325 563 316 563ZM316 1298C326 1298 336 1306 336 1318C336 1328 326 1338 316 1338C304 1338 296 1328 296 1318C296 1306 304 1298 316 1298Z" glyph-name="Edotaccent" horiz-adv-x="632" unicode="&#278;" /><glyph d="M536 0C545 0 552 7 552 16C552 25 545 32 536 32H96L112 16V1184L96 1168H536C545 1168 552 1175 552 1184C552 1193 545 1200 536 1200H96C87 1200 80 1193 80 1184V16C80 7 87 0 96 0ZM97 563C88 563 81 556 81 547C81 538 88 531 97 531H316C325 531 332 538 332 547C332 556 325 563 316 563ZM307 1267C313 1261 323 1261 329 1267C335 1273 335 1283 329 1289L205 1411C199 1417 189 1417 183 1411C177 1405 177 1395 183 1389Z" glyph-name="Egrave" horiz-adv-x="632" unicode="&#200;" /><glyph d="M536 0C545 0 552 7 552 16C552 25 545 32 536 32H96L112 16V1184L96 1168H536C545 1168 552 1175 552 1184C552 1193 545 1200 536 1200H96C87 1200 80 1193 80 1184V16C80 7 87 0 96 0ZM97 563C88 563 81 556 81 547C81 538 88 531 97 531H316C325 531 332 538 332 547C332 556 325 563 316 563ZM403 1302C411 1302 419 1310 419 1318C419 1326 411 1334 403 1334H229C221 1334 213 1326 213 1318C213 1310 221 1302 229 1302Z" glyph-name="Emacron" horiz-adv-x="632" unicode="&#274;" /><glyph d="M536 0C545 0 552 7 552 16C552 25 545 32 536 32H96L112 16V1184L96 1168H536C545 1168 552 1175 552 1184C552 1193 545 1200 536 1200H96C87 1200 80 1193 80 1184V16C80 7 87 0 96 0ZM97 563C88 563 81 556 81 547C81 538 88 531 97 531H316C325 531 332 538 332 547C332 556 325 563 316 563ZM356 -204C392 -204 422 -174 422 -138C422 -130 414 -122 406 -122C398 -122 390 -130 390 -138C390 -158 376 -172 356 -172C336 -172 322 -158 322 -138C322 -118 336 -104 356 -104C370 -104 376 -94 370 -82L330 14C328 22 318 26 310 22C302 20 298 10 302 2L334 -76C308 -84 290 -110 290 -138C290 -174 320 -204 356 -204Z" glyph-name="Eogonek" horiz-adv-x="632" unicode="&#280;" /><glyph d="M228 530C236 530 244 538 244 546C244 556 236 562 228 562H16C8 562 0 556 0 546C0 538 8 530 16 530ZM536 972C536 1098 434 1200 308 1200H96C87 1200 80 1193 80 1184V16C80 7 87 0 96 0H308C434 0 536 102 536 228ZM504 972V228C504 120 416 32 308 32H96L112 16V1184L96 1168H308C416 1168 504 1080 504 972Z" glyph-name="Eth" horiz-adv-x="616" unicode="&#208;" /><glyph d="M536 0C545 0 552 7 552 16C552 25 545 32 536 32H96L112 16V1184L96 1168H536C545 1168 552 1175 552 1184C552 1193 545 1200 536 1200H96C87 1200 80 1193 80 1184V16C80 7 87 0 96 0ZM97 563C88 563 81 556 81 547C81 538 88 531 97 531H316C325 531 332 538 332 547C332 556 325 563 316 563ZM209 1315C215 1345 241 1369 274 1369C298 1369 319 1356 331 1336C337 1326 348 1319 360 1319C377 1319 391 1331 393 1347C395 1355 403 1361 412 1360C420 1358 426 1350 425 1341C419 1311 393 1287 360 1287C336 1287 315 1300 303 1320C297 1330 286 1337 274 1337C257 1337 243 1325 241 1309C239 1301 231 1295 222 1296C214 1298 208 1306 209 1315Z" glyph-name="Etilde" horiz-adv-x="632" unicode="&#7868;" /><glyph d="M554 988C554 979 561 972 570 972C579 972 586 979 586 988C586 1114 484 1216 358 1216C232 1216 130 1114 130 988V212C130 86 232 -16 358 -16C484 -16 586 86 586 212C586 221 579 228 570 228C561 228 554 221 554 212C554 104 466 16 358 16C250 16 162 104 162 212V988C162 1096 250 1184 358 1184C466 1184 554 1096 554 988ZM311 654C320 654 327 661 327 670C327 679 320 686 311 686H76C67 686 60 679 60 670C60 661 67 654 76 654ZM311 574C320 574 327 581 327 590C327 599 320 606 311 606H76C67 606 60 599 60 590C60 581 67 574 76 574Z" glyph-name="Euro" horiz-adv-x="666" unicode="&#8364;" /><glyph d="M80 16C80 7 87 0 96 0C105 0 112 7 112 16V1184L96 1168H536C545 1168 552 1175 552 1184C552 1193 545 1200 536 1200H96C87 1200 80 1193 80 1184ZM97 563C88 563 81 556 81 547C81 538 88 531 97 531H316C325 531 332 538 332 547C332 556 325 563 316 563Z" glyph-name="F" horiz-adv-x="632" unicode="F" /><glyph d="M80 16C80 7 87 0 96 0C105 0 112 7 112 16V1184L96 1168H536C545 1168 552 1175 552 1184C552 1193 545 1200 536 1200H96C87 1200 80 1193 80 1184ZM97 563C88 563 81 556 81 547C81 538 88 531 97 531H316C325 531 332 538 332 547C332 556 325 563 316 563ZM316 1298C326 1298 336 1306 336 1318C336 1328 326 1338 316 1338C304 1338 296 1328 296 1318C296 1306 304 1298 316 1298Z" glyph-name="Fdotaccent" horiz-adv-x="632" unicode="&#7710;" /><glyph d="M374 392C365 392 358 385 358 376C358 367 365 360 374 360H520L504 376V196C504 88 416 0 308 0C200 0 112 88 112 196V1004C112 1112 200 1200 308 1200C416 1200 504 1112 504 1004C504 995 511 988 520 988C529 988 536 995 536 1004C536 1130 434 1232 308 1232C182 1232 80 1130 80 1004V196C80 70 182 -32 308 -32C434 -32 536 70 536 196V376C536 385 529 392 520 392Z" glyph-name="G" horiz-adv-x="616" unicode="G" /><glyph d="M374 392C365 392 358 385 358 376C358 367 365 360 374 360H520L504 376V196C504 88 416 0 308 0C200 0 112 88 112 196V1004C112 1112 200 1200 308 1200C416 1200 504 1112 504 1004C504 995 511 988 520 988C529 988 536 995 536 1004C536 1130 434 1232 308 1232C182 1232 80 1130 80 1004V196C80 70 182 -32 308 -32C434 -32 536 70 536 196V376C536 385 529 392 520 392ZM443 1389C449 1395 449 1405 443 1411C437 1417 427 1417 421 1411L297 1289C291 1283 291 1273 297 1267C303 1261 313 1261 319 1267Z" glyph-name="Gacute" horiz-adv-x="616" unicode="&#500;" /><glyph d="M374 392C365 392 358 385 358 376C358 367 365 360 374 360H520L504 376V196C504 88 416 0 308 0C200 0 112 88 112 196V1004C112 1112 200 1200 308 1200C416 1200 504 1112 504 1004C504 995 511 988 520 988C529 988 536 995 536 1004C536 1130 434 1232 308 1232C182 1232 80 1130 80 1004V196C80 70 182 -32 308 -32C434 -32 536 70 536 196V376C536 385 529 392 520 392ZM308 1262C342 1262 372 1290 374 1326V1328C374 1336 366 1344 358 1344C350 1344 342 1336 342 1328C342 1310 326 1294 308 1294C290 1294 274 1310 274 1328C274 1336 266 1344 258 1344C250 1344 242 1336 242 1328C242 1292 272 1262 308 1262Z" glyph-name="Gbreve" horiz-adv-x="616" unicode="&#286;" /><glyph d="M374 392C365 392 358 385 358 376C358 367 365 360 374 360H520L504 376V196C504 88 416 0 308 0C200 0 112 88 112 196V1004C112 1112 200 1200 308 1200C416 1200 504 1112 504 1004C504 995 511 988 520 988C529 988 536 995 536 1004C536 1130 434 1232 308 1232C182 1232 80 1130 80 1004V196C80 70 182 -32 308 -32C434 -32 536 70 536 196V376C536 385 529 392 520 392ZM402 1350C408 1356 408 1366 402 1372C396 1378 386 1378 380 1372L297 1289H319L236 1372C230 1378 220 1378 214 1372C208 1366 208 1356 214 1350L297 1267C303 1260 313 1260 319 1267Z" glyph-name="Gcaron" horiz-adv-x="616" unicode="&#486;" /><glyph d="M374 392C365 392 358 385 358 376C358 367 365 360 374 360H520L504 376V196C504 88 416 0 308 0C200 0 112 88 112 196V1004C112 1112 200 1200 308 1200C416 1200 504 1112 504 1004C504 995 511 988 520 988C529 988 536 995 536 1004C536 1130 434 1232 308 1232C182 1232 80 1130 80 1004V196C80 70 182 -32 308 -32C434 -32 536 70 536 196V376C536 385 529 392 520 392ZM268 -240C304 -240 334 -210 334 -174C334 -146 316 -120 290 -112L322 -34C326 -26 322 -16 314 -14C306 -10 296 -14 294 -22L254 -118C248 -130 254 -140 268 -140C288 -140 302 -154 302 -174C302 -194 288 -208 268 -208C248 -208 234 -194 234 -174C234 -166 226 -158 218 -158C210 -158 202 -166 202 -174C202 -210 232 -240 268 -240Z" glyph-name="Gcedilla" horiz-adv-x="616" unicode="&#290;" /><glyph d="M374 392C365 392 358 385 358 376C358 367 365 360 374 360H520L504 376V196C504 88 416 0 308 0C200 0 112 88 112 196V1004C112 1112 200 1200 308 1200C416 1200 504 1112 504 1004C504 995 511 988 520 988C529 988 536 995 536 1004C536 1130 434 1232 308 1232C182 1232 80 1130 80 1004V196C80 70 182 -32 308 -32C434 -32 536 70 536 196V376C536 385 529 392 520 392ZM214 1289C208 1283 208 1273 214 1267C220 1261 230 1261 236 1267L319 1350H297L380 1267C386 1261 396 1261 402 1267C408 1273 408 1283 402 1289L319 1372C313 1379 303 1379 297 1372Z" glyph-name="Gcircumflex" horiz-adv-x="616" unicode="&#284;" /><glyph d="M374 392C365 392 358 385 358 376C358 367 365 360 374 360H520L504 376V196C504 88 416 0 308 0C200 0 112 88 112 196V1004C112 1112 200 1200 308 1200C416 1200 504 1112 504 1004C504 995 511 988 520 988C529 988 536 995 536 1004C536 1130 434 1232 308 1232C182 1232 80 1130 80 1004V196C80 70 182 -32 308 -32C434 -32 536 70 536 196V376C536 385 529 392 520 392ZM308 1298C318 1298 328 1306 328 1318C328 1328 318 1338 308 1338C296 1338 288 1328 288 1318C288 1306 296 1298 308 1298Z" glyph-name="Gdotaccent" horiz-adv-x="616" unicode="&#288;" /><glyph d="M374 392C365 392 358 385 358 376C358 367 365 360 374 360H520L504 376V196C504 88 416 0 308 0C200 0 112 88 112 196V1004C112 1112 200 1200 308 1200C416 1200 504 1112 504 1004C504 995 511 988 520 988C529 988 536 995 536 1004C536 1130 434 1232 308 1232C182 1232 80 1130 80 1004V196C80 70 182 -32 308 -32C434 -32 536 70 536 196V376C536 385 529 392 520 392ZM395 1302C403 1302 411 1310 411 1318C411 1326 403 1334 395 1334H221C213 1334 205 1326 205 1318C205 1310 213 1302 221 1302Z" glyph-name="Gmacron" horiz-adv-x="616" unicode="&#7712;" /><glyph d="M80 16C80 7 87 0 96 0C105 0 112 7 112 16V1184C112 1193 105 1200 96 1200C87 1200 80 1193 80 1184ZM504 16C504 7 511 0 520 0C529 0 536 7 536 16V1184C536 1193 529 1200 520 1200C511 1200 504 1193 504 1184ZM97 563C88 563 81 556 81 547C81 538 88 531 97 531H520C529 531 536 538 536 547C536 556 529 563 520 563Z" glyph-name="H" horiz-adv-x="616" unicode="H" /><glyph d="M590 978C598 978 606 986 606 994C606 1002 598 1010 590 1010H26C18 1010 10 1002 10 994C10 986 18 978 26 978ZM80 16C80 7 87 0 96 0C105 0 112 7 112 16V1184C112 1193 105 1200 96 1200C87 1200 80 1193 80 1184ZM504 16C504 7 511 0 520 0C529 0 536 7 536 16V1184C536 1193 529 1200 520 1200C511 1200 504 1193 504 1184ZM97 563C88 563 81 556 81 547C81 538 88 531 97 531H520C529 531 536 538 536 547C536 556 529 563 520 563Z" glyph-name="Hbar" horiz-adv-x="616" unicode="&#294;" /><glyph d="M80 16C80 7 87 0 96 0C105 0 112 7 112 16V1184C112 1193 105 1200 96 1200C87 1200 80 1193 80 1184ZM504 16C504 7 511 0 520 0C529 0 536 7 536 16V1184C536 1193 529 1200 520 1200C511 1200 504 1193 504 1184ZM97 563C88 563 81 556 81 547C81 538 88 531 97 531H520C529 531 536 538 536 547C536 556 529 563 520 563ZM402 1350C408 1356 408 1366 402 1372C396 1378 386 1378 380 1372L297 1289H319L236 1372C230 1378 220 1378 214 1372C208 1366 208 1356 214 1350L297 1267C303 1260 313 1260 319 1267Z" glyph-name="Hcaron" horiz-adv-x="616" unicode="&#542;" /><glyph d="M80 16C80 7 87 0 96 0C105 0 112 7 112 16V1184C112 1193 105 1200 96 1200C87 1200 80 1193 80 1184ZM504 16C504 7 511 0 520 0C529 0 536 7 536 16V1184C536 1193 529 1200 520 1200C511 1200 504 1193 504 1184ZM97 563C88 563 81 556 81 547C81 538 88 531 97 531H520C529 531 536 538 536 547C536 556 529 563 520 563ZM480 -204C516 -204 546 -174 546 -138C546 -110 528 -84 502 -76L534 2C538 10 534 20 526 22C518 26 508 22 506 14L466 -82C460 -94 466 -104 480 -104C500 -104 514 -118 514 -138C514 -158 500 -172 480 -172C460 -172 446 -158 446 -138C446 -130 438 -122 430 -122C422 -122 414 -130 414 -138C414 -174 444 -204 480 -204Z" glyph-name="Hcedilla" horiz-adv-x="616" unicode="&#7720;" /><glyph d="M80 16C80 7 87 0 96 0C105 0 112 7 112 16V1184C112 1193 105 1200 96 1200C87 1200 80 1193 80 1184ZM504 16C504 7 511 0 520 0C529 0 536 7 536 16V1184C536 1193 529 1200 520 1200C511 1200 504 1193 504 1184ZM97 563C88 563 81 556 81 547C81 538 88 531 97 531H520C529 531 536 538 536 547C536 556 529 563 520 563ZM214 1289C208 1283 208 1273 214 1267C220 1261 230 1261 236 1267L319 1350H297L380 1267C386 1261 396 1261 402 1267C408 1273 408 1283 402 1289L319 1372C313 1379 303 1379 297 1372Z" glyph-name="Hcircumflex" horiz-adv-x="616" unicode="&#292;" /><glyph d="M80 16C80 7 87 0 96 0C105 0 112 7 112 16V1184C112 1193 105 1200 96 1200C87 1200 80 1193 80 1184ZM504 16C504 7 511 0 520 0C529 0 536 7 536 16V1184C536 1193 529 1200 520 1200C511 1200 504 1193 504 1184ZM97 563C88 563 81 556 81 547C81 538 88 531 97 531H520C529 531 536 538 536 547C536 556 529 563 520 563ZM348 1298C358 1298 368 1306 368 1318C368 1328 358 1338 348 1338C336 1338 328 1328 328 1318C328 1306 336 1298 348 1298ZM268 1298C278 1298 288 1306 288 1318C288 1328 278 1338 268 1338C256 1338 248 1328 248 1318C248 1306 256 1298 268 1298Z" glyph-name="Hdieresis" horiz-adv-x="616" unicode="&#7718;" /><glyph d="M80 16C80 7 87 0 96 0C105 0 112 7 112 16V1184C112 1193 105 1200 96 1200C87 1200 80 1193 80 1184ZM504 16C504 7 511 0 520 0C529 0 536 7 536 16V1184C536 1193 529 1200 520 1200C511 1200 504 1193 504 1184ZM97 563C88 563 81 556 81 547C81 538 88 531 97 531H520C529 531 536 538 536 547C536 556 529 563 520 563ZM308 1298C318 1298 328 1306 328 1318C328 1328 318 1338 308 1338C296 1338 288 1328 288 1318C288 1306 296 1298 308 1298Z" glyph-name="Hdotaccent" horiz-adv-x="616" unicode="&#7714;" /><glyph d="M96 0C104 0 112 8 112 16V1184C112 1192 104 1200 96 1200C88 1200 80 1192 80 1184V16C80 8 88 0 96 0Z" glyph-name="I" horiz-adv-x="192" unicode="I" /><glyph d="M96 0C104 0 112 8 112 16V1184C112 1192 104 1200 96 1200C88 1200 80 1192 80 1184V16C80 8 88 0 96 0ZM112 -121C112 -112 105 -105 96 -105C87 -105 80 -112 80 -121C80 -247 182 -349 308 -349C434 -349 536 -247 536 -121V867C536 876 529 883 520 883H308C299 883 292 876 292 867C292 858 299 851 308 851H520L504 867V-121C504 -229 416 -317 308 -317C200 -317 112 -229 112 -121Z" glyph-name="IJ" horiz-adv-x="192" unicode="&#306;" /><glyph d="M96 0C104 0 112 8 112 16V1184C112 1192 104 1200 96 1200C88 1200 80 1192 80 1184V16C80 8 88 0 96 0ZM233 1389C239 1395 239 1405 233 1411C227 1417 217 1417 211 1411L87 1289C81 1283 81 1273 87 1267C93 1261 103 1261 109 1267Z" glyph-name="Iacute" horiz-adv-x="192" unicode="&#205;" /><glyph d="M96 0C104 0 112 8 112 16V1184C112 1192 104 1200 96 1200C88 1200 80 1192 80 1184V16C80 8 88 0 96 0ZM96 1262C130 1262 160 1290 162 1326V1328C162 1336 154 1344 146 1344C138 1344 130 1336 130 1328C130 1310 114 1294 96 1294C78 1294 62 1310 62 1328C62 1336 54 1344 46 1344C38 1344 30 1336 30 1328C30 1292 60 1262 96 1262Z" glyph-name="Ibreve" horiz-adv-x="192" unicode="&#300;" /><glyph d="M96 0C104 0 112 8 112 16V1184C112 1192 104 1200 96 1200C88 1200 80 1192 80 1184V16C80 8 88 0 96 0ZM190 1350C196 1356 196 1366 190 1372C184 1378 174 1378 168 1372L85 1289H107L24 1372C18 1378 8 1378 2 1372C-4 1366 -4 1356 2 1350L85 1267C91 1260 101 1260 107 1267Z" glyph-name="Icaron" horiz-adv-x="192" unicode="&#463;" /><glyph d="M96 0C104 0 112 8 112 16V1184C112 1192 104 1200 96 1200C88 1200 80 1192 80 1184V16C80 8 88 0 96 0ZM2 1289C-4 1283 -4 1273 2 1267C8 1261 18 1261 24 1267L107 1350H85L168 1267C174 1261 184 1261 190 1267C196 1273 196 1283 190 1289L107 1372C101 1379 91 1379 85 1372Z" glyph-name="Icircumflex" horiz-adv-x="192" unicode="&#206;" /><glyph d="M96 0C104 0 112 8 112 16V1184C112 1192 104 1200 96 1200C88 1200 80 1192 80 1184V16C80 8 88 0 96 0ZM136 1298C146 1298 156 1306 156 1318C156 1328 146 1338 136 1338C124 1338 116 1328 116 1318C116 1306 124 1298 136 1298ZM56 1298C66 1298 76 1306 76 1318C76 1328 66 1338 56 1338C44 1338 36 1328 36 1318C36 1306 44 1298 56 1298Z" glyph-name="Idieresis" horiz-adv-x="192" unicode="&#207;" /><glyph d="M96 0C104 0 112 8 112 16V1184C112 1192 104 1200 96 1200C88 1200 80 1192 80 1184V16C80 8 88 0 96 0ZM96 1298C106 1298 116 1306 116 1318C116 1328 106 1338 96 1338C84 1338 76 1328 76 1318C76 1306 84 1298 96 1298Z" glyph-name="Idotaccent" horiz-adv-x="192" unicode="&#304;" /><glyph d="M96 0C104 0 112 8 112 16V1184C112 1192 104 1200 96 1200C88 1200 80 1192 80 1184V16C80 8 88 0 96 0ZM83 1267C89 1261 99 1261 105 1267C111 1273 111 1283 105 1289L-19 1411C-25 1417 -35 1417 -41 1411C-47 1405 -47 1395 -41 1389Z" glyph-name="Igrave" horiz-adv-x="192" unicode="&#204;" /><glyph d="M96 0C104 0 112 8 112 16V1184C112 1192 104 1200 96 1200C88 1200 80 1192 80 1184V16C80 8 88 0 96 0ZM183 1302C191 1302 199 1310 199 1318C199 1326 191 1334 183 1334H9C1 1334 -7 1326 -7 1318C-7 1310 1 1302 9 1302Z" glyph-name="Imacron" horiz-adv-x="192" unicode="&#298;" /><glyph d="M96 0C104 0 112 8 112 16V1184C112 1192 104 1200 96 1200C88 1200 80 1192 80 1184V16C80 8 88 0 96 0ZM136 -204C172 -204 202 -174 202 -138C202 -130 194 -122 186 -122C178 -122 170 -130 170 -138C170 -158 156 -172 136 -172C116 -172 102 -158 102 -138C102 -118 116 -104 136 -104C150 -104 156 -94 150 -82L110 14C108 22 98 26 90 22C82 20 78 10 82 2L114 -76C88 -84 70 -110 70 -138C70 -174 100 -204 136 -204Z" glyph-name="Iogonek" horiz-adv-x="192" unicode="&#302;" /><glyph d="M96 0C104 0 112 8 112 16V1184C112 1192 104 1200 96 1200C88 1200 80 1192 80 1184V16C80 8 88 0 96 0ZM-11 1315C-5 1345 21 1369 54 1369C78 1369 99 1356 111 1336C117 1326 128 1319 140 1319C157 1319 171 1331 173 1347C175 1355 183 1361 192 1360C200 1358 206 1350 205 1341C199 1311 173 1287 140 1287C116 1287 95 1300 83 1320C77 1330 66 1337 54 1337C37 1337 23 1325 21 1309C19 1301 11 1295 2 1296C-6 1298 -12 1306 -11 1315Z" glyph-name="Itilde" horiz-adv-x="192" unicode="&#296;" /><glyph d="M112 196C112 205 105 212 96 212C87 212 80 205 80 196C80 70 182 -32 308 -32C434 -32 536 70 536 196V1184C536 1193 529 1200 520 1200H308C299 1200 292 1193 292 1184C292 1175 299 1168 308 1168H520L504 1184V196C504 88 416 0 308 0C200 0 112 88 112 196Z" glyph-name="J" horiz-adv-x="616" unicode="J" /><glyph d="M112 196C112 205 105 212 96 212C87 212 80 205 80 196C80 70 182 -32 308 -32C434 -32 536 70 536 196V1184C536 1193 529 1200 520 1200H308C299 1200 292 1193 292 1184C292 1175 299 1168 308 1168H520L504 1184V196C504 88 416 0 308 0C200 0 112 88 112 196ZM316 1289C310 1283 310 1273 316 1267C322 1261 332 1261 338 1267L421 1350H399L482 1267C488 1261 498 1261 504 1267C510 1273 510 1283 504 1289L421 1372C415 1379 405 1379 399 1372Z" glyph-name="Jcircumflex" horiz-adv-x="616" unicode="&#308;" /><glyph d="M80 16C80 7 87 0 96 0C105 0 112 7 112 16V1184C112 1193 105 1200 96 1200C87 1200 80 1193 80 1184ZM601 6C606 0 617 -2 624 3C630 8 632 19 627 26L138 685C133 691 122 693 115 688C109 683 107 672 112 665ZM625 1173C631 1179 631 1189 625 1195C619 1201 609 1201 603 1195L91 670C85 664 85 654 91 648C97 642 107 642 113 648Z" glyph-name="K" horiz-adv-x="712" unicode="K" /><glyph d="M80 16C80 7 87 0 96 0C105 0 112 7 112 16V1184C112 1193 105 1200 96 1200C87 1200 80 1193 80 1184ZM601 6C606 0 617 -2 624 3C630 8 632 19 627 26L138 685C133 691 122 693 115 688C109 683 107 672 112 665ZM625 1173C631 1179 631 1189 625 1195C619 1201 609 1201 603 1195L91 670C85 664 85 654 91 648C97 642 107 642 113 648ZM229 1389C235 1395 235 1405 229 1411C223 1417 213 1417 207 1411L83 1289C77 1283 77 1273 83 1267C89 1261 99 1261 105 1267Z" glyph-name="Kacute" horiz-adv-x="712" unicode="&#7728;" /><glyph d="M80 16C80 7 87 0 96 0C105 0 112 7 112 16V1184C112 1193 105 1200 96 1200C87 1200 80 1193 80 1184ZM601 6C606 0 617 -2 624 3C630 8 632 19 627 26L138 685C133 691 122 693 115 688C109 683 107 672 112 665ZM625 1173C631 1179 631 1189 625 1195C619 1201 609 1201 603 1195L91 670C85 664 85 654 91 648C97 642 107 642 113 648ZM449 1350C455 1356 455 1366 449 1372C443 1378 433 1378 427 1372L344 1289H366L283 1372C277 1378 267 1378 261 1372C255 1366 255 1356 261 1350L344 1267C350 1260 360 1260 366 1267Z" glyph-name="Kcaron" horiz-adv-x="712" unicode="&#488;" /><glyph d="M80 16C80 7 87 0 96 0C105 0 112 7 112 16V1184C112 1193 105 1200 96 1200C87 1200 80 1193 80 1184ZM601 6C606 0 617 -2 624 3C630 8 632 19 627 26L138 685C133 691 122 693 115 688C109 683 107 672 112 665ZM625 1173C631 1179 631 1189 625 1195C619 1201 609 1201 603 1195L91 670C85 664 85 654 91 648C97 642 107 642 113 648ZM576 -204C612 -204 642 -174 642 -138C642 -110 624 -84 598 -76L630 2C634 10 630 20 622 22C614 26 604 22 602 14L562 -82C556 -94 562 -104 576 -104C596 -104 610 -118 610 -138C610 -158 596 -172 576 -172C556 -172 542 -158 542 -138C542 -130 534 -122 526 -122C518 -122 510 -130 510 -138C510 -174 540 -204 576 -204Z" glyph-name="Kcedilla" horiz-adv-x="712" unicode="&#310;" /><glyph d="M112 1184C112 1193 105 1200 96 1200C87 1200 80 1193 80 1184V16C80 7 87 0 96 0H520C529 0 536 7 536 16C536 25 529 32 520 32H96L112 16Z" glyph-name="L" horiz-adv-x="616" unicode="L" /><glyph d="M112 1184C112 1193 105 1200 96 1200C87 1200 80 1193 80 1184V16C80 7 87 0 96 0H520C529 0 536 7 536 16C536 25 529 32 520 32H96L112 16ZM233 1389C239 1395 239 1405 233 1411C227 1417 217 1417 211 1411L87 1289C81 1283 81 1273 87 1267C93 1261 103 1261 109 1267Z" glyph-name="Lacute" horiz-adv-x="616" unicode="&#313;" /><glyph d="M112 1184C112 1193 105 1200 96 1200C87 1200 80 1193 80 1184V16C80 7 87 0 96 0H520C529 0 536 7 536 16C536 25 529 32 520 32H96L112 16ZM192 1350C198 1356 198 1366 192 1372C186 1378 176 1378 170 1372L87 1289H109L26 1372C20 1378 10 1378 4 1372C-2 1366 -2 1356 4 1350L87 1267C93 1260 103 1260 109 1267Z" glyph-name="Lcaron" horiz-adv-x="616" unicode="&#317;" /><glyph d="M112 1184C112 1193 105 1200 96 1200C87 1200 80 1193 80 1184V16C80 7 87 0 96 0H520C529 0 536 7 536 16C536 25 529 32 520 32H96L112 16ZM268 -204C304 -204 334 -174 334 -138C334 -110 316 -84 290 -76L322 2C326 10 322 20 314 22C306 26 296 22 294 14L254 -82C248 -94 254 -104 268 -104C288 -104 302 -118 302 -138C302 -158 288 -172 268 -172C248 -172 234 -158 234 -138C234 -130 226 -122 218 -122C210 -122 202 -130 202 -138C202 -174 232 -204 268 -204Z" glyph-name="Lcedilla" horiz-adv-x="616" unicode="&#315;" /><glyph d="M112 1184C112 1193 105 1200 96 1200C87 1200 80 1193 80 1184V16C80 7 87 0 96 0H520C529 0 536 7 536 16C536 25 529 32 520 32H96L112 16ZM308 402C321 402 332 413 332 426C332 439 321 450 308 450C295 450 284 439 284 426C284 413 295 402 308 402Z" glyph-name="Ldot" horiz-adv-x="616" unicode="&#319;" /><glyph d="M179 884C186 888 189 899 185 906C181 912 170 915 163 911L13 824C6 820 3 809 7 803C11 796 22 793 29 797ZM112 1184C112 1193 105 1200 96 1200C87 1200 80 1193 80 1184V16C80 7 87 0 96 0H520C529 0 536 7 536 16C536 25 529 32 520 32H96L112 16Z" glyph-name="Lslash" horiz-adv-x="616" unicode="&#321;" /><glyph d="M80 16C80 7 87 0 96 0C105 0 112 7 112 16V1200L81 1194L293 647C299 632 317 632 323 647L535 1194L504 1200V16C504 7 511 0 520 0C529 0 536 7 536 16V1200C536 1219 512 1223 505 1206L293 659H323L111 1206C104 1223 80 1219 80 1200Z" glyph-name="M" horiz-adv-x="616" unicode="M" /><glyph d="M80 16C80 7 87 0 96 0C105 0 112 7 112 16V1200L81 1194L293 647C299 632 317 632 323 647L535 1194L504 1200V16C504 7 511 0 520 0C529 0 536 7 536 16V1200C536 1219 512 1223 505 1206L293 659H323L111 1206C104 1223 80 1219 80 1200ZM443 1389C449 1395 449 1405 443 1411C437 1417 427 1417 421 1411L297 1289C291 1283 291 1273 297 1267C303 1261 313 1261 319 1267Z" glyph-name="Macute" horiz-adv-x="616" unicode="&#7742;" /><glyph d="M80 16C80 7 87 0 96 0C105 0 112 7 112 16V1200L81 1194L293 647C299 632 317 632 323 647L535 1194L504 1200V16C504 7 511 0 520 0C529 0 536 7 536 16V1200C536 1219 512 1223 505 1206L293 659H323L111 1206C104 1223 80 1219 80 1200ZM308 1298C318 1298 328 1306 328 1318C328 1328 318 1338 308 1338C296 1338 288 1328 288 1318C288 1306 296 1298 308 1298Z" glyph-name="Mdotaccent" horiz-adv-x="616" unicode="&#7744;" /><glyph d="M80 16C80 7 87 0 96 0C105 0 112 7 112 16V1184L81 1178L521 10C528 -7 552 -3 552 16V1184C552 1193 545 1200 536 1200C527 1200 520 1193 520 1184V16L551 22L111 1190C104 1207 80 1203 80 1184Z" glyph-name="N" horiz-adv-x="632" unicode="N" /><glyph d="M80 16C80 7 87 0 96 0C105 0 112 7 112 16V1184L81 1178L521 10C528 -7 552 -3 552 16V1184C552 1193 545 1200 536 1200C527 1200 520 1193 520 1184V16L551 22L111 1190C104 1207 80 1203 80 1184ZM451 1389C457 1395 457 1405 451 1411C445 1417 435 1417 429 1411L305 1289C299 1283 299 1273 305 1267C311 1261 321 1261 327 1267Z" glyph-name="Nacute" horiz-adv-x="632" unicode="&#323;" /><glyph d="M80 16C80 7 87 0 96 0C105 0 112 7 112 16V1184L81 1178L521 10C528 -7 552 -3 552 16V1184C552 1193 545 1200 536 1200C527 1200 520 1193 520 1184V16L551 22L111 1190C104 1207 80 1203 80 1184ZM410 1350C416 1356 416 1366 410 1372C404 1378 394 1378 388 1372L305 1289H327L244 1372C238 1378 228 1378 222 1372C216 1366 216 1356 222 1350L305 1267C311 1260 321 1260 327 1267Z" glyph-name="Ncaron" horiz-adv-x="632" unicode="&#327;" /><glyph d="M80 16C80 7 87 0 96 0C105 0 112 7 112 16V1184L81 1178L521 10C528 -7 552 -3 552 16V1184C552 1193 545 1200 536 1200C527 1200 520 1193 520 1184V16L551 22L111 1190C104 1207 80 1203 80 1184ZM496 -204C532 -204 562 -174 562 -138C562 -110 544 -84 518 -76L550 2C554 10 550 20 542 22C534 26 524 22 522 14L482 -82C476 -94 482 -104 496 -104C516 -104 530 -118 530 -138C530 -158 516 -172 496 -172C476 -172 462 -158 462 -138C462 -130 454 -122 446 -122C438 -122 430 -130 430 -138C430 -174 460 -204 496 -204Z" glyph-name="Ncedilla" horiz-adv-x="632" unicode="&#325;" /><glyph d="M80 16C80 7 87 0 96 0C105 0 112 7 112 16V1184L81 1178L521 10C528 -7 552 -3 552 16V1184C552 1193 545 1200 536 1200C527 1200 520 1193 520 1184V16L551 22L111 1190C104 1207 80 1203 80 1184ZM316 1298C326 1298 336 1306 336 1318C336 1328 326 1338 316 1338C304 1338 296 1328 296 1318C296 1306 304 1298 316 1298Z" glyph-name="Ndotaccent" horiz-adv-x="632" unicode="&#7748;" /><glyph d="M80 16C80 7 87 0 96 0C105 0 112 7 112 16V1184L81 1178L521 10C528 -7 552 -3 552 16V1184C552 1193 545 1200 536 1200C527 1200 520 1193 520 1184V16L551 22L111 1190C104 1207 80 1203 80 1184ZM307 1267C313 1261 323 1261 329 1267C335 1273 335 1283 329 1289L205 1411C199 1417 189 1417 183 1411C177 1405 177 1395 183 1389Z" glyph-name="Ngrave" horiz-adv-x="632" unicode="&#504;" /><glyph d="M80 16C80 7 87 0 96 0C105 0 112 7 112 16V1184L81 1178L521 10C528 -7 552 -3 552 16V1184C552 1193 545 1200 536 1200C527 1200 520 1193 520 1184V16L551 22L111 1190C104 1207 80 1203 80 1184ZM209 1315C215 1345 241 1369 274 1369C298 1369 319 1356 331 1336C337 1326 348 1319 360 1319C377 1319 391 1331 393 1347C395 1355 403 1361 412 1360C420 1358 426 1350 425 1341C419 1311 393 1287 360 1287C336 1287 315 1300 303 1320C297 1330 286 1337 274 1337C257 1337 243 1325 241 1309C239 1301 231 1295 222 1296C214 1298 208 1306 209 1315Z" glyph-name="Ntilde" horiz-adv-x="632" unicode="&#209;" /><glyph d="M308 -32C434 -32 536 70 536 196V1004C536 1130 434 1232 308 1232C182 1232 80 1130 80 1004V196C80 70 182 -32 308 -32ZM308 1200C416 1200 504 1112 504 1004V196C504 88 416 0 308 0C200 0 112 88 112 196V1004C112 1112 200 1200 308 1200Z" glyph-name="O" horiz-adv-x="616" unicode="O" /><glyph d="M880 6C885 6 890 11 890 16C890 21 885 26 880 26H520L530 16V1184L520 1174H880C885 1174 890 1179 890 1184C890 1189 885 1194 880 1194H520C514 1194 510 1190 510 1184V16C510 10 514 6 520 6ZM531 556C526 556 521 551 521 546C521 541 526 536 531 536H700C705 536 710 541 710 546C710 551 705 556 700 556ZM505 1033C506 1027 512 1024 517 1025C523 1026 526 1032 525 1037C502 1136 414 1210 308 1210C185 1210 86 1111 86 988V212C86 89 185 -10 308 -10C414 -10 503 64 525 163C526 168 522 174 517 175C512 176 506 172 505 167C485 78 404 10 308 10C197 10 106 101 106 212V988C106 1099 197 1190 308 1190C404 1190 484 1122 505 1033Z" glyph-name="OE" horiz-adv-x="976" unicode="&#338;" /><glyph d="M308 -32C434 -32 536 70 536 196V1004C536 1130 434 1232 308 1232C182 1232 80 1130 80 1004V196C80 70 182 -32 308 -32ZM308 1200C416 1200 504 1112 504 1004V196C504 88 416 0 308 0C200 0 112 88 112 196V1004C112 1112 200 1200 308 1200ZM443 1389C449 1395 449 1405 443 1411C437 1417 427 1417 421 1411L297 1289C291 1283 291 1273 297 1267C303 1261 313 1261 319 1267Z" glyph-name="Oacute" horiz-adv-x="616" unicode="&#211;" /><glyph d="M308 -32C434 -32 536 70 536 196V1004C536 1130 434 1232 308 1232C182 1232 80 1130 80 1004V196C80 70 182 -32 308 -32ZM308 1200C416 1200 504 1112 504 1004V196C504 88 416 0 308 0C200 0 112 88 112 196V1004C112 1112 200 1200 308 1200ZM308 1262C342 1262 372 1290 374 1326V1328C374 1336 366 1344 358 1344C350 1344 342 1336 342 1328C342 1310 326 1294 308 1294C290 1294 274 1310 274 1328C274 1336 266 1344 258 1344C250 1344 242 1336 242 1328C242 1292 272 1262 308 1262Z" glyph-name="Obreve" horiz-adv-x="616" unicode="&#334;" /><glyph d="M308 -32C434 -32 536 70 536 196V1004C536 1130 434 1232 308 1232C182 1232 80 1130 80 1004V196C80 70 182 -32 308 -32ZM308 1200C416 1200 504 1112 504 1004V196C504 88 416 0 308 0C200 0 112 88 112 196V1004C112 1112 200 1200 308 1200ZM402 1350C408 1356 408 1366 402 1372C396 1378 386 1378 380 1372L297 1289H319L236 1372C230 1378 220 1378 214 1372C208 1366 208 1356 214 1350L297 1267C303 1260 313 1260 319 1267Z" glyph-name="Ocaron" horiz-adv-x="616" unicode="&#465;" /><glyph d="M308 -32C434 -32 536 70 536 196V1004C536 1130 434 1232 308 1232C182 1232 80 1130 80 1004V196C80 70 182 -32 308 -32ZM308 1200C416 1200 504 1112 504 1004V196C504 88 416 0 308 0C200 0 112 88 112 196V1004C112 1112 200 1200 308 1200ZM214 1289C208 1283 208 1273 214 1267C220 1261 230 1261 236 1267L319 1350H297L380 1267C386 1261 396 1261 402 1267C408 1273 408 1283 402 1289L319 1372C313 1379 303 1379 297 1372Z" glyph-name="Ocircumflex" horiz-adv-x="616" unicode="&#212;" /><glyph d="M308 -32C434 -32 536 70 536 196V1004C536 1130 434 1232 308 1232C182 1232 80 1130 80 1004V196C80 70 182 -32 308 -32ZM308 1200C416 1200 504 1112 504 1004V196C504 88 416 0 308 0C200 0 112 88 112 196V1004C112 1112 200 1200 308 1200ZM348 1298C358 1298 368 1306 368 1318C368 1328 358 1338 348 1338C336 1338 328 1328 328 1318C328 1306 336 1298 348 1298ZM268 1298C278 1298 288 1306 288 1318C288 1328 278 1338 268 1338C256 1338 248 1328 248 1318C248 1306 256 1298 268 1298Z" glyph-name="Odieresis" horiz-adv-x="616" unicode="&#214;" /><glyph d="M308 -32C434 -32 536 70 536 196V1004C536 1130 434 1232 308 1232C182 1232 80 1130 80 1004V196C80 70 182 -32 308 -32ZM308 1200C416 1200 504 1112 504 1004V196C504 88 416 0 308 0C200 0 112 88 112 196V1004C112 1112 200 1200 308 1200ZM308 1298C318 1298 328 1306 328 1318C328 1328 318 1338 308 1338C296 1338 288 1328 288 1318C288 1306 296 1298 308 1298Z" glyph-name="Odotaccent" horiz-adv-x="616" unicode="&#558;" /><glyph d="M308 -32C434 -32 536 70 536 196V1004C536 1130 434 1232 308 1232C182 1232 80 1130 80 1004V196C80 70 182 -32 308 -32ZM308 1200C416 1200 504 1112 504 1004V196C504 88 416 0 308 0C200 0 112 88 112 196V1004C112 1112 200 1200 308 1200ZM295 1267C301 1261 311 1261 317 1267C323 1273 323 1283 317 1289L193 1411C187 1417 177 1417 171 1411C165 1405 165 1395 171 1389Z" glyph-name="Ograve" horiz-adv-x="616" unicode="&#210;" /><glyph d="M308 -32C434 -32 536 70 536 196V1004C536 1130 434 1232 308 1232C182 1232 80 1130 80 1004V196C80 70 182 -32 308 -32ZM308 1200C416 1200 504 1112 504 1004V196C504 88 416 0 308 0C200 0 112 88 112 196V1004C112 1112 200 1200 308 1200ZM373 1389C379 1395 379 1405 373 1411C367 1417 357 1417 351 1411L227 1289C221 1283 221 1273 227 1267C233 1261 243 1261 249 1267ZM513 1389C519 1395 519 1405 513 1411C507 1417 497 1417 491 1411L367 1289C361 1283 361 1273 367 1267C373 1261 383 1261 389 1267Z" glyph-name="Ohungarumlaut" horiz-adv-x="616" unicode="&#336;" /><glyph d="M308 -32C434 -32 536 70 536 196V1004C536 1130 434 1232 308 1232C182 1232 80 1130 80 1004V196C80 70 182 -32 308 -32ZM308 1200C416 1200 504 1112 504 1004V196C504 88 416 0 308 0C200 0 112 88 112 196V1004C112 1112 200 1200 308 1200ZM395 1302C403 1302 411 1310 411 1318C411 1326 403 1334 395 1334H221C213 1334 205 1326 205 1318C205 1310 213 1302 221 1302Z" glyph-name="Omacron" horiz-adv-x="616" unicode="&#332;" /><glyph d="M536 -76C545 -76 552 -69 552 -60C552 -51 545 -44 536 -44H398L414 -60V152L398 136C475 136 538 199 538 276L536 1004C536 1130 434 1232 308 1232C182 1232 80 1130 80 1004V276C80 199 143 136 220 136L204 152V-60L220 -44H80C71 -44 64 -51 64 -60C64 -69 71 -76 80 -76H220C229 -76 236 -69 236 -60V152C236 161 229 168 220 168C161 168 112 217 112 276V1004C112 1112 200 1200 308 1200C416 1200 504 1112 504 1004L506 276C506 217 457 168 398 168C389 168 382 161 382 152V-60C382 -69 389 -76 398 -76Z" glyph-name="Omega" horiz-adv-x="616" unicode="&#937;" /><glyph d="M308 -32C434 -32 536 70 536 196V1004C536 1130 434 1232 308 1232C182 1232 80 1130 80 1004V196C80 70 182 -32 308 -32ZM308 1200C416 1200 504 1112 504 1004V196C504 88 416 0 308 0C200 0 112 88 112 196V1004C112 1112 200 1200 308 1200ZM350 -238C386 -238 416 -208 416 -172C416 -164 408 -156 400 -156C392 -156 384 -164 384 -172C384 -192 370 -206 350 -206C330 -206 316 -192 316 -172C316 -152 330 -138 350 -138C364 -138 370 -128 364 -116L324 -20C322 -12 312 -8 304 -12C296 -14 292 -24 296 -32L328 -110C302 -118 284 -144 284 -172C284 -208 314 -238 350 -238Z" glyph-name="Oogonek" horiz-adv-x="616" unicode="&#490;" /><glyph d="M519 1196C522 1204 517 1213 509 1216C501 1219 492 1214 489 1206L97 21C94 13 99 4 107 1C115 -2 124 3 127 11ZM308 -32C434 -32 536 70 536 196V1004C536 1130 434 1232 308 1232C182 1232 80 1130 80 1004V196C80 70 182 -32 308 -32ZM308 1200C416 1200 504 1112 504 1004V196C504 88 416 0 308 0C200 0 112 88 112 196V1004C112 1112 200 1200 308 1200Z" glyph-name="Oslash" horiz-adv-x="616" unicode="&#216;" /><glyph d="M308 -32C434 -32 536 70 536 196V1004C536 1130 434 1232 308 1232C182 1232 80 1130 80 1004V196C80 70 182 -32 308 -32ZM308 1200C416 1200 504 1112 504 1004V196C504 88 416 0 308 0C200 0 112 88 112 196V1004C112 1112 200 1200 308 1200ZM201 1315C207 1345 233 1369 266 1369C290 1369 311 1356 323 1336C329 1326 340 1319 352 1319C369 1319 383 1331 385 1347C387 1355 395 1361 404 1360C412 1358 418 1350 417 1341C411 1311 385 1287 352 1287C328 1287 307 1300 295 1320C289 1330 278 1337 266 1337C249 1337 235 1325 233 1309C231 1301 223 1295 214 1296C206 1298 200 1306 201 1315Z" glyph-name="Otilde" horiz-adv-x="616" unicode="&#213;" /><glyph d="M80 16C80 7 87 0 96 0C105 0 112 7 112 16V1184L96 1168H295C463 1168 584 1019 584 852C584 685 462 563 295 563H109C100 563 93 556 93 547C93 538 100 531 109 531H295C480 531 616 667 616 852C616 1037 479 1200 295 1200H96C87 1200 80 1193 80 1184Z" glyph-name="P" horiz-adv-x="686" unicode="P" /><glyph d="M80 16C80 7 87 0 96 0C105 0 112 7 112 16V1184L96 1168H295C463 1168 584 1019 584 852C584 685 462 563 295 563H109C100 563 93 556 93 547C93 538 100 531 109 531H295C480 531 616 667 616 852C616 1037 479 1200 295 1200H96C87 1200 80 1193 80 1184ZM422 1389C428 1395 428 1405 422 1411C416 1417 406 1417 400 1411L276 1289C270 1283 270 1273 276 1267C282 1261 292 1261 298 1267Z" glyph-name="Pacute" horiz-adv-x="686" unicode="&#7764;" /><glyph d="M80 16C80 7 87 0 96 0C105 0 112 7 112 16V1184L96 1168H295C463 1168 584 1019 584 852C584 685 462 563 295 563H109C100 563 93 556 93 547C93 538 100 531 109 531H295C480 531 616 667 616 852C616 1037 479 1200 295 1200H96C87 1200 80 1193 80 1184ZM348 1298C358 1298 368 1306 368 1318C368 1328 358 1338 348 1338C336 1338 328 1328 328 1318C328 1306 336 1298 348 1298Z" glyph-name="Pdotaccent" horiz-adv-x="686" unicode="&#7766;" /><glyph d="M536 1004C536 1130 434 1232 308 1232C182 1232 80 1130 80 1004V196C80 70 182 -32 308 -32C434 -32 536 70 536 196ZM504 1004V196C504 88 416 0 308 0C200 0 112 88 112 196V1004C112 1112 200 1200 308 1200C416 1200 504 1112 504 1004ZM384 152C378 158 368 158 362 152C356 146 356 136 362 130L517 -25C523 -31 533 -31 539 -25C545 -19 545 -9 539 -3Z" glyph-name="Q" horiz-adv-x="616" unicode="Q" /><glyph d="M80 16C80 7 87 0 96 0C105 0 112 7 112 16V1184L96 1168H295C463 1168 584 1019 584 852C584 685 462 563 295 563H109C100 563 93 556 93 547C93 538 100 531 109 531H295C480 531 616 667 616 852C616 1037 479 1200 295 1200H96C87 1200 80 1193 80 1184ZM600 8C604 1 615 -2 622 2C629 6 632 17 628 24L327 546C323 553 312 556 305 552C298 548 295 537 299 530Z" glyph-name="R" horiz-adv-x="690" unicode="R" /><glyph d="M80 16C80 7 87 0 96 0C105 0 112 7 112 16V1184L96 1168H295C463 1168 584 1019 584 852C584 685 462 563 295 563H109C100 563 93 556 93 547C93 538 100 531 109 531H295C480 531 616 667 616 852C616 1037 479 1200 295 1200H96C87 1200 80 1193 80 1184ZM600 8C604 1 615 -2 622 2C629 6 632 17 628 24L327 546C323 553 312 556 305 552C298 548 295 537 299 530ZM429 1389C435 1395 435 1405 429 1411C423 1417 413 1417 407 1411L283 1289C277 1283 277 1273 283 1267C289 1261 299 1261 305 1267Z" glyph-name="Racute" horiz-adv-x="690" unicode="&#340;" /><glyph d="M80 16C80 7 87 0 96 0C105 0 112 7 112 16V1184L96 1168H295C463 1168 584 1019 584 852C584 685 462 563 295 563H109C100 563 93 556 93 547C93 538 100 531 109 531H295C480 531 616 667 616 852C616 1037 479 1200 295 1200H96C87 1200 80 1193 80 1184ZM600 8C604 1 615 -2 622 2C629 6 632 17 628 24L327 546C323 553 312 556 305 552C298 548 295 537 299 530ZM406 1350C412 1356 412 1366 406 1372C400 1378 390 1378 384 1372L301 1289H323L240 1372C234 1378 224 1378 218 1372C212 1366 212 1356 218 1350L301 1267C307 1260 317 1260 323 1267Z" glyph-name="Rcaron" horiz-adv-x="690" unicode="&#344;" /><glyph d="M80 16C80 7 87 0 96 0C105 0 112 7 112 16V1184L96 1168H295C463 1168 584 1019 584 852C584 685 462 563 295 563H109C100 563 93 556 93 547C93 538 100 531 109 531H295C480 531 616 667 616 852C616 1037 479 1200 295 1200H96C87 1200 80 1193 80 1184ZM600 8C604 1 615 -2 622 2C629 6 632 17 628 24L327 546C323 553 312 556 305 552C298 548 295 537 299 530ZM576 -204C612 -204 642 -174 642 -138C642 -110 624 -84 598 -76L630 2C634 10 630 20 622 22C614 26 604 22 602 14L562 -82C556 -94 562 -104 576 -104C596 -104 610 -118 610 -138C610 -158 596 -172 576 -172C556 -172 542 -158 542 -138C542 -130 534 -122 526 -122C518 -122 510 -130 510 -138C510 -174 540 -204 576 -204Z" glyph-name="Rcedilla" horiz-adv-x="690" unicode="&#342;" /><glyph d="M80 16C80 7 87 0 96 0C105 0 112 7 112 16V1184L96 1168H295C463 1168 584 1019 584 852C584 685 462 563 295 563H109C100 563 93 556 93 547C93 538 100 531 109 531H295C480 531 616 667 616 852C616 1037 479 1200 295 1200H96C87 1200 80 1193 80 1184ZM600 8C604 1 615 -2 622 2C629 6 632 17 628 24L327 546C323 553 312 556 305 552C298 548 295 537 299 530ZM216 1298C226 1298 236 1306 236 1318C236 1328 226 1338 216 1338C204 1338 196 1328 196 1318C196 1306 204 1298 216 1298Z" glyph-name="Rdotaccent" horiz-adv-x="690" unicode="&#7768;" /><glyph d="M507 1004C507 995 514 988 523 988C532 988 539 995 539 1004C539 1130 437 1232 311 1232C311 1232 308 1232 308 1232C182 1232 80 1130 80 1004V889C80 763 182 661 308 661C308 661 310 661 310 661C418 661 506 573 506 465V196C506 88 418 0 310 0H308C200 0 112 88 112 196C112 205 105 212 96 212C87 212 80 205 80 196C80 70 182 -32 308 -32H310C436 -32 538 70 538 196V465C538 591 436 693 310 693C310 693 308 693 308 693C200 693 112 781 112 889V1004C112 1112 200 1200 308 1200C308 1200 311 1200 311 1200C419 1200 507 1112 507 1004Z" glyph-name="S" horiz-adv-x="616" unicode="S" /><glyph d="M507 1004C507 995 514 988 523 988C532 988 539 995 539 1004C539 1130 437 1232 311 1232C311 1232 308 1232 308 1232C182 1232 80 1130 80 1004V889C80 763 182 661 308 661C308 661 310 661 310 661C418 661 506 573 506 465V196C506 88 418 0 310 0H308C200 0 112 88 112 196C112 205 105 212 96 212C87 212 80 205 80 196C80 70 182 -32 308 -32H310C436 -32 538 70 538 196V465C538 591 436 693 310 693C310 693 308 693 308 693C200 693 112 781 112 889V1004C112 1112 200 1200 308 1200C308 1200 311 1200 311 1200C419 1200 507 1112 507 1004ZM443 1389C449 1395 449 1405 443 1411C437 1417 427 1417 421 1411L297 1289C291 1283 291 1273 297 1267C303 1261 313 1261 319 1267Z" glyph-name="Sacute" horiz-adv-x="616" unicode="&#346;" /><glyph d="M507 1004C507 995 514 988 523 988C532 988 539 995 539 1004C539 1130 437 1232 311 1232C311 1232 308 1232 308 1232C182 1232 80 1130 80 1004V889C80 763 182 661 308 661C308 661 310 661 310 661C418 661 506 573 506 465V196C506 88 418 0 310 0H308C200 0 112 88 112 196C112 205 105 212 96 212C87 212 80 205 80 196C80 70 182 -32 308 -32H310C436 -32 538 70 538 196V465C538 591 436 693 310 693C310 693 308 693 308 693C200 693 112 781 112 889V1004C112 1112 200 1200 308 1200C308 1200 311 1200 311 1200C419 1200 507 1112 507 1004ZM402 1350C408 1356 408 1366 402 1372C396 1378 386 1378 380 1372L297 1289H319L236 1372C230 1378 220 1378 214 1372C208 1366 208 1356 214 1350L297 1267C303 1260 313 1260 319 1267Z" glyph-name="Scaron" horiz-adv-x="616" unicode="&#352;" /><glyph d="M507 1004C507 995 514 988 523 988C532 988 539 995 539 1004C539 1130 437 1232 311 1232C311 1232 308 1232 308 1232C182 1232 80 1130 80 1004V889C80 763 182 661 308 661C308 661 310 661 310 661C418 661 506 573 506 465V196C506 88 418 0 310 0H308C200 0 112 88 112 196C112 205 105 212 96 212C87 212 80 205 80 196C80 70 182 -32 308 -32H310C436 -32 538 70 538 196V465C538 591 436 693 310 693C310 693 308 693 308 693C200 693 112 781 112 889V1004C112 1112 200 1200 308 1200C308 1200 311 1200 311 1200C419 1200 507 1112 507 1004ZM308 -230C344 -230 374 -200 374 -164C374 -136 356 -110 330 -102L362 -24C366 -16 362 -6 354 -4C346 0 336 -4 334 -12L294 -108C288 -120 294 -130 308 -130C328 -130 342 -144 342 -164C342 -184 328 -198 308 -198C288 -198 274 -184 274 -164C274 -156 266 -148 258 -148C250 -148 242 -156 242 -164C242 -200 272 -230 308 -230Z" glyph-name="Scedilla" horiz-adv-x="616" unicode="&#350;" /><glyph d="M507 1004C507 995 514 988 523 988C532 988 539 995 539 1004C539 1130 437 1232 311 1232C311 1232 308 1232 308 1232C182 1232 80 1130 80 1004V889C80 763 182 661 308 661C308 661 310 661 310 661C418 661 506 573 506 465V196C506 88 418 0 310 0H308C200 0 112 88 112 196C112 205 105 212 96 212C87 212 80 205 80 196C80 70 182 -32 308 -32H310C436 -32 538 70 538 196V465C538 591 436 693 310 693C310 693 308 693 308 693C200 693 112 781 112 889V1004C112 1112 200 1200 308 1200C308 1200 311 1200 311 1200C419 1200 507 1112 507 1004ZM214 1289C208 1283 208 1273 214 1267C220 1261 230 1261 236 1267L319 1350H297L380 1267C386 1261 396 1261 402 1267C408 1273 408 1283 402 1289L319 1372C313 1379 303 1379 297 1372Z" glyph-name="Scircumflex" horiz-adv-x="616" unicode="&#348;" /><glyph d="M507 1004C507 995 514 988 523 988C532 988 539 995 539 1004C539 1130 437 1232 311 1232C311 1232 308 1232 308 1232C182 1232 80 1130 80 1004V889C80 763 182 661 308 661C308 661 310 661 310 661C418 661 506 573 506 465V196C506 88 418 0 310 0H308C200 0 112 88 112 196C112 205 105 212 96 212C87 212 80 205 80 196C80 70 182 -32 308 -32H310C436 -32 538 70 538 196V465C538 591 436 693 310 693C310 693 308 693 308 693C200 693 112 781 112 889V1004C112 1112 200 1200 308 1200C308 1200 311 1200 311 1200C419 1200 507 1112 507 1004ZM308 1298C318 1298 328 1306 328 1318C328 1328 318 1338 308 1338C296 1338 288 1328 288 1318C288 1306 296 1298 308 1298Z" glyph-name="Sdotaccent" horiz-adv-x="616" unicode="&#7776;" /><glyph d="M96 1200H520C529 1200 536 1193 536 1184C536 1175 529 1168 520 1168H96C87 1168 80 1175 80 1184C80 1193 87 1200 96 1200ZM324 1174V16C324 7 317 0 308 0C299 0 292 7 292 16V1174C292 1183 299 1190 308 1190C317 1190 324 1183 324 1174Z" glyph-name="T" horiz-adv-x="616" unicode="T" /><glyph d="M96 1200H520C529 1200 536 1193 536 1184C536 1175 529 1168 520 1168H96C87 1168 80 1175 80 1184C80 1193 87 1200 96 1200ZM324 1174V16C324 7 317 0 308 0C299 0 292 7 292 16V1174C292 1183 299 1190 308 1190C317 1190 324 1183 324 1174ZM395 742C403 742 411 750 411 758C411 766 403 774 395 774H221C213 774 205 766 205 758C205 750 213 742 221 742Z" glyph-name="Tbar" horiz-adv-x="616" unicode="&#358;" /><glyph d="M96 1200H520C529 1200 536 1193 536 1184C536 1175 529 1168 520 1168H96C87 1168 80 1175 80 1184C80 1193 87 1200 96 1200ZM324 1174V16C324 7 317 0 308 0C299 0 292 7 292 16V1174C292 1183 299 1190 308 1190C317 1190 324 1183 324 1174ZM402 1350C408 1356 408 1366 402 1372C396 1378 386 1378 380 1372L297 1289H319L236 1372C230 1378 220 1378 214 1372C208 1366 208 1356 214 1350L297 1267C303 1260 313 1260 319 1267Z" glyph-name="Tcaron" horiz-adv-x="616" unicode="&#356;" /><glyph d="M96 1200H520C529 1200 536 1193 536 1184C536 1175 529 1168 520 1168H96C87 1168 80 1175 80 1184C80 1193 87 1200 96 1200ZM324 1174V16C324 7 317 0 308 0C299 0 292 7 292 16V1174C292 1183 299 1190 308 1190C317 1190 324 1183 324 1174ZM268 -204C304 -204 334 -174 334 -138C334 -110 316 -84 290 -76L322 2C326 10 322 20 314 22C306 26 296 22 294 14L254 -82C248 -94 254 -104 268 -104C288 -104 302 -118 302 -138C302 -158 288 -172 268 -172C248 -172 234 -158 234 -138C234 -130 226 -122 218 -122C210 -122 202 -130 202 -138C202 -174 232 -204 268 -204Z" glyph-name="Tcedilla" horiz-adv-x="616" unicode="&#354;" /><glyph d="M96 1200H520C529 1200 536 1193 536 1184C536 1175 529 1168 520 1168H96C87 1168 80 1175 80 1184C80 1193 87 1200 96 1200ZM324 1174V16C324 7 317 0 308 0C299 0 292 7 292 16V1174C292 1183 299 1190 308 1190C317 1190 324 1183 324 1174ZM287 -131C293 -131 300 -127 302 -122L330 -46C331 -44 331 -41 331 -39C331 -28 321 -16 308 -16C298 -16 286 -24 284 -34C271 -113 270 -115 270 -115C269 -123 277 -131 287 -131Z" glyph-name="Tcomma" horiz-adv-x="616" unicode="&#538;" /><glyph d="M96 1200H520C529 1200 536 1193 536 1184C536 1175 529 1168 520 1168H96C87 1168 80 1175 80 1184C80 1193 87 1200 96 1200ZM324 1174V16C324 7 317 0 308 0C299 0 292 7 292 16V1174C292 1183 299 1190 308 1190C317 1190 324 1183 324 1174ZM308 1298C318 1298 328 1306 328 1318C328 1328 318 1338 308 1338C296 1338 288 1328 288 1318C288 1306 296 1298 308 1298Z" glyph-name="Tdotaccent" horiz-adv-x="616" unicode="&#7786;" /><glyph d="M80 -160C80 -169 87 -176 96 -176C105 -176 112 -169 112 -160V1200C112 1209 105 1216 96 1216C87 1216 80 1209 80 1200ZM106 868C97 868 90 861 90 852C90 843 97 836 106 836H308C416 836 504 748 504 640V212C504 104 416 16 308 16H106C97 16 90 9 90 0C90 -9 97 -16 106 -16H308C434 -16 536 86 536 212V640C536 766 434 868 308 868Z" glyph-name="Thorn" horiz-adv-x="616" unicode="&#222;" /><glyph d="M112 1184C112 1193 105 1200 96 1200C87 1200 80 1193 80 1184V196C80 70 182 -32 308 -32C434 -32 536 70 536 196V1184C536 1193 529 1200 520 1200C511 1200 504 1193 504 1184V196C504 88 416 0 308 0C200 0 112 88 112 196Z" glyph-name="U" horiz-adv-x="616" unicode="U" /><glyph d="M112 1184C112 1193 105 1200 96 1200C87 1200 80 1193 80 1184V196C80 70 182 -32 308 -32C434 -32 536 70 536 196V1184C536 1193 529 1200 520 1200C511 1200 504 1193 504 1184V196C504 88 416 0 308 0C200 0 112 88 112 196ZM443 1389C449 1395 449 1405 443 1411C437 1417 427 1417 421 1411L297 1289C291 1283 291 1273 297 1267C303 1261 313 1261 319 1267Z" glyph-name="Uacute" horiz-adv-x="616" unicode="&#218;" /><glyph d="M112 1184C112 1193 105 1200 96 1200C87 1200 80 1193 80 1184V196C80 70 182 -32 308 -32C434 -32 536 70 536 196V1184C536 1193 529 1200 520 1200C511 1200 504 1193 504 1184V196C504 88 416 0 308 0C200 0 112 88 112 196ZM308 1262C342 1262 372 1290 374 1326V1328C374 1336 366 1344 358 1344C350 1344 342 1336 342 1328C342 1310 326 1294 308 1294C290 1294 274 1310 274 1328C274 1336 266 1344 258 1344C250 1344 242 1336 242 1328C242 1292 272 1262 308 1262Z" glyph-name="Ubreve" horiz-adv-x="616" unicode="&#364;" /><glyph d="M112 1184C112 1193 105 1200 96 1200C87 1200 80 1193 80 1184V196C80 70 182 -32 308 -32C434 -32 536 70 536 196V1184C536 1193 529 1200 520 1200C511 1200 504 1193 504 1184V196C504 88 416 0 308 0C200 0 112 88 112 196ZM402 1350C408 1356 408 1366 402 1372C396 1378 386 1378 380 1372L297 1289H319L236 1372C230 1378 220 1378 214 1372C208 1366 208 1356 214 1350L297 1267C303 1260 313 1260 319 1267Z" glyph-name="Ucaron" horiz-adv-x="616" unicode="&#467;" /><glyph d="M112 1184C112 1193 105 1200 96 1200C87 1200 80 1193 80 1184V196C80 70 182 -32 308 -32C434 -32 536 70 536 196V1184C536 1193 529 1200 520 1200C511 1200 504 1193 504 1184V196C504 88 416 0 308 0C200 0 112 88 112 196ZM214 1289C208 1283 208 1273 214 1267C220 1261 230 1261 236 1267L319 1350H297L380 1267C386 1261 396 1261 402 1267C408 1273 408 1283 402 1289L319 1372C313 1379 303 1379 297 1372Z" glyph-name="Ucircumflex" horiz-adv-x="616" unicode="&#219;" /><glyph d="M112 1184C112 1193 105 1200 96 1200C87 1200 80 1193 80 1184V196C80 70 182 -32 308 -32C434 -32 536 70 536 196V1184C536 1193 529 1200 520 1200C511 1200 504 1193 504 1184V196C504 88 416 0 308 0C200 0 112 88 112 196ZM348 1298C358 1298 368 1306 368 1318C368 1328 358 1338 348 1338C336 1338 328 1328 328 1318C328 1306 336 1298 348 1298ZM268 1298C278 1298 288 1306 288 1318C288 1328 278 1338 268 1338C256 1338 248 1328 248 1318C248 1306 256 1298 268 1298Z" glyph-name="Udieresis" horiz-adv-x="616" unicode="&#220;" /><glyph d="M112 1184C112 1193 105 1200 96 1200C87 1200 80 1193 80 1184V196C80 70 182 -32 308 -32C434 -32 536 70 536 196V1184C536 1193 529 1200 520 1200C511 1200 504 1193 504 1184V196C504 88 416 0 308 0C200 0 112 88 112 196ZM289 1267C295 1261 305 1261 311 1267C317 1273 317 1283 311 1289L187 1411C181 1417 171 1417 165 1411C159 1405 159 1395 165 1389Z" glyph-name="Ugrave" horiz-adv-x="616" unicode="&#217;" /><glyph d="M112 1184C112 1193 105 1200 96 1200C87 1200 80 1193 80 1184V196C80 70 182 -32 308 -32C434 -32 536 70 536 196V1184C536 1193 529 1200 520 1200C511 1200 504 1193 504 1184V196C504 88 416 0 308 0C200 0 112 88 112 196ZM373 1389C379 1395 379 1405 373 1411C367 1417 357 1417 351 1411L227 1289C221 1283 221 1273 227 1267C233 1261 243 1261 249 1267ZM513 1389C519 1395 519 1405 513 1411C507 1417 497 1417 491 1411L367 1289C361 1283 361 1273 367 1267C373 1261 383 1261 389 1267Z" glyph-name="Uhungarumlaut" horiz-adv-x="616" unicode="&#368;" /><glyph d="M112 1184C112 1193 105 1200 96 1200C87 1200 80 1193 80 1184V196C80 70 182 -32 308 -32C434 -32 536 70 536 196V1184C536 1193 529 1200 520 1200C511 1200 504 1193 504 1184V196C504 88 416 0 308 0C200 0 112 88 112 196ZM395 1302C403 1302 411 1310 411 1318C411 1326 403 1334 395 1334H221C213 1334 205 1326 205 1318C205 1310 213 1302 221 1302Z" glyph-name="Umacron" horiz-adv-x="616" unicode="&#362;" /><glyph d="M112 1184C112 1193 105 1200 96 1200C87 1200 80 1193 80 1184V196C80 70 182 -32 308 -32C434 -32 536 70 536 196V1184C536 1193 529 1200 520 1200C511 1200 504 1193 504 1184V196C504 88 416 0 308 0C200 0 112 88 112 196ZM308 -224C344 -224 374 -194 374 -158C374 -150 366 -142 358 -142C350 -142 342 -150 342 -158C342 -178 328 -192 308 -192C288 -192 274 -178 274 -158C274 -138 288 -124 308 -124C322 -124 328 -114 322 -102L282 -6C280 2 270 6 262 2C254 0 250 -10 254 -18L286 -96C260 -104 242 -130 242 -158C242 -194 272 -224 308 -224Z" glyph-name="Uogonek" horiz-adv-x="616" unicode="&#370;" /><glyph d="M112 1184C112 1193 105 1200 96 1200C87 1200 80 1193 80 1184V196C80 70 182 -32 308 -32C434 -32 536 70 536 196V1184C536 1193 529 1200 520 1200C511 1200 504 1193 504 1184V196C504 88 416 0 308 0C200 0 112 88 112 196ZM308 1262C344 1262 374 1292 374 1328C374 1364 344 1394 308 1394C272 1394 242 1364 242 1328C242 1292 272 1262 308 1262ZM308 1362C326 1362 342 1346 342 1328C342 1310 326 1294 308 1294C290 1294 274 1310 274 1328C274 1346 290 1362 308 1362Z" glyph-name="Uring" horiz-adv-x="616" unicode="&#366;" /><glyph d="M112 1184C112 1193 105 1200 96 1200C87 1200 80 1193 80 1184V196C80 70 182 -32 308 -32C434 -32 536 70 536 196V1184C536 1193 529 1200 520 1200C511 1200 504 1193 504 1184V196C504 88 416 0 308 0C200 0 112 88 112 196ZM201 1315C207 1345 233 1369 266 1369C290 1369 311 1356 323 1336C329 1326 340 1319 352 1319C369 1319 383 1331 385 1347C387 1355 395 1361 404 1360C412 1358 418 1350 417 1341C411 1311 385 1287 352 1287C328 1287 307 1300 295 1320C289 1330 278 1337 266 1337C249 1337 235 1325 233 1309C231 1301 223 1295 214 1296C206 1298 200 1306 201 1315Z" glyph-name="Utilde" horiz-adv-x="616" unicode="&#360;" /><glyph d="M112 1187C110 1195 102 1201 93 1200C85 1198 79 1190 80 1181L292 -19C296 -37 320 -37 324 -19L536 1181C537 1190 531 1198 523 1200C514 1201 506 1195 504 1187L292 -13H324Z" glyph-name="V" horiz-adv-x="620" unicode="V" /><glyph d="M112 1187C110 1195 102 1201 93 1200C85 1198 79 1190 80 1181L292 -19C296 -37 320 -37 324 -19L536 1181C537 1190 531 1198 523 1200C514 1201 506 1195 504 1187L292 -13H324ZM203 1315C209 1345 235 1369 268 1369C292 1369 313 1356 325 1336C331 1326 342 1319 354 1319C371 1319 385 1331 387 1347C389 1355 397 1361 406 1360C414 1358 420 1350 419 1341C413 1311 387 1287 354 1287C330 1287 309 1300 297 1320C291 1330 280 1337 268 1337C251 1337 237 1325 235 1309C233 1301 225 1295 216 1296C208 1298 202 1306 203 1315Z" glyph-name="Vtilde" horiz-adv-x="620" unicode="&#7804;" /><glyph d="M606 1183C606 1192 599 1200 591 1200C582 1200 574 1193 574 1185L514 1L545 5L353 658C348 674 328 674 323 658L131 5L162 1L102 1185C102 1193 94 1200 85 1200C77 1200 70 1192 70 1183L130 -1C131 -20 156 -23 161 -5L353 648H323L515 -5C520 -23 545 -20 546 -1Z" glyph-name="W" horiz-adv-x="676" unicode="W" /><glyph d="M606 1183C606 1192 599 1200 591 1200C582 1200 574 1193 574 1185L514 1L545 5L353 658C348 674 328 674 323 658L131 5L162 1L102 1185C102 1193 94 1200 85 1200C77 1200 70 1192 70 1183L130 -1C131 -20 156 -23 161 -5L353 648H323L515 -5C520 -23 545 -20 546 -1ZM473 1389C479 1395 479 1405 473 1411C467 1417 457 1417 451 1411L327 1289C321 1283 321 1273 327 1267C333 1261 343 1261 349 1267Z" glyph-name="Wacute" horiz-adv-x="676" unicode="&#7810;" /><glyph d="M606 1183C606 1192 599 1200 591 1200C582 1200 574 1193 574 1185L514 1L545 5L353 658C348 674 328 674 323 658L131 5L162 1L102 1185C102 1193 94 1200 85 1200C77 1200 70 1192 70 1183L130 -1C131 -20 156 -23 161 -5L353 648H323L515 -5C520 -23 545 -20 546 -1ZM244 1289C238 1283 238 1273 244 1267C250 1261 260 1261 266 1267L349 1350H327L410 1267C416 1261 426 1261 432 1267C438 1273 438 1283 432 1289L349 1372C343 1379 333 1379 327 1372Z" glyph-name="Wcircumflex" horiz-adv-x="676" unicode="&#372;" /><glyph d="M606 1183C606 1192 599 1200 591 1200C582 1200 574 1193 574 1185L514 1L545 5L353 658C348 674 328 674 323 658L131 5L162 1L102 1185C102 1193 94 1200 85 1200C77 1200 70 1192 70 1183L130 -1C131 -20 156 -23 161 -5L353 648H323L515 -5C520 -23 545 -20 546 -1ZM378 1298C388 1298 398 1306 398 1318C398 1328 388 1338 378 1338C366 1338 358 1328 358 1318C358 1306 366 1298 378 1298ZM298 1298C308 1298 318 1306 318 1318C318 1328 308 1338 298 1338C286 1338 278 1328 278 1318C278 1306 286 1298 298 1298Z" glyph-name="Wdieresis" horiz-adv-x="676" unicode="&#7812;" /><glyph d="M606 1183C606 1192 599 1200 591 1200C582 1200 574 1193 574 1185L514 1L545 5L353 658C348 674 328 674 323 658L131 5L162 1L102 1185C102 1193 94 1200 85 1200C77 1200 70 1192 70 1183L130 -1C131 -20 156 -23 161 -5L353 648H323L515 -5C520 -23 545 -20 546 -1ZM338 1298C348 1298 358 1306 358 1318C358 1328 348 1338 338 1338C326 1338 318 1328 318 1318C318 1306 326 1298 338 1298Z" glyph-name="Wdotaccent" horiz-adv-x="676" unicode="&#7814;" /><glyph d="M606 1183C606 1192 599 1200 591 1200C582 1200 574 1193 574 1185L514 1L545 5L353 658C348 674 328 674 323 658L131 5L162 1L102 1185C102 1193 94 1200 85 1200C77 1200 70 1192 70 1183L130 -1C131 -20 156 -23 161 -5L353 648H323L515 -5C520 -23 545 -20 546 -1ZM329 1267C335 1261 345 1261 351 1267C357 1273 357 1283 351 1289L227 1411C221 1417 211 1417 205 1411C199 1405 199 1395 205 1389Z" glyph-name="Wgrave" horiz-adv-x="676" unicode="&#7808;" /><glyph d="M81 21C78 13 82 4 91 1C99 -2 108 2 111 11L535 1179C538 1187 534 1196 525 1199C517 1202 508 1198 505 1189ZM505 11C508 2 517 -2 525 1C534 4 538 13 535 21L111 1189C108 1198 99 1202 91 1199C82 1196 78 1187 81 1179Z" glyph-name="X" horiz-adv-x="618" unicode="X" /><glyph d="M81 21C78 13 82 4 91 1C99 -2 108 2 111 11L535 1179C538 1187 534 1196 525 1199C517 1202 508 1198 505 1189ZM505 11C508 2 517 -2 525 1C534 4 538 13 535 21L111 1189C108 1198 99 1202 91 1199C82 1196 78 1187 81 1179ZM350 1298C360 1298 370 1306 370 1318C370 1328 360 1338 350 1338C338 1338 330 1328 330 1318C330 1306 338 1298 350 1298ZM270 1298C280 1298 290 1306 290 1318C290 1328 280 1338 270 1338C258 1338 250 1328 250 1318C250 1306 258 1298 270 1298Z" glyph-name="Xdieresis" horiz-adv-x="618" unicode="&#7820;" /><glyph d="M81 21C78 13 82 4 91 1C99 -2 108 2 111 11L535 1179C538 1187 534 1196 525 1199C517 1202 508 1198 505 1189ZM505 11C508 2 517 -2 525 1C534 4 538 13 535 21L111 1189C108 1198 99 1202 91 1199C82 1196 78 1187 81 1179ZM310 1298C320 1298 330 1306 330 1318C330 1328 320 1338 310 1338C298 1338 290 1328 290 1318C290 1306 298 1298 310 1298Z" glyph-name="Xdotaccent" horiz-adv-x="618" unicode="&#7818;" /><glyph d="M522 1180 310 280C305 263 282 263 278 280L70 1180C68 1189 74 1198 82 1200C91 1202 100 1196 102 1188L310 288H278L490 1188C492 1196 501 1202 510 1200C518 1198 524 1189 522 1180ZM278 0V284C278 293 285 300 294 300C303 300 310 293 310 284V0C310 -9 303 -16 294 -16C285 -16 278 -9 278 0Z" glyph-name="Y" horiz-adv-x="596" unicode="Y" /><glyph d="M522 1180 310 280C305 263 282 263 278 280L70 1180C68 1189 74 1198 82 1200C91 1202 100 1196 102 1188L310 288H278L490 1188C492 1196 501 1202 510 1200C518 1198 524 1189 522 1180ZM278 0V284C278 293 285 300 294 300C303 300 310 293 310 284V0C310 -9 303 -16 294 -16C285 -16 278 -9 278 0ZM441 1389C447 1395 447 1405 441 1411C435 1417 425 1417 419 1411L295 1289C289 1283 289 1273 295 1267C301 1261 311 1261 317 1267Z" glyph-name="Yacute" horiz-adv-x="596" unicode="&#221;" /><glyph d="M522 1180 310 280C305 263 282 263 278 280L70 1180C68 1189 74 1198 82 1200C91 1202 100 1196 102 1188L310 288H278L490 1188C492 1196 501 1202 510 1200C518 1198 524 1189 522 1180ZM278 0V284C278 293 285 300 294 300C303 300 310 293 310 284V0C310 -9 303 -16 294 -16C285 -16 278 -9 278 0ZM204 1289C198 1283 198 1273 204 1267C210 1261 220 1261 226 1267L309 1350H287L370 1267C376 1261 386 1261 392 1267C398 1273 398 1283 392 1289L309 1372C303 1379 293 1379 287 1372Z" glyph-name="Ycircumflex" horiz-adv-x="596" unicode="&#374;" /><glyph d="M522 1180 310 280C305 263 282 263 278 280L70 1180C68 1189 74 1198 82 1200C91 1202 100 1196 102 1188L310 288H278L490 1188C492 1196 501 1202 510 1200C518 1198 524 1189 522 1180ZM278 0V284C278 293 285 300 294 300C303 300 310 293 310 284V0C310 -9 303 -16 294 -16C285 -16 278 -9 278 0ZM338 1298C348 1298 358 1306 358 1318C358 1328 348 1338 338 1338C326 1338 318 1328 318 1318C318 1306 326 1298 338 1298ZM258 1298C268 1298 278 1306 278 1318C278 1328 268 1338 258 1338C246 1338 238 1328 238 1318C238 1306 246 1298 258 1298Z" glyph-name="Ydieresis" horiz-adv-x="596" unicode="&#376;" /><glyph d="M522 1180 310 280C305 263 282 263 278 280L70 1180C68 1189 74 1198 82 1200C91 1202 100 1196 102 1188L310 288H278L490 1188C492 1196 501 1202 510 1200C518 1198 524 1189 522 1180ZM278 0V284C278 293 285 300 294 300C303 300 310 293 310 284V0C310 -9 303 -16 294 -16C285 -16 278 -9 278 0ZM298 1298C308 1298 318 1306 318 1318C318 1328 308 1338 298 1338C286 1338 278 1328 278 1318C278 1306 286 1298 298 1298Z" glyph-name="Ydotaccent" horiz-adv-x="596" unicode="&#7822;" /><glyph d="M522 1180 310 280C305 263 282 263 278 280L70 1180C68 1189 74 1198 82 1200C91 1202 100 1196 102 1188L310 288H278L490 1188C492 1196 501 1202 510 1200C518 1198 524 1189 522 1180ZM278 0V284C278 293 285 300 294 300C303 300 310 293 310 284V0C310 -9 303 -16 294 -16C285 -16 278 -9 278 0ZM289 1267C295 1261 305 1261 311 1267C317 1273 317 1283 311 1289L187 1411C181 1417 171 1417 165 1411C159 1405 159 1395 165 1389Z" glyph-name="Ygrave" horiz-adv-x="596" unicode="&#7922;" /><glyph d="M522 1180 310 280C305 263 282 263 278 280L70 1180C68 1189 74 1198 82 1200C91 1202 100 1196 102 1188L310 288H278L490 1188C492 1196 501 1202 510 1200C518 1198 524 1189 522 1180ZM278 0V284C278 293 285 300 294 300C303 300 310 293 310 284V0C310 -9 303 -16 294 -16C285 -16 278 -9 278 0ZM385 1302C393 1302 401 1310 401 1318C401 1326 393 1334 385 1334H211C203 1334 195 1326 195 1318C195 1310 203 1302 211 1302Z" glyph-name="Ymacron" horiz-adv-x="596" unicode="&#562;" /><glyph d="M522 1180 310 280C305 263 282 263 278 280L70 1180C68 1189 74 1198 82 1200C91 1202 100 1196 102 1188L310 288H278L490 1188C492 1196 501 1202 510 1200C518 1198 524 1189 522 1180ZM278 0V284C278 293 285 300 294 300C303 300 310 293 310 284V0C310 -9 303 -16 294 -16C285 -16 278 -9 278 0ZM191 1315C197 1345 223 1369 256 1369C280 1369 301 1356 313 1336C319 1326 330 1319 342 1319C359 1319 373 1331 375 1347C377 1355 385 1361 394 1360C402 1358 408 1350 407 1341C401 1311 375 1287 342 1287C318 1287 297 1300 285 1320C279 1330 268 1337 256 1337C239 1337 225 1325 223 1309C221 1301 213 1295 204 1296C196 1298 190 1306 191 1315Z" glyph-name="Ytilde" horiz-adv-x="596" unicode="&#7928;" /><glyph d="M96 1200C87 1200 80 1193 80 1184C80 1175 87 1168 96 1168H520L505 1189L81 21C77 10 84 0 96 0H520C529 0 536 7 536 16C536 25 529 32 520 32H96L111 11L535 1179C539 1190 532 1200 520 1200Z" glyph-name="Z" horiz-adv-x="616" unicode="Z" /><glyph d="M96 1200C87 1200 80 1193 80 1184C80 1175 87 1168 96 1168H520L505 1189L81 21C77 10 84 0 96 0H520C529 0 536 7 536 16C536 25 529 32 520 32H96L111 11L535 1179C539 1190 532 1200 520 1200ZM443 1389C449 1395 449 1405 443 1411C437 1417 427 1417 421 1411L297 1289C291 1283 291 1273 297 1267C303 1261 313 1261 319 1267Z" glyph-name="Zacute" horiz-adv-x="616" unicode="&#377;" /><glyph d="M96 1200C87 1200 80 1193 80 1184C80 1175 87 1168 96 1168H520L505 1189L81 21C77 10 84 0 96 0H520C529 0 536 7 536 16C536 25 529 32 520 32H96L111 11L535 1179C539 1190 532 1200 520 1200ZM166 1268C160 1262 160 1252 166 1246C172 1240 182 1240 188 1246L319 1379H297L428 1246C434 1240 444 1240 450 1246C456 1252 456 1262 450 1268L319 1401C313 1408 303 1408 297 1401Z" glyph-name="Zasciicircum" horiz-adv-x="616" unicode="&#7824;" /><glyph d="M96 1200C87 1200 80 1193 80 1184C80 1175 87 1168 96 1168H520L505 1189L81 21C77 10 84 0 96 0H520C529 0 536 7 536 16C536 25 529 32 520 32H96L111 11L535 1179C539 1190 532 1200 520 1200ZM402 1350C408 1356 408 1366 402 1372C396 1378 386 1378 380 1372L297 1289H319L236 1372C230 1378 220 1378 214 1372C208 1366 208 1356 214 1350L297 1267C303 1260 313 1260 319 1267Z" glyph-name="Zcaron" horiz-adv-x="616" unicode="&#381;" /><glyph d="M96 1200C87 1200 80 1193 80 1184C80 1175 87 1168 96 1168H520L505 1189L81 21C77 10 84 0 96 0H520C529 0 536 7 536 16C536 25 529 32 520 32H96L111 11L535 1179C539 1190 532 1200 520 1200ZM308 1298C318 1298 328 1306 328 1318C328 1328 318 1338 308 1338C296 1338 288 1328 288 1318C288 1306 296 1298 308 1298Z" glyph-name="Zdotaccent" horiz-adv-x="616" unicode="&#379;" /><glyph d="M514 32C514 27 519 22 524 22C529 22 534 27 534 32V640C534 763 435 862 312 862C189 862 90 763 90 640V212C90 89 189 -10 312 -10C435 -10 534 91 534 186C534 191 529 196 524 196C519 196 514 191 514 186C514 99 423 10 312 10C201 10 110 101 110 212V640C110 751 201 842 312 842C423 842 514 751 514 640Z" glyph-name="a" horiz-adv-x="620" unicode="a" /><glyph d="M508 32C508 23 515 16 524 16C533 16 540 23 540 32V324C540 450 438 552 312 552C186 552 84 450 84 324V212C84 86 186 -16 312 -16C439 -16 540 88 540 186C540 195 533 202 524 202C515 202 508 195 508 186C508 102 419 16 312 16C204 16 116 104 116 212V324C116 432 204 520 312 520C420 520 508 432 508 324ZM84 640C84 631 91 624 100 624C109 624 116 631 116 640C116 748 204 836 312 836C421 836 508 746 508 614V324C508 315 515 308 524 308C533 308 540 315 540 324V614C540 768 437 868 312 868C186 868 84 766 84 640Z" glyph-name="a.alt" horiz-adv-x="620" /><glyph d="M514 32C514 27 519 22 524 22C529 22 534 27 534 32V640C534 763 435 862 312 862C189 862 90 763 90 640V212C90 89 189 -10 312 -10C435 -10 534 91 534 186C534 191 529 196 524 196C519 196 514 191 514 186C514 99 423 10 312 10C201 10 110 101 110 212V640C110 751 201 842 312 842C423 842 514 751 514 640ZM447 1095C453 1101 453 1111 447 1117C441 1123 431 1123 425 1117L301 995C295 989 295 979 301 973C307 967 317 967 323 973Z" glyph-name="aacute" horiz-adv-x="620" unicode="&#225;" /><glyph d="M514 32C514 27 519 22 524 22C529 22 534 27 534 32V640C534 763 435 862 312 862C189 862 90 763 90 640V212C90 89 189 -10 312 -10C435 -10 534 91 534 186C534 191 529 196 524 196C519 196 514 191 514 186C514 99 423 10 312 10C201 10 110 101 110 212V640C110 751 201 842 312 842C423 842 514 751 514 640ZM312 968C346 968 376 996 378 1032V1034C378 1042 370 1050 362 1050C354 1050 346 1042 346 1034C346 1016 330 1000 312 1000C294 1000 278 1016 278 1034C278 1042 270 1050 262 1050C254 1050 246 1042 246 1034C246 998 276 968 312 968Z" glyph-name="abreve" horiz-adv-x="620" unicode="&#259;" /><glyph d="M514 32C514 27 519 22 524 22C529 22 534 27 534 32V640C534 763 435 862 312 862C189 862 90 763 90 640V212C90 89 189 -10 312 -10C435 -10 534 91 534 186C534 191 529 196 524 196C519 196 514 191 514 186C514 99 423 10 312 10C201 10 110 101 110 212V640C110 751 201 842 312 842C423 842 514 751 514 640ZM406 1056C412 1062 412 1072 406 1078C400 1084 390 1084 384 1078L301 995H323L240 1078C234 1084 224 1084 218 1078C212 1072 212 1062 218 1056L301 973C307 966 317 966 323 973Z" glyph-name="acaron" horiz-adv-x="620" unicode="&#462;" /><glyph d="M514 32C514 27 519 22 524 22C529 22 534 27 534 32V640C534 763 435 862 312 862C189 862 90 763 90 640V212C90 89 189 -10 312 -10C435 -10 534 91 534 186C534 191 529 196 524 196C519 196 514 191 514 186C514 99 423 10 312 10C201 10 110 101 110 212V640C110 751 201 842 312 842C423 842 514 751 514 640ZM218 995C212 989 212 979 218 973C224 967 234 967 240 973L323 1056H301L384 973C390 967 400 967 406 973C412 979 412 989 406 995L323 1078C317 1085 307 1085 301 1078Z" glyph-name="acircumflex" horiz-adv-x="620" unicode="&#226;" /><glyph d="M233 1389C239 1395 239 1405 233 1411C227 1417 217 1417 211 1411L87 1289C81 1283 81 1273 87 1267C93 1261 103 1261 109 1267Z" glyph-name="acute" horiz-adv-x="318" unicode="&#180;" /><glyph d="M514 32C514 27 519 22 524 22C529 22 534 27 534 32V640C534 763 435 862 312 862C189 862 90 763 90 640V212C90 89 189 -10 312 -10C435 -10 534 91 534 186C534 191 529 196 524 196C519 196 514 191 514 186C514 99 423 10 312 10C201 10 110 101 110 212V640C110 751 201 842 312 842C423 842 514 751 514 640ZM352 1004C362 1004 372 1012 372 1024C372 1034 362 1044 352 1044C340 1044 332 1034 332 1024C332 1012 340 1004 352 1004ZM272 1004C282 1004 292 1012 292 1024C292 1034 282 1044 272 1044C260 1044 252 1034 252 1024C252 1012 260 1004 272 1004Z" glyph-name="adieresis" horiz-adv-x="620" unicode="&#228;" /><glyph d="M514 32C514 27 519 22 524 22C529 22 534 27 534 32V640C534 763 435 862 312 862C189 862 90 763 90 640V212C90 89 189 -10 312 -10C435 -10 534 91 534 186C534 191 529 196 524 196C519 196 514 191 514 186C514 99 423 10 312 10C201 10 110 101 110 212V640C110 751 201 842 312 842C423 842 514 751 514 640ZM312 1004C322 1004 332 1012 332 1024C332 1034 322 1044 312 1044C300 1044 292 1034 292 1024C292 1012 300 1004 312 1004Z" glyph-name="adotaccent" horiz-adv-x="620" unicode="&#551;" /><glyph d="M504 32C504 23 511 16 520 16C529 16 536 23 536 32V640C536 766 434 868 308 868C182 868 80 766 80 640V212C80 86 182 -16 308 -16C435 -16 536 88 536 186C536 195 529 202 520 202C511 202 504 195 504 186C504 102 415 16 308 16C200 16 112 104 112 212V640C112 748 200 836 308 836C416 836 504 748 504 640ZM504 640C504 631 511 624 520 624C529 624 536 631 536 640C536 748 624 836 732 836C840 836 928 748 928 640V434L944 450H520C511 450 504 443 504 434C504 425 511 418 520 418H944C953 418 960 425 960 434V640C960 766 858 868 732 868C606 868 504 766 504 640ZM960 212C960 221 953 228 944 228C935 228 928 221 928 212C928 104 840 16 732 16C624 16 536 104 536 212C536 221 529 228 520 228C511 228 504 221 504 212C504 86 606 -16 732 -16C858 -16 960 86 960 212Z" glyph-name="ae" horiz-adv-x="1040" unicode="&#230;" /><glyph d="M514 32C514 27 519 22 524 22C529 22 534 27 534 32V640C534 763 435 862 312 862C189 862 90 763 90 640V212C90 89 189 -10 312 -10C435 -10 534 91 534 186C534 191 529 196 524 196C519 196 514 191 514 186C514 99 423 10 312 10C201 10 110 101 110 212V640C110 751 201 842 312 842C423 842 514 751 514 640ZM295 973C301 967 311 967 317 973C323 979 323 989 317 995L193 1117C187 1123 177 1123 171 1117C165 1111 165 1101 171 1095Z" glyph-name="agrave" horiz-adv-x="620" unicode="&#224;" /><glyph d="M514 32C514 27 519 22 524 22C529 22 534 27 534 32V640C534 763 435 862 312 862C189 862 90 763 90 640V212C90 89 189 -10 312 -10C435 -10 534 91 534 186C534 191 529 196 524 196C519 196 514 191 514 186C514 99 423 10 312 10C201 10 110 101 110 212V640C110 751 201 842 312 842C423 842 514 751 514 640ZM399 1008C407 1008 415 1016 415 1024C415 1032 407 1040 399 1040H225C217 1040 209 1032 209 1024C209 1016 217 1008 225 1008Z" glyph-name="amacron" horiz-adv-x="620" unicode="&#257;" /><glyph d="M460 822C460 813 467 806 476 806C485 806 492 813 492 822C492 923 409 1006 308 1006C207 1006 124 923 124 822V716C124 615 207 532 308 532C317 532 324 539 324 548C324 557 317 564 308 564C225 564 156 633 156 716V822C156 905 225 974 308 974C391 974 460 905 460 822ZM626 -16C635 -16 642 -9 642 0C642 9 635 16 626 16C576 16 536 58 536 108V336C536 462 434 564 308 564C182 564 80 462 80 336V196C80 70 182 -32 308 -32C429 -32 539 17 618 97C624 103 624 113 618 119C612 125 602 125 596 119C523 45 421 0 308 0C200 0 112 88 112 196V336C112 444 200 532 308 532C416 532 504 444 504 336V108C504 40 558 -16 626 -16Z" glyph-name="ampersand" horiz-adv-x="722" unicode="&amp;" /><glyph d="M514 32C514 27 519 22 524 22C529 22 534 27 534 32V640C534 763 435 862 312 862C189 862 90 763 90 640V212C90 89 189 -10 312 -10C435 -10 534 91 534 186C534 191 529 196 524 196C519 196 514 191 514 186C514 99 423 10 312 10C201 10 110 101 110 212V640C110 751 201 842 312 842C423 842 514 751 514 640ZM564 -182C600 -182 630 -152 630 -116C630 -108 622 -100 614 -100C606 -100 598 -108 598 -116C598 -136 584 -150 564 -150C544 -150 530 -136 530 -116C530 -96 544 -82 564 -82C578 -82 584 -72 578 -60L538 36C536 44 526 48 518 44C510 42 506 32 510 24L542 -54C516 -62 498 -88 498 -116C498 -152 528 -182 564 -182Z" glyph-name="aogonek" horiz-adv-x="620" unicode="&#261;" /><glyph d="M858 1088H503C486 1088 471 1103 471 1120C471 1137 486 1152 503 1152H858C875 1152 890 1137 890 1120C890 1103 875 1088 858 1088ZM196 2 898 0C957 0 998 41 998 100V1100C998 1159 957 1200 898 1200H463C386 1200 363 1090 292 1059L167 1004C96 973 96 910 96 833V102C96 43 137 2 196 2ZM850 150C837 138 817 138 804 150L547 407L290 150C277 138 257 138 244 150C232 163 232 183 244 196L501 453L244 710C232 723 232 743 244 756C257 768 277 768 290 756L547 499L804 756C817 768 837 768 850 756C862 743 862 723 850 710L593 453L850 196C862 183 862 163 850 150ZM285 1090 160 1035C144 1028 124 1035 118 1051C111 1067 118 1087 134 1093L259 1148C275 1155 295 1148 301 1132C308 1116 301 1096 285 1090Z" glyph-name="apple" horiz-adv-x="1024" unicode="&#63743;" /><glyph d="M530 532C536 538 536 548 530 554C524 560 514 560 508 554C456 503 371 502 318 554C254 619 149 620 84 554C78 548 78 538 84 532C90 526 100 526 106 532C159 584 244 583 296 532C361 466 466 467 530 532ZM530 292C536 298 536 308 530 314C524 320 514 320 508 314C456 263 371 262 318 314C254 379 149 380 84 314C78 308 78 298 84 292C90 286 100 286 106 292C159 344 244 343 296 292C361 226 466 227 530 292Z" glyph-name="approxequal" horiz-adv-x="615" unicode="&#8776;" /><glyph d="M514 32C514 27 519 22 524 22C529 22 534 27 534 32V640C534 763 435 862 312 862C189 862 90 763 90 640V212C90 89 189 -10 312 -10C435 -10 534 91 534 186C534 191 529 196 524 196C519 196 514 191 514 186C514 99 423 10 312 10C201 10 110 101 110 212V640C110 751 201 842 312 842C423 842 514 751 514 640ZM312 968C348 968 378 998 378 1034C378 1070 348 1100 312 1100C276 1100 246 1070 246 1034C246 998 276 968 312 968ZM312 1068C330 1068 346 1052 346 1034C346 1016 330 1000 312 1000C294 1000 278 1016 278 1034C278 1052 294 1068 312 1068Z" glyph-name="aring" horiz-adv-x="620" unicode="&#229;" /><glyph d="M170 1228C164 1222 164 1212 170 1206C176 1200 186 1200 192 1206L323 1339H301L432 1206C438 1200 448 1200 454 1206C460 1212 460 1222 454 1228L323 1361C317 1368 307 1368 301 1361Z" glyph-name="asciicircum" horiz-adv-x="624" unicode="^" /><glyph d="M140 629C139 620 145 612 153 610C162 609 170 615 172 623C182 679 255 705 296 644C359 551 464 597 478 677C479 686 473 694 465 696C456 697 448 691 446 683C436 627 363 601 322 662C259 755 154 709 140 629Z" glyph-name="asciitilde" horiz-adv-x="616" unicode="~" /><glyph d="M198 1216C198 1225 191 1232 182 1232C173 1232 166 1225 166 1216V1016C166 1007 173 1000 182 1000C191 1000 198 1007 198 1016ZM103 1180C95 1184 85 1181 81 1174C77 1166 80 1156 87 1152L261 1052C269 1048 279 1051 283 1058C287 1066 284 1076 277 1080ZM277 1152C284 1156 287 1166 283 1174C279 1181 269 1184 261 1180L87 1080C80 1076 77 1066 81 1058C85 1051 95 1048 103 1052Z" glyph-name="asterisk" horiz-adv-x="366" unicode="*" /><glyph d="M463 454C463 463 456 470 447 470C438 470 431 463 431 454C431 387 375 331 308 331C241 331 185 387 185 454V596C185 663 241 719 308 719C375 719 431 663 431 596L432 335C432 306 455 283 484 283C513 283 536 306 536 335V844C536 970 434 1072 308 1072C182 1072 80 970 80 844V196C80 70 182 -32 308 -32C396 -32 466 18 505 92C509 99 506 109 498 113C491 117 481 114 477 106C444 44 384 0 308 0C200 0 112 88 112 196V844C112 952 200 1040 308 1040C416 1040 504 952 504 844V335C504 324 495 315 484 315C473 315 464 324 464 335L463 596C463 681 393 751 308 751C223 751 153 681 153 596V454C153 369 223 299 308 299C393 299 463 369 463 454Z" glyph-name="at" horiz-adv-x="616" unicode="@" /><glyph d="M514 32C514 27 519 22 524 22C529 22 534 27 534 32V640C534 763 435 862 312 862C189 862 90 763 90 640V212C90 89 189 -10 312 -10C435 -10 534 91 534 186C534 191 529 196 524 196C519 196 514 191 514 186C514 99 423 10 312 10C201 10 110 101 110 212V640C110 751 201 842 312 842C423 842 514 751 514 640ZM205 1021C211 1051 237 1075 270 1075C294 1075 315 1062 327 1042C333 1032 344 1025 356 1025C373 1025 387 1037 389 1053C391 1061 399 1067 408 1066C416 1064 422 1056 421 1047C415 1017 389 993 356 993C332 993 311 1006 299 1026C293 1036 282 1043 270 1043C253 1043 239 1031 237 1015C235 1007 227 1001 218 1002C210 1004 204 1012 205 1021Z" glyph-name="atilde" horiz-adv-x="620" unicode="&#227;" /><glyph d="M80 640C80 631 87 624 96 624C105 624 112 631 112 640C112 748 200 836 308 836C416 836 504 748 504 640V212C504 104 416 16 308 16C200 16 112 104 112 212V1200C112 1209 105 1216 96 1216C87 1216 80 1209 80 1200V212C80 86 182 -16 308 -16C434 -16 536 86 536 212V640C536 766 434 868 308 868C182 868 80 766 80 640Z" glyph-name="b" horiz-adv-x="616" unicode="b" /><glyph d="M310 -16C320 -16 326 -8 326 -2C326 0 326 0 326 2L114 1202C113 1210 106 1216 98 1216C88 1216 82 1208 82 1200V1198L294 -2C296 -10 302 -16 310 -16Z" glyph-name="backslash" horiz-adv-x="408" unicode="\" /><glyph d="M96 1296C88 1296 80 1288 80 1280V-80C80 -88 88 -96 96 -96C104 -96 112 -88 112 -80V1280C112 1288 104 1296 96 1296Z" glyph-name="bar" horiz-adv-x="192" unicode="|" /><glyph d="M80 640C80 631 87 624 96 624C105 624 112 631 112 640C112 748 200 836 308 836C416 836 504 748 504 640V212C504 104 416 16 308 16C200 16 112 104 112 212V1200C112 1209 105 1216 96 1216C87 1216 80 1209 80 1200V212C80 86 182 -16 308 -16C434 -16 536 86 536 212V640C536 766 434 868 308 868C182 868 80 766 80 640ZM308 1298C318 1298 328 1306 328 1318C328 1328 318 1338 308 1338C296 1338 288 1328 288 1318C288 1306 296 1298 308 1298Z" glyph-name="bdotaccent" horiz-adv-x="616" unicode="&#7683;" /><glyph d="M308 -32C316 -32 324 -24 324 -16C324 -8 316 0 308 0C258 0 218 40 218 90V546C218 592 192 632 156 652C192 674 218 714 218 758V1110C218 1160 258 1200 308 1200C316 1200 324 1208 324 1216C324 1224 316 1232 308 1232C240 1232 186 1178 186 1110V758C186 710 146 668 96 668C88 668 80 662 80 652C80 644 88 636 96 636C146 636 186 596 186 546V90C186 22 240 -32 308 -32Z" glyph-name="braceleft" horiz-adv-x="384" unicode="{" /><glyph d="M76 -32C144 -32 198 22 198 90V546C198 596 238 636 288 636C296 636 304 644 304 652C304 662 296 668 288 668C238 668 198 710 198 758V1110C198 1178 144 1232 76 1232C68 1232 60 1224 60 1216C60 1208 68 1200 76 1200C126 1200 166 1160 166 1110V758C166 714 190 674 228 652C190 632 166 592 166 546V90C166 40 126 0 76 0C68 0 60 -8 60 -16C60 -24 68 -32 76 -32Z" glyph-name="braceright" horiz-adv-x="384" unicode="}" /><glyph d="M308 1200C317 1200 324 1207 324 1216C324 1225 317 1232 308 1232H96C87 1232 80 1225 80 1216V-16C80 -25 87 -32 96 -32H308C317 -32 324 -25 324 -16C324 -7 317 0 308 0H96L112 -16V1216L96 1200Z" glyph-name="bracketleft" horiz-adv-x="384" unicode="[" /><glyph d="M76 0C67 0 60 -7 60 -16C60 -25 67 -32 76 -32H288C297 -32 304 -25 304 -16V1216C304 1225 297 1232 288 1232H76C67 1232 60 1225 60 1216C60 1207 67 1200 76 1200H288L272 1216V-16L288 0Z" glyph-name="bracketright" horiz-adv-x="384" unicode="]" /><glyph d="M146 1262C180 1262 210 1290 212 1326V1328C212 1336 204 1344 196 1344C188 1344 180 1336 180 1328C180 1310 164 1294 146 1294C128 1294 112 1310 112 1328C112 1336 104 1344 96 1344C88 1344 80 1336 80 1328C80 1292 110 1262 146 1262Z" glyph-name="breve" horiz-adv-x="292" unicode="&#728;" /><glyph d="M112 1280C112 1289 105 1296 96 1296C87 1296 80 1289 80 1280V698C80 689 87 682 96 682C105 682 112 689 112 698ZM80 -80C80 -89 87 -96 96 -96C105 -96 112 -89 112 -80V509C112 518 105 525 96 525C87 525 80 518 80 509Z" glyph-name="brokenbar" horiz-adv-x="192" unicode="&#166;" /><glyph d="M187 319C245 319 294 366 294 426C294 484 245 533 187 533C127 533 80 484 80 426C80 366 127 319 187 319Z" glyph-name="bullet" horiz-adv-x="374" unicode="&#8226;" /><glyph d="M536 212C536 221 529 228 520 228C511 228 504 221 504 212C504 104 416 16 308 16C200 16 112 104 112 212V640C112 748 200 836 308 836C416 836 504 748 504 640C504 631 511 624 520 624C529 624 536 631 536 640C536 766 434 868 308 868C182 868 80 766 80 640V212C80 86 182 -16 308 -16C434 -16 536 86 536 212Z" glyph-name="c" horiz-adv-x="616" unicode="c" /><glyph d="M536 212C536 221 529 228 520 228C511 228 504 221 504 212C504 104 416 16 308 16C200 16 112 104 112 212V640C112 748 200 836 308 836C416 836 504 748 504 640C504 631 511 624 520 624C529 624 536 631 536 640C536 766 434 868 308 868C182 868 80 766 80 640V212C80 86 182 -16 308 -16C434 -16 536 86 536 212ZM443 1095C449 1101 449 1111 443 1117C437 1123 427 1123 421 1117L297 995C291 989 291 979 297 973C303 967 313 967 319 973Z" glyph-name="cacute" horiz-adv-x="616" unicode="&#263;" /><glyph d="M406 1350C412 1356 412 1366 406 1372C400 1378 390 1378 384 1372L301 1289H323L240 1372C234 1378 224 1378 218 1372C212 1366 212 1356 218 1350L301 1267C307 1260 317 1260 323 1267Z" glyph-name="caron" horiz-adv-x="648" unicode="&#711;" /><glyph d="M536 212C536 221 529 228 520 228C511 228 504 221 504 212C504 104 416 16 308 16C200 16 112 104 112 212V640C112 748 200 836 308 836C416 836 504 748 504 640C504 631 511 624 520 624C529 624 536 631 536 640C536 766 434 868 308 868C182 868 80 766 80 640V212C80 86 182 -16 308 -16C434 -16 536 86 536 212ZM402 1056C408 1062 408 1072 402 1078C396 1084 386 1084 380 1078L297 995H319L236 1078C230 1084 220 1084 214 1078C208 1072 208 1062 214 1056L297 973C303 966 313 966 319 973Z" glyph-name="ccaron" horiz-adv-x="616" unicode="&#269;" /><glyph d="M536 212C536 221 529 228 520 228C511 228 504 221 504 212C504 104 416 16 308 16C200 16 112 104 112 212V640C112 748 200 836 308 836C416 836 504 748 504 640C504 631 511 624 520 624C529 624 536 631 536 640C536 766 434 868 308 868C182 868 80 766 80 640V212C80 86 182 -16 308 -16C434 -16 536 86 536 212ZM272 -224C308 -224 338 -194 338 -158C338 -130 320 -104 294 -96L326 -18C330 -10 326 0 318 2C310 6 300 2 298 -6L258 -102C252 -114 258 -124 272 -124C292 -124 306 -138 306 -158C306 -178 292 -192 272 -192C252 -192 238 -178 238 -158C238 -150 230 -142 222 -142C214 -142 206 -150 206 -158C206 -194 236 -224 272 -224Z" glyph-name="ccedilla" horiz-adv-x="616" unicode="&#231;" /><glyph d="M536 212C536 221 529 228 520 228C511 228 504 221 504 212C504 104 416 16 308 16C200 16 112 104 112 212V640C112 748 200 836 308 836C416 836 504 748 504 640C504 631 511 624 520 624C529 624 536 631 536 640C536 766 434 868 308 868C182 868 80 766 80 640V212C80 86 182 -16 308 -16C434 -16 536 86 536 212ZM214 995C208 989 208 979 214 973C220 967 230 967 236 973L319 1056H297L380 973C386 967 396 967 402 973C408 979 408 989 402 995L319 1078C313 1085 303 1085 297 1078Z" glyph-name="ccircumflex" horiz-adv-x="616" unicode="&#265;" /><glyph d="M536 212C536 221 529 228 520 228C511 228 504 221 504 212C504 104 416 16 308 16C200 16 112 104 112 212V640C112 748 200 836 308 836C416 836 504 748 504 640C504 631 511 624 520 624C529 624 536 631 536 640C536 766 434 868 308 868C182 868 80 766 80 640V212C80 86 182 -16 308 -16C434 -16 536 86 536 212ZM308 1004C318 1004 328 1012 328 1024C328 1034 318 1044 308 1044C296 1044 288 1034 288 1024C288 1012 296 1004 308 1004Z" glyph-name="cdotaccent" horiz-adv-x="616" unicode="&#267;" /><glyph d="M338 -204C374 -204 404 -174 404 -138C404 -110 386 -84 360 -76L392 2C396 10 392 20 384 22C376 26 366 22 364 14L324 -82C318 -94 324 -104 338 -104C358 -104 372 -118 372 -138C372 -158 358 -172 338 -172C318 -172 304 -158 304 -138C304 -130 296 -122 288 -122C280 -122 272 -130 272 -138C272 -174 302 -204 338 -204Z" glyph-name="cedilla" horiz-adv-x="1000" unicode="&#184;" /><glyph d="M536 212C536 221 529 228 520 228C511 228 504 221 504 212C504 104 416 16 308 16C200 16 112 104 112 212V640C112 748 200 836 308 836C416 836 504 748 504 640C504 631 511 624 520 624C529 624 536 631 536 640C536 766 434 868 308 868C182 868 80 766 80 640V212C80 86 182 -16 308 -16C434 -16 536 86 536 212ZM324 920C324 929 317 936 308 936C299 936 292 929 292 920V-80C292 -89 299 -96 308 -96C317 -96 324 -89 324 -80Z" glyph-name="cent" horiz-adv-x="616" unicode="&#162;" /><glyph d="M218 1289C212 1283 212 1273 218 1267C224 1261 234 1261 240 1267L323 1350H301L384 1267C390 1261 400 1261 406 1267C412 1273 412 1283 406 1289L323 1372C317 1379 307 1379 301 1372Z" glyph-name="circumflex" horiz-adv-x="612" unicode="&#710;" /><glyph d="M100 -4C113 -4 124 7 124 20C124 33 113 44 100 44C87 44 76 33 76 20C76 7 87 -4 100 -4ZM100 520C113 520 124 531 124 544C124 557 113 568 100 568C87 568 76 557 76 544C76 531 87 520 100 520Z" glyph-name="colon" horiz-adv-x="200" unicode=":" /><glyph d="M79 -71C85 -71 92 -67 94 -62L122 14C123 16 123 19 123 21C123 32 113 44 100 44C90 44 78 36 76 26C63 -53 62 -55 62 -55C61 -63 69 -71 79 -71Z" glyph-name="comma" horiz-adv-x="204" unicode="," /><glyph d="M416 852C416 844 424 836 432 836C440 836 448 844 448 852C448 926 384 990 310 990C234 990 170 926 170 852V354C170 278 234 214 310 214C384 214 448 278 448 354C448 362 440 370 432 370C424 370 416 362 416 354C416 294 368 246 310 246C250 246 202 294 202 354V852C202 910 250 958 310 958C368 958 416 910 416 852ZM308 -32C434 -32 536 70 536 196V1004C536 1130 434 1232 308 1232C182 1232 80 1130 80 1004V196C80 70 182 -32 308 -32ZM308 1200C416 1200 504 1112 504 1004V196C504 88 416 0 308 0C200 0 112 88 112 196V1004C112 1112 200 1200 308 1200Z" glyph-name="copyright" horiz-adv-x="616" unicode="&#169;" /><glyph d="M110 242C110 116 212 14 338 14C464 14 566 116 566 242V610C566 736 464 838 338 838C212 838 110 736 110 610ZM142 242V610C142 718 230 806 338 806C446 806 534 718 534 610V242C534 134 446 46 338 46C230 46 142 134 142 242ZM85 27C79 21 79 11 85 5C91 -1 101 -1 107 5L185 83C191 89 191 99 185 105C179 111 169 111 163 105ZM162 748C168 742 178 742 184 748C190 754 190 764 184 770L107 847C101 853 91 853 85 847C79 841 79 831 85 825ZM591 825C597 831 597 841 591 847C585 853 575 853 569 847L491 769C485 763 485 753 491 747C497 741 507 741 513 747ZM513 105C507 111 497 111 491 105C485 99 485 89 491 83L569 4C575 -2 585 -2 591 4C597 10 597 20 591 26Z" glyph-name="currency" horiz-adv-x="677" unicode="&#164;" /><glyph d="M536 640C536 766 434 868 308 868C182 868 80 766 80 640V212C80 86 182 -16 308 -16C434 -16 536 86 536 212V1200C536 1209 529 1216 520 1216C511 1216 504 1209 504 1200V212C504 104 416 16 308 16C200 16 112 104 112 212V640C112 748 200 836 308 836C416 836 504 748 504 640C504 631 511 624 520 624C529 624 536 631 536 640Z" glyph-name="d" horiz-adv-x="616" unicode="d" /><glyph d="M290 16C290 7 297 0 306 0C315 0 322 7 322 16V1184C322 1193 315 1200 306 1200C297 1200 290 1193 290 1184ZM96 990C87 990 80 983 80 974C80 965 87 958 96 958H516C525 958 532 965 532 974C532 983 525 990 516 990Z" glyph-name="dagger" horiz-adv-x="612" unicode="&#8224;" /><glyph d="M290 16C290 7 297 0 306 0C315 0 322 7 322 16V1184C322 1193 315 1200 306 1200C297 1200 290 1193 290 1184ZM96 990C87 990 80 983 80 974C80 965 87 958 96 958H516C525 958 532 965 532 974C532 983 525 990 516 990ZM96 735C87 735 80 728 80 719C80 710 87 703 96 703H516C525 703 532 710 532 719C532 728 525 735 516 735Z" glyph-name="daggerdbl" horiz-adv-x="612" unicode="&#8225;" /><glyph d="M536 640C536 766 434 868 308 868C182 868 80 766 80 640V212C80 86 182 -16 308 -16C434 -16 536 86 536 212V1200C536 1209 529 1216 520 1216C511 1216 504 1209 504 1200V212C504 104 416 16 308 16C200 16 112 104 112 212V640C112 748 200 836 308 836C416 836 504 748 504 640C504 631 511 624 520 624C529 624 536 631 536 640ZM402 1350C408 1356 408 1366 402 1372C396 1378 386 1378 380 1372L297 1289H319L236 1372C230 1378 220 1378 214 1372C208 1366 208 1356 214 1350L297 1267C303 1260 313 1260 319 1267Z" glyph-name="dcaron" horiz-adv-x="616" unicode="&#271;" /><glyph d="M536 640C536 766 434 868 308 868C182 868 80 766 80 640V212C80 86 182 -16 308 -16C434 -16 536 86 536 212V1200C536 1209 529 1216 520 1216C511 1216 504 1209 504 1200V212C504 104 416 16 308 16C200 16 112 104 112 212V640C112 748 200 836 308 836C416 836 504 748 504 640C504 631 511 624 520 624C529 624 536 631 536 640ZM268 -216C304 -216 334 -186 334 -150C334 -122 316 -96 290 -88L322 -10C326 -2 322 8 314 10C306 14 296 10 294 2L254 -94C248 -106 254 -116 268 -116C288 -116 302 -130 302 -150C302 -170 288 -184 268 -184C248 -184 234 -170 234 -150C234 -142 226 -134 218 -134C210 -134 202 -142 202 -150C202 -186 232 -216 268 -216Z" glyph-name="dcedilla" horiz-adv-x="616" unicode="&#7697;" /><glyph d="M536 640C536 766 434 868 308 868C182 868 80 766 80 640V212C80 86 182 -16 308 -16C434 -16 536 86 536 212V1200C536 1209 529 1216 520 1216C511 1216 504 1209 504 1200V212C504 104 416 16 308 16C200 16 112 104 112 212V640C112 748 200 836 308 836C416 836 504 748 504 640C504 631 511 624 520 624C529 624 536 631 536 640ZM603 932C611 932 619 940 619 948C619 956 611 964 603 964H429C421 964 413 956 413 948C413 940 421 932 429 932Z" glyph-name="dcroat" horiz-adv-x="619" unicode="&#273;" /><glyph d="M536 640C536 766 434 868 308 868C182 868 80 766 80 640V212C80 86 182 -16 308 -16C434 -16 536 86 536 212V1200C536 1209 529 1216 520 1216C511 1216 504 1209 504 1200V212C504 104 416 16 308 16C200 16 112 104 112 212V640C112 748 200 836 308 836C416 836 504 748 504 640C504 631 511 624 520 624C529 624 536 631 536 640ZM308 1298C318 1298 328 1306 328 1318C328 1328 318 1338 308 1338C296 1338 288 1328 288 1318C288 1306 296 1298 308 1298Z" glyph-name="ddotaccent" horiz-adv-x="616" unicode="&#7691;" /><glyph d="M220 942C294 942 358 1006 358 1082C358 1156 294 1220 220 1220C144 1220 80 1156 80 1082C80 1006 144 942 220 942ZM220 974C160 974 112 1022 112 1082C112 1140 160 1188 220 1188C278 1188 326 1140 326 1082C326 1022 278 974 220 974Z" glyph-name="degree" horiz-adv-x="438" unicode="&#176;" /><glyph d="M180 1298C190 1298 200 1306 200 1318C200 1328 190 1338 180 1338C168 1338 160 1328 160 1318C160 1306 168 1298 180 1298ZM100 1298C110 1298 120 1306 120 1318C120 1328 110 1338 100 1338C88 1338 80 1328 80 1318C80 1306 88 1298 100 1298Z" glyph-name="dieresis" horiz-adv-x="280" unicode="&#168;" /><glyph d="M306 282C318 282 330 294 330 306C330 318 318 330 306 330C294 330 282 318 282 306C282 294 294 282 306 282ZM306 522C318 522 330 534 330 546C330 558 318 570 306 570C294 570 282 558 282 546C282 534 294 522 306 522ZM520 410C529 410 536 417 536 426C536 435 529 442 520 442H96C87 442 80 435 80 426C80 417 87 410 96 410Z" glyph-name="divide" horiz-adv-x="616" unicode="&#247;" /><glyph d="M294 1139C294 1130 301 1123 310 1123C319 1123 326 1130 326 1139V1200C326 1209 319 1216 310 1216C301 1216 294 1209 294 1200ZM294 0C294 -9 301 -16 310 -16C319 -16 326 -9 326 0V61C326 70 319 77 310 77C301 77 294 70 294 61ZM507 924C507 915 514 908 523 908C532 908 539 915 539 924C539 1050 437 1152 311 1152C311 1152 308 1152 308 1152C182 1152 80 1050 80 924V889C80 763 182 661 308 661C308 661 310 661 310 661C418 661 506 573 506 465V286C506 178 418 90 310 90H308C200 90 112 178 112 286C112 295 105 302 96 302C87 302 80 295 80 286C80 160 182 58 308 58H310C436 58 538 160 538 286V465C538 591 436 693 310 693C310 693 308 693 308 693C200 693 112 781 112 889V924C112 1032 200 1120 308 1120C308 1120 311 1120 311 1120C419 1120 507 1032 507 924Z" glyph-name="dollar" horiz-adv-x="616" unicode="$" /><glyph d="M100 1298C110 1298 120 1306 120 1318C120 1328 110 1338 100 1338C88 1338 80 1328 80 1318C80 1306 88 1298 100 1298Z" glyph-name="dotaccent" horiz-adv-x="200" unicode="&#729;" /><glyph d="M96 852C88 852 80 844 80 836V16C80 8 88 0 96 0C104 0 112 8 112 16V836C112 844 104 852 96 852Z" glyph-name="dotlessi" horiz-adv-x="192" unicode="&#305;" /><glyph d="M96 852C88 852 80 844 80 836V16C80 8 88 0 96 0C104 0 112 8 112 16V836C112 844 104 852 96 852ZM96 968C130 968 160 996 162 1032V1034C162 1042 154 1050 146 1050C138 1050 130 1042 130 1034C130 1016 114 1000 96 1000C78 1000 62 1016 62 1034C62 1042 54 1050 46 1050C38 1050 30 1042 30 1034C30 998 60 968 96 968Z" glyph-name="dotlessibreve" horiz-adv-x="192" unicode="&#301;" /><glyph d="M96 852C88 852 80 844 80 836V16C80 8 88 0 96 0C104 0 112 8 112 16V836C112 844 104 852 96 852ZM190 1056C196 1062 196 1072 190 1078C184 1084 174 1084 168 1078L85 995H107L24 1078C18 1084 8 1084 2 1078C-4 1072 -4 1062 2 1056L85 973C91 966 101 966 107 973Z" glyph-name="dotlessicaron" horiz-adv-x="192" unicode="&#464;" /><glyph d="M23 -123C17 -129 17 -139 23 -145C29 -151 39 -151 45 -145C86 -104 112 -47 112 16V836C112 845 105 852 96 852C87 852 80 845 80 836V16C80 -39 58 -88 23 -123Z" glyph-name="dotlessj" horiz-adv-x="196" unicode="&#567;" /><glyph d="M536 212C536 221 529 228 520 228C511 228 504 221 504 212C504 104 416 16 308 16C200 16 112 104 112 212V640C112 748 200 836 308 836C416 836 504 748 504 640V434L520 450H96C87 450 80 443 80 434C80 425 87 418 96 418H520C529 418 536 425 536 434V640C536 766 434 868 308 868C182 868 80 766 80 640V212C80 86 182 -16 308 -16C434 -16 536 86 536 212Z" glyph-name="e" horiz-adv-x="616" unicode="e" /><glyph d="M536 212C536 221 529 228 520 228C511 228 504 221 504 212C504 104 416 16 308 16C200 16 112 104 112 212V640C112 748 200 836 308 836C416 836 504 748 504 640V434L520 450H96C87 450 80 443 80 434C80 425 87 418 96 418H520C529 418 536 425 536 434V640C536 766 434 868 308 868C182 868 80 766 80 640V212C80 86 182 -16 308 -16C434 -16 536 86 536 212ZM443 1095C449 1101 449 1111 443 1117C437 1123 427 1123 421 1117L297 995C291 989 291 979 297 973C303 967 313 967 319 973Z" glyph-name="eacute" horiz-adv-x="616" unicode="&#233;" /><glyph d="M536 212C536 221 529 228 520 228C511 228 504 221 504 212C504 104 416 16 308 16C200 16 112 104 112 212V640C112 748 200 836 308 836C416 836 504 748 504 640V434L520 450H96C87 450 80 443 80 434C80 425 87 418 96 418H520C529 418 536 425 536 434V640C536 766 434 868 308 868C182 868 80 766 80 640V212C80 86 182 -16 308 -16C434 -16 536 86 536 212ZM308 968C342 968 372 996 374 1032V1034C374 1042 366 1050 358 1050C350 1050 342 1042 342 1034C342 1016 326 1000 308 1000C290 1000 274 1016 274 1034C274 1042 266 1050 258 1050C250 1050 242 1042 242 1034C242 998 272 968 308 968Z" glyph-name="ebreve" horiz-adv-x="616" unicode="&#277;" /><glyph d="M536 212C536 221 529 228 520 228C511 228 504 221 504 212C504 104 416 16 308 16C200 16 112 104 112 212V640C112 748 200 836 308 836C416 836 504 748 504 640V434L520 450H96C87 450 80 443 80 434C80 425 87 418 96 418H520C529 418 536 425 536 434V640C536 766 434 868 308 868C182 868 80 766 80 640V212C80 86 182 -16 308 -16C434 -16 536 86 536 212ZM402 1056C408 1062 408 1072 402 1078C396 1084 386 1084 380 1078L297 995H319L236 1078C230 1084 220 1084 214 1078C208 1072 208 1062 214 1056L297 973C303 966 313 966 319 973Z" glyph-name="ecaron" horiz-adv-x="616" unicode="&#283;" /><glyph d="M536 212C536 221 529 228 520 228C511 228 504 221 504 212C504 104 416 16 308 16C200 16 112 104 112 212V640C112 748 200 836 308 836C416 836 504 748 504 640V434L520 450H96C87 450 80 443 80 434C80 425 87 418 96 418H520C529 418 536 425 536 434V640C536 766 434 868 308 868C182 868 80 766 80 640V212C80 86 182 -16 308 -16C434 -16 536 86 536 212ZM270 -224C306 -224 336 -194 336 -158C336 -130 318 -104 292 -96L324 -18C328 -10 324 0 316 2C308 6 298 2 296 -6L256 -102C250 -114 256 -124 270 -124C290 -124 304 -138 304 -158C304 -178 290 -192 270 -192C250 -192 236 -178 236 -158C236 -150 228 -142 220 -142C212 -142 204 -150 204 -158C204 -194 234 -224 270 -224Z" glyph-name="ecedilla" horiz-adv-x="616" unicode="&#553;" /><glyph d="M536 212C536 221 529 228 520 228C511 228 504 221 504 212C504 104 416 16 308 16C200 16 112 104 112 212V640C112 748 200 836 308 836C416 836 504 748 504 640V434L520 450H96C87 450 80 443 80 434C80 425 87 418 96 418H520C529 418 536 425 536 434V640C536 766 434 868 308 868C182 868 80 766 80 640V212C80 86 182 -16 308 -16C434 -16 536 86 536 212ZM214 995C208 989 208 979 214 973C220 967 230 967 236 973L319 1056H297L380 973C386 967 396 967 402 973C408 979 408 989 402 995L319 1078C313 1085 303 1085 297 1078Z" glyph-name="ecircumflex" horiz-adv-x="616" unicode="&#234;" /><glyph d="M536 212C536 221 529 228 520 228C511 228 504 221 504 212C504 104 416 16 308 16C200 16 112 104 112 212V640C112 748 200 836 308 836C416 836 504 748 504 640V434L520 450H96C87 450 80 443 80 434C80 425 87 418 96 418H520C529 418 536 425 536 434V640C536 766 434 868 308 868C182 868 80 766 80 640V212C80 86 182 -16 308 -16C434 -16 536 86 536 212ZM348 1004C358 1004 368 1012 368 1024C368 1034 358 1044 348 1044C336 1044 328 1034 328 1024C328 1012 336 1004 348 1004ZM268 1004C278 1004 288 1012 288 1024C288 1034 278 1044 268 1044C256 1044 248 1034 248 1024C248 1012 256 1004 268 1004Z" glyph-name="edieresis" horiz-adv-x="616" unicode="&#235;" /><glyph d="M536 212C536 221 529 228 520 228C511 228 504 221 504 212C504 104 416 16 308 16C200 16 112 104 112 212V640C112 748 200 836 308 836C416 836 504 748 504 640V434L520 450H96C87 450 80 443 80 434C80 425 87 418 96 418H520C529 418 536 425 536 434V640C536 766 434 868 308 868C182 868 80 766 80 640V212C80 86 182 -16 308 -16C434 -16 536 86 536 212ZM308 1004C318 1004 328 1012 328 1024C328 1034 318 1044 308 1044C296 1044 288 1034 288 1024C288 1012 296 1004 308 1004Z" glyph-name="edotaccent" horiz-adv-x="616" unicode="&#279;" /><glyph d="M536 212C536 221 529 228 520 228C511 228 504 221 504 212C504 104 416 16 308 16C200 16 112 104 112 212V640C112 748 200 836 308 836C416 836 504 748 504 640V434L520 450H96C87 450 80 443 80 434C80 425 87 418 96 418H520C529 418 536 425 536 434V640C536 766 434 868 308 868C182 868 80 766 80 640V212C80 86 182 -16 308 -16C434 -16 536 86 536 212ZM283 973C289 967 299 967 305 973C311 979 311 989 305 995L181 1117C175 1123 165 1123 159 1117C153 1111 153 1101 159 1095Z" glyph-name="egrave" horiz-adv-x="616" unicode="&#232;" /><glyph d="M329 705C321 704 314 696 315 687C316 679 324 672 333 673C447 685 538 782 538 900V1004C538 1130 435 1232 310 1232H308C182 1232 80 1130 80 1004V900C80 774 182 672 308 672H310C417 672 506 584 506 476V196C506 89 417 0 310 0H308C200 0 112 89 112 196V476C112 578 190 662 289 671C298 672 305 680 304 688C303 697 295 704 287 703C170 692 80 594 80 476V196C80 71 182 -32 308 -32H310C435 -32 538 71 538 196V476C538 602 435 704 310 704H308C200 704 112 792 112 900V1004C112 1112 200 1200 308 1200H310C417 1200 506 1112 506 1004V900C506 798 427 715 329 705Z" glyph-name="eight" horiz-adv-x="616" unicode="8" /><glyph d="M329 705C321 704 314 696 315 687C316 679 324 672 333 673C447 685 538 782 538 900V1004C538 1130 435 1232 310 1232H308C182 1232 80 1130 80 1004V900C80 774 182 672 308 672H310C417 672 506 584 506 476V196C506 89 417 0 310 0H308C200 0 112 89 112 196V476C112 578 190 662 289 671C298 672 305 680 304 688C303 697 295 704 287 703C170 692 80 594 80 476V196C80 71 182 -32 308 -32H310C435 -32 538 71 538 196V476C538 602 435 704 310 704H308C200 704 112 792 112 900V1004C112 1112 200 1200 308 1200H310C417 1200 506 1112 506 1004V900C506 798 427 715 329 705Z" glyph-name="eight.oldstyle" horiz-adv-x="616" unicode="&#63288;" /><glyph d="M193 186C202 187 209 195 208 203C207 212 199 219 191 218C128 212 80 159 80 96V-44C80 -111 135 -166 202 -166H203C270 -166 325 -111 325 -44V96C325 164 270 218 203 218H202C153 218 112 259 112 308V360C112 410 153 450 202 450H203C252 450 293 410 293 360V308C293 261 257 223 212 219C204 218 197 210 198 201C199 193 207 186 216 187C277 193 325 245 325 308V360C325 428 270 482 203 482H202C135 482 80 428 80 360V308C80 241 135 186 202 186H203C252 186 293 146 293 96V-44C293 -93 252 -134 203 -134H202C153 -134 112 -93 112 -44V96C112 143 148 182 193 186Z" glyph-name="eight.sub" horiz-adv-x="404" unicode="&#8328;" /><glyph d="M193 936C202 937 209 945 208 953C207 962 199 969 191 968C128 962 80 909 80 846V706C80 639 135 584 202 584H203C270 584 325 639 325 706V846C325 914 270 968 203 968H202C153 968 112 1009 112 1058V1110C112 1160 153 1200 202 1200H203C252 1200 293 1160 293 1110V1058C293 1011 257 973 212 969C204 968 197 960 198 951C199 943 207 936 216 937C277 943 325 995 325 1058V1110C325 1178 270 1232 203 1232H202C135 1232 80 1178 80 1110V1058C80 991 135 936 202 936H203C252 936 293 896 293 846V706C293 657 252 616 203 616H202C153 616 112 657 112 706V846C112 893 148 932 193 936Z" glyph-name="eight.sup" horiz-adv-x="404" unicode="&#8312;" /><glyph d="M100 -4C113 -4 124 7 124 20C124 33 113 44 100 44C87 44 76 33 76 20C76 7 87 -4 100 -4ZM200 -4C213 -4 224 7 224 20C224 33 213 44 200 44C187 44 176 33 176 20C176 7 187 -4 200 -4ZM300 -4C313 -4 324 7 324 20C324 33 313 44 300 44C287 44 276 33 276 20C276 7 287 -4 300 -4Z" glyph-name="ellipsis" horiz-adv-x="400" unicode="&#8230;" /><glyph d="M536 212C536 221 529 228 520 228C511 228 504 221 504 212C504 104 416 16 308 16C200 16 112 104 112 212V640C112 748 200 836 308 836C416 836 504 748 504 640V434L520 450H96C87 450 80 443 80 434C80 425 87 418 96 418H520C529 418 536 425 536 434V640C536 766 434 868 308 868C182 868 80 766 80 640V212C80 86 182 -16 308 -16C434 -16 536 86 536 212ZM395 1008C403 1008 411 1016 411 1024C411 1032 403 1040 395 1040H221C213 1040 205 1032 205 1024C205 1016 213 1008 221 1008Z" glyph-name="emacron" horiz-adv-x="616" unicode="&#275;" /><glyph d="M96 442C87 442 80 435 80 426C80 417 87 410 96 410H1904C1913 410 1920 417 1920 426C1920 435 1913 442 1904 442Z" glyph-name="emdash" horiz-adv-x="2000" unicode="&#8212;" /><glyph d="M96 442C87 442 80 435 80 426C80 417 87 410 96 410H904C913 410 920 417 920 426C920 435 913 442 904 442Z" glyph-name="endash" horiz-adv-x="1000" unicode="&#8211;" /><glyph d="M536 212C536 221 529 228 520 228C511 228 504 221 504 212C504 104 416 16 308 16C200 16 112 104 112 212V640C112 748 200 836 308 836C416 836 504 748 504 640V434L520 450H96C87 450 80 443 80 434C80 425 87 418 96 418H520C529 418 536 425 536 434V640C536 766 434 868 308 868C182 868 80 766 80 640V212C80 86 182 -16 308 -16C434 -16 536 86 536 212ZM348 -218C384 -218 414 -188 414 -152C414 -144 406 -136 398 -136C390 -136 382 -144 382 -152C382 -172 368 -186 348 -186C328 -186 314 -172 314 -152C314 -132 328 -118 348 -118C362 -118 368 -108 362 -96L322 0C320 8 310 12 302 8C294 6 290 -4 294 -12L326 -90C300 -98 282 -124 282 -152C282 -188 312 -218 348 -218Z" glyph-name="eogonek" horiz-adv-x="616" unicode="&#281;" /><glyph d="M520 286C528 286 536 294 536 302C536 310 528 318 520 318H96C88 318 80 310 80 302C80 294 88 286 96 286ZM520 526C528 526 536 534 536 542C536 550 528 558 520 558H96C88 558 80 550 80 542C80 534 88 526 96 526Z" glyph-name="equal" horiz-adv-x="616" unicode="=" /><glyph d="M414 1047C406 1043 404 1032 408 1025C412 1017 423 1015 430 1019L580 1106C588 1110 590 1121 586 1128C582 1136 571 1138 564 1134ZM504 656C504 647 511 640 520 640C529 640 536 647 536 656C536 782 434 884 308 884C182 884 80 782 80 656V196C80 70 182 -32 308 -32C434 -32 536 70 536 196V984C536 1110 434 1212 308 1212C299 1212 292 1205 292 1196C292 1187 299 1180 308 1180C416 1180 504 1092 504 984V196C504 88 416 0 308 0C200 0 112 88 112 196V656C112 764 200 852 308 852C416 852 504 764 504 656ZM504 656C504 647 511 640 520 640C529 640 536 647 536 656C536 782 434 884 308 884C182 884 80 782 80 656V196C80 70 182 -32 308 -32C434 -32 536 70 536 196V984C536 1110 434 1212 308 1212C299 1212 292 1205 292 1196C292 1187 299 1180 308 1180C416 1180 504 1092 504 984V196C504 88 416 0 308 0C200 0 112 88 112 196V656C112 764 200 852 308 852C416 852 504 764 504 656Z" glyph-name="eth" horiz-adv-x="616" unicode="&#240;" /><glyph d="M536 212C536 221 529 228 520 228C511 228 504 221 504 212C504 104 416 16 308 16C200 16 112 104 112 212V640C112 748 200 836 308 836C416 836 504 748 504 640V434L520 450H96C87 450 80 443 80 434C80 425 87 418 96 418H520C529 418 536 425 536 434V640C536 766 434 868 308 868C182 868 80 766 80 640V212C80 86 182 -16 308 -16C434 -16 536 86 536 212ZM201 1021C207 1051 233 1075 266 1075C290 1075 311 1062 323 1042C329 1032 340 1025 352 1025C369 1025 383 1037 385 1053C387 1061 395 1067 404 1066C412 1064 418 1056 417 1047C411 1017 385 993 352 993C328 993 307 1006 295 1026C289 1036 278 1043 266 1043C249 1043 235 1031 233 1015C231 1007 223 1001 214 1002C206 1004 200 1012 201 1021Z" glyph-name="etilde" horiz-adv-x="616" unicode="&#7869;" /><glyph d="M80 1200C72 1200 64 1192 64 1184V210C64 202 72 194 80 194C88 194 96 202 96 210V1184C96 1192 88 1200 80 1200ZM80 -4C93 -4 104 7 104 20C104 33 93 44 80 44C67 44 56 33 56 20C56 7 67 -4 80 -4Z" glyph-name="exclam" horiz-adv-x="160" unicode="!" /><glyph d="M80 0C88 0 96 8 96 16V990C96 998 88 1006 80 1006C72 1006 64 998 64 990V16C64 8 72 0 80 0ZM80 1157C93 1157 104 1167 104 1180C104 1193 93 1204 80 1204C67 1204 56 1193 56 1180C56 1167 67 1157 80 1157Z" glyph-name="exclamdown" horiz-adv-x="160" unicode="&#161;" /><glyph d="M308 548C299 548 292 541 292 532C292 523 299 516 308 516C415 516 504 428 504 320V16C504 -91 415 -180 308 -180C200 -180 112 -91 112 16C112 25 105 32 96 32C87 32 80 25 80 16C80 -109 182 -212 308 -212C433 -212 536 -109 536 16V320C536 446 433 548 308 548ZM96 852C87 852 80 845 80 836C80 827 87 820 96 820H520L507 845L295 541C290 534 292 524 299 519C306 514 316 516 321 523L533 827C543 841 537 852 520 852Z" glyph-name="ezh" horiz-adv-x="618" unicode="&#658;" /><glyph d="M308 1184C317 1184 324 1191 324 1200C324 1209 317 1216 308 1216C182 1216 80 1114 80 988V16C80 7 87 0 96 0C105 0 112 7 112 16V988C112 1096 200 1184 308 1184ZM236 653C245 653 252 660 252 669C252 678 245 685 236 685H106C97 685 90 678 90 669C90 660 97 653 106 653Z" glyph-name="f" horiz-adv-x="364" unicode="f" /><glyph d="M308 1184C317 1184 324 1191 324 1200C324 1209 317 1216 308 1216C182 1216 80 1114 80 988V16C80 7 87 0 96 0C105 0 112 7 112 16V988C112 1096 200 1184 308 1184ZM236 653C245 653 252 660 252 669C252 678 245 685 236 685H106C97 685 90 678 90 669C90 660 97 653 106 653ZM202 1298C212 1298 222 1306 222 1318C222 1328 212 1338 202 1338C190 1338 182 1328 182 1318C182 1306 190 1298 202 1298Z" glyph-name="fdotaccent" horiz-adv-x="364" unicode="&#7711;" /><glyph d="M112 196C112 205 105 212 96 212C87 212 80 205 80 196C80 71 182 -32 308 -32C433 -32 536 71 536 196V486C536 612 433 714 308 714H97L113 698L112 1184L96 1168H521C530 1168 537 1175 537 1184C537 1193 530 1200 521 1200H96C87 1200 80 1193 80 1184L81 698C81 689 88 682 97 682H308C415 682 504 594 504 486V196C504 89 415 0 308 0C200 0 112 89 112 196Z" glyph-name="five" horiz-adv-x="616" unicode="5" /><glyph d="M112 -22C112 -13 105 -6 96 -6C87 -6 80 -13 80 -22C80 -147 182 -250 308 -250C433 -250 536 -147 536 -22V208C536 334 433 436 308 436H97L113 420L112 836L96 820H521C530 820 537 827 537 836C537 845 530 852 521 852H96C87 852 80 845 80 836L81 420C81 411 88 404 97 404H308C415 404 504 316 504 208V-22C504 -129 415 -218 308 -218C200 -218 112 -129 112 -22Z" glyph-name="five.oldstyle" horiz-adv-x="616" unicode="&#63285;" /><glyph d="M112 -60C112 -51 105 -44 96 -44C87 -44 80 -51 80 -60C80 -127 135 -182 202 -182C269 -182 324 -127 324 -60V85C324 153 269 207 202 207H97L113 191L112 434L96 418H309C318 418 325 425 325 434C325 443 318 450 309 450H96C87 450 80 443 80 434L81 191C81 182 88 175 97 175H202C251 175 292 135 292 85V-60C292 -109 251 -150 202 -150C153 -150 112 -109 112 -60Z" glyph-name="five.sub" horiz-adv-x="405" unicode="&#8325;" /><glyph d="M112 690C112 699 105 706 96 706C87 706 80 699 80 690C80 623 135 568 202 568C269 568 324 623 324 690V835C324 903 269 957 202 957H97L113 941L112 1184L96 1168H309C318 1168 325 1175 325 1184C325 1193 318 1200 309 1200H96C87 1200 80 1193 80 1184L81 941C81 932 88 925 97 925H202C251 925 292 885 292 835V690C292 641 251 600 202 600C153 600 112 641 112 690Z" glyph-name="five.sup" horiz-adv-x="405" unicode="&#8309;" /><glyph d="M789 1216C785 1215 782 1212 780 1209L2 11C1 9 0 7 0 5C0 3 1 2 1 0C3 -9 9 -13 16 -13C17 -13 18 -13 19 -13C23 -12 26 -9 28 -6L806 1192C807 1194 808 1197 808 1200C808 1201 808 1202 808 1203C806 1211 800 1216 792 1216C791 1216 790 1216 789 1216ZM112 690C112 699 105 706 96 706C87 706 80 699 80 690C80 623 135 568 202 568C269 568 324 623 324 690V835C324 903 269 957 202 957H97L113 941L112 1184L96 1168H309C318 1168 325 1175 325 1184C325 1193 318 1200 309 1200H96C87 1200 80 1193 80 1184L81 941C81 932 88 925 97 925H202C251 925 292 885 292 835V690C292 641 251 600 202 600C153 600 112 641 112 690ZM597 272C606 273 613 281 612 289C611 298 603 305 595 304C532 298 484 245 484 182V42C484 -25 539 -80 606 -80H607C674 -80 729 -25 729 42V182C729 250 674 304 607 304H606C557 304 516 345 516 394V446C516 496 557 536 606 536H607C656 536 697 496 697 446V394C697 347 661 309 616 305C608 304 601 296 602 287C603 279 611 272 620 273C681 279 729 331 729 394V446C729 514 674 568 607 568H606C539 568 484 514 484 446V394C484 327 539 272 606 272H607C656 272 697 232 697 182V42C697 -7 656 -48 607 -48H606C557 -48 516 -7 516 42V182C516 229 552 268 597 272Z" glyph-name="fiveeighths" horiz-adv-x="808" unicode="&#8541;" /><glyph d="M789 1216C785 1215 782 1212 780 1209L2 11C1 9 0 7 0 5C0 3 1 2 1 0C3 -9 9 -13 16 -13C17 -13 18 -13 19 -13C23 -12 26 -9 28 -6L806 1192C807 1194 808 1197 808 1200C808 1201 808 1202 808 1203C806 1211 800 1216 792 1216C791 1216 790 1216 789 1216ZM112 690C112 699 105 706 96 706C87 706 80 699 80 690C80 623 135 568 202 568C269 568 324 623 324 690V835C324 903 269 957 202 957H97L113 941L112 1184L96 1168H309C318 1168 325 1175 325 1184C325 1193 318 1200 309 1200H96C87 1200 80 1193 80 1184L81 941C81 932 88 925 97 925H202C251 925 292 885 292 835V690C292 641 251 600 202 600C153 600 112 641 112 690ZM696 446C696 437 703 430 712 430C721 430 728 437 728 446C728 514 673 568 606 568C539 568 484 514 484 446V42C484 -25 539 -80 606 -80C673 -80 728 -25 728 42V202C728 270 673 324 606 324C539 324 484 270 484 202C484 193 491 186 500 186C509 186 516 193 516 202C516 252 557 292 606 292C655 292 696 252 696 202V42C696 -7 655 -48 606 -48C557 -48 516 -7 516 42V446C516 496 557 536 606 536C655 536 696 496 696 446Z" glyph-name="fivesixths" horiz-adv-x="808" unicode="&#8538;" /><glyph d="M308 1184C317 1184 324 1191 324 1200C324 1209 317 1216 308 1216C182 1216 80 1114 80 988V16C80 -43 31 -92 -28 -92C-37 -92 -44 -99 -44 -108C-44 -117 -37 -124 -28 -124C49 -124 112 -61 112 16V988C112 1096 200 1184 308 1184ZM236 653C245 653 252 660 252 669C252 678 245 685 236 685H96C87 685 80 678 80 669C80 660 87 653 96 653Z" glyph-name="florin" horiz-adv-x="364" unicode="&#402;" /><glyph d="M510 268C519 268 526 275 526 284C526 293 519 300 510 300H96L112 280L324 1180L308 1168H520L504 1184V16C504 7 511 0 520 0C529 0 536 7 536 16V1184C536 1193 529 1200 520 1200H308C301 1200 294 1194 292 1188L80 288C78 277 85 268 96 268Z" glyph-name="four" horiz-adv-x="616" unicode="4" /><glyph d="M515 0C524 0 531 7 531 16C531 25 524 32 515 32H96L111 12L323 832L308 820H520L504 836V-252C504 -261 511 -268 520 -268C529 -268 536 -261 536 -252V836C536 845 529 852 520 852H308C301 852 294 847 293 840L81 20C78 9 85 0 96 0Z" glyph-name="four.oldstyle" horiz-adv-x="616" unicode="&#63284;" /><glyph d="M306 -29C315 -29 322 -22 322 -13C322 -4 315 3 306 3H96L112 -17L218 433L202 421H308L292 437V-147C292 -156 299 -163 308 -163C317 -163 324 -156 324 -147V437C324 446 317 453 308 453H202C195 453 188 447 186 441L80 -9C78 -20 85 -29 96 -29Z" glyph-name="four.sub" horiz-adv-x="404" unicode="&#8324;" /><glyph d="M306 718C315 718 322 725 322 734C322 743 315 750 306 750H96L112 730L218 1180L202 1168H308L292 1184V600C292 591 299 584 308 584C317 584 324 591 324 600V1184C324 1193 317 1200 308 1200H202C195 1200 188 1194 186 1188L80 738C78 727 85 718 96 718Z" glyph-name="four.sup" horiz-adv-x="404" unicode="&#8308;" /><glyph d="M789 1216C785 1215 782 1212 780 1209L2 11C1 9 0 7 0 5C0 3 1 2 1 0C3 -9 9 -13 16 -13C17 -13 18 -13 19 -13C23 -12 26 -9 28 -6L806 1192C807 1194 808 1197 808 1200C808 1201 808 1202 808 1203C806 1211 800 1216 792 1216C791 1216 790 1216 789 1216ZM306 718C315 718 322 725 322 734C322 743 315 750 306 750H96L112 730L218 1180L202 1168H308L292 1184V600C292 591 299 584 308 584C317 584 324 591 324 600V1184C324 1193 317 1200 308 1200H202C195 1200 188 1194 186 1188L80 738C78 727 85 718 96 718ZM516 26C516 35 509 42 500 42C491 42 484 35 484 26C484 -41 539 -96 606 -96C673 -96 728 -41 728 26V171C728 239 673 293 606 293H501L517 277L516 520L500 504H713C722 504 729 511 729 520C729 529 722 536 713 536H500C491 536 484 529 484 520L485 277C485 268 492 261 501 261H606C655 261 696 221 696 171V26C696 -23 655 -64 606 -64C557 -64 516 -23 516 26Z" glyph-name="fourfifths" horiz-adv-x="808" unicode="&#8536;" /><glyph d="M789 1216C785 1215 782 1212 780 1209L2 11C1 9 0 7 0 5C0 3 1 2 1 0C3 -9 9 -13 16 -13C17 -13 18 -13 19 -13C23 -12 26 -9 28 -6L806 1192C807 1194 808 1197 808 1200C808 1201 808 1202 808 1203C806 1211 800 1216 792 1216C791 1216 790 1216 789 1216Z" glyph-name="fraction" horiz-adv-x="808" unicode="&#8260;" /><glyph d="M112 -252C112 -243 105 -236 96 -236C87 -236 80 -243 80 -252C80 -378 182 -480 308 -480C434 -480 536 -378 536 -252V640C536 766 434 868 308 868C182 868 80 766 80 640V212C80 86 182 -16 308 -16C434 -16 536 86 536 212C536 221 529 228 520 228C511 228 504 221 504 212C504 104 416 16 308 16C200 16 112 104 112 212V640C112 748 200 836 308 836C416 836 504 748 504 640V-252C504 -360 416 -448 308 -448C200 -448 112 -360 112 -252Z" glyph-name="g" horiz-adv-x="616" unicode="g" /><glyph d="M112 -252C112 -243 105 -236 96 -236C87 -236 80 -243 80 -252C80 -378 182 -480 308 -480C434 -480 536 -378 536 -252V640C536 766 434 868 308 868C182 868 80 766 80 640V212C80 86 182 -16 308 -16C434 -16 536 86 536 212C536 221 529 228 520 228C511 228 504 221 504 212C504 104 416 16 308 16C200 16 112 104 112 212V640C112 748 200 836 308 836C416 836 504 748 504 640V-252C504 -360 416 -448 308 -448C200 -448 112 -360 112 -252ZM443 1095C449 1101 449 1111 443 1117C437 1123 427 1123 421 1117L297 995C291 989 291 979 297 973C303 967 313 967 319 973Z" glyph-name="gacute" horiz-adv-x="616" unicode="&#501;" /><glyph d="M112 -252C112 -243 105 -236 96 -236C87 -236 80 -243 80 -252C80 -378 182 -480 308 -480C434 -480 536 -378 536 -252V640C536 766 434 868 308 868C182 868 80 766 80 640V212C80 86 182 -16 308 -16C434 -16 536 86 536 212C536 221 529 228 520 228C511 228 504 221 504 212C504 104 416 16 308 16C200 16 112 104 112 212V640C112 748 200 836 308 836C416 836 504 748 504 640V-252C504 -360 416 -448 308 -448C200 -448 112 -360 112 -252ZM308 968C342 968 372 996 374 1032V1034C374 1042 366 1050 358 1050C350 1050 342 1042 342 1034C342 1016 326 1000 308 1000C290 1000 274 1016 274 1034C274 1042 266 1050 258 1050C250 1050 242 1042 242 1034C242 998 272 968 308 968Z" glyph-name="gbreve" horiz-adv-x="616" unicode="&#287;" /><glyph d="M112 -252C112 -243 105 -236 96 -236C87 -236 80 -243 80 -252C80 -378 182 -480 308 -480C434 -480 536 -378 536 -252V640C536 766 434 868 308 868C182 868 80 766 80 640V212C80 86 182 -16 308 -16C434 -16 536 86 536 212C536 221 529 228 520 228C511 228 504 221 504 212C504 104 416 16 308 16C200 16 112 104 112 212V640C112 748 200 836 308 836C416 836 504 748 504 640V-252C504 -360 416 -448 308 -448C200 -448 112 -360 112 -252ZM402 1056C408 1062 408 1072 402 1078C396 1084 386 1084 380 1078L297 995H319L236 1078C230 1084 220 1084 214 1078C208 1072 208 1062 214 1056L297 973C303 966 313 966 319 973Z" glyph-name="gcaron" horiz-adv-x="616" unicode="&#487;" /><glyph d="M112 -252C112 -243 105 -236 96 -236C87 -236 80 -243 80 -252C80 -378 182 -480 308 -480C434 -480 536 -378 536 -252V640C536 766 434 868 308 868C182 868 80 766 80 640V212C80 86 182 -16 308 -16C434 -16 536 86 536 212C536 221 529 228 520 228C511 228 504 221 504 212C504 104 416 16 308 16C200 16 112 104 112 212V640C112 748 200 836 308 836C416 836 504 748 504 640V-252C504 -360 416 -448 308 -448C200 -448 112 -360 112 -252ZM518 -544C554 -544 584 -514 584 -478C584 -450 566 -424 540 -416L572 -338C576 -330 572 -320 564 -318C556 -314 546 -318 544 -326L504 -422C498 -434 504 -444 518 -444C538 -444 552 -458 552 -478C552 -498 538 -512 518 -512C498 -512 484 -498 484 -478C484 -470 476 -462 468 -462C460 -462 452 -470 452 -478C452 -514 482 -544 518 -544Z" glyph-name="gcedilla" horiz-adv-x="616" unicode="&#291;" /><glyph d="M112 -252C112 -243 105 -236 96 -236C87 -236 80 -243 80 -252C80 -378 182 -480 308 -480C434 -480 536 -378 536 -252V640C536 766 434 868 308 868C182 868 80 766 80 640V212C80 86 182 -16 308 -16C434 -16 536 86 536 212C536 221 529 228 520 228C511 228 504 221 504 212C504 104 416 16 308 16C200 16 112 104 112 212V640C112 748 200 836 308 836C416 836 504 748 504 640V-252C504 -360 416 -448 308 -448C200 -448 112 -360 112 -252ZM214 995C208 989 208 979 214 973C220 967 230 967 236 973L319 1056H297L380 973C386 967 396 967 402 973C408 979 408 989 402 995L319 1078C313 1085 303 1085 297 1078Z" glyph-name="gcircumflex" horiz-adv-x="616" unicode="&#285;" /><glyph d="M112 -252C112 -243 105 -236 96 -236C87 -236 80 -243 80 -252C80 -378 182 -480 308 -480C434 -480 536 -378 536 -252V640C536 766 434 868 308 868C182 868 80 766 80 640V212C80 86 182 -16 308 -16C434 -16 536 86 536 212C536 221 529 228 520 228C511 228 504 221 504 212C504 104 416 16 308 16C200 16 112 104 112 212V640C112 748 200 836 308 836C416 836 504 748 504 640V-252C504 -360 416 -448 308 -448C200 -448 112 -360 112 -252ZM308 1004C318 1004 328 1012 328 1024C328 1034 318 1044 308 1044C296 1044 288 1034 288 1024C288 1012 296 1004 308 1004Z" glyph-name="gdotaccent" horiz-adv-x="616" unicode="&#289;" /><glyph d="M368 548C359 548 352 541 352 532C352 523 359 516 368 516C475 516 564 428 564 320V16C564 -91 475 -180 368 -180C260 -180 172 -91 172 16C172 25 165 32 156 32C147 32 140 25 140 16C140 -109 242 -212 368 -212C493 -212 596 -109 596 16V320C596 446 493 548 368 548ZM156 852C147 852 140 845 140 836C140 827 147 820 156 820H580L567 845L355 541C350 534 352 524 359 519C366 514 376 516 381 523L593 827C603 841 597 852 580 852ZM308 1216C182 1216 80 1114 80 988V16C80 8 88 0 96 0C104 0 112 8 112 16V988C112 1096 200 1184 308 1184C316 1184 324 1192 324 1200C324 1208 316 1216 308 1216Z" glyph-name="germandbls" horiz-adv-x="676" unicode="&#223;" /><glyph d="M112 -252C112 -243 105 -236 96 -236C87 -236 80 -243 80 -252C80 -378 182 -480 308 -480C434 -480 536 -378 536 -252V640C536 766 434 868 308 868C182 868 80 766 80 640V212C80 86 182 -16 308 -16C434 -16 536 86 536 212C536 221 529 228 520 228C511 228 504 221 504 212C504 104 416 16 308 16C200 16 112 104 112 212V640C112 748 200 836 308 836C416 836 504 748 504 640V-252C504 -360 416 -448 308 -448C200 -448 112 -360 112 -252ZM395 1008C403 1008 411 1016 411 1024C411 1032 403 1040 395 1040H221C213 1040 205 1032 205 1024C205 1016 213 1008 221 1008Z" glyph-name="gmacron" horiz-adv-x="616" unicode="&#7713;" /><glyph d="M209 1267C215 1261 225 1261 231 1267C237 1273 237 1283 231 1289L107 1411C101 1417 91 1417 85 1411C79 1405 79 1395 85 1389Z" glyph-name="grave" horiz-adv-x="318" unicode="`" /><glyph d="M111 859C105 865 95 865 89 859C83 853 83 843 89 837L513 415V437L87 13C81 7 81 -3 87 -9C93 -15 103 -15 109 -9L535 415C542 421 542 431 535 437Z" glyph-name="greater" horiz-adv-x="616" unicode="&gt;" /><glyph d="M106 778C99 784 89 783 84 776C78 769 79 759 86 754L507 414V438L86 96C79 91 78 81 84 74C89 67 99 66 106 72L527 414C536 420 536 432 527 438ZM520 -16C529 -16 536 -9 536 0C536 9 529 16 520 16H100C91 16 84 9 84 0C84 -9 91 -16 100 -16Z" glyph-name="greaterequal" horiz-adv-x="616" unicode="&#8805;" /><glyph d="M197 285C203 279 213 279 219 285C225 291 225 301 219 307L85 439V417L219 549C225 555 225 565 219 571C213 577 203 577 197 571L63 439C56 433 56 423 63 417ZM337 285C343 279 353 279 359 285C365 291 365 301 359 307L225 439V417L359 549C365 555 365 565 359 571C353 577 343 577 337 571L203 439C196 433 196 423 203 417Z" glyph-name="guillemotleft" horiz-adv-x="424" unicode="&#171;" /><glyph d="M87 571C81 577 71 577 65 571C59 565 59 555 65 549L199 417V439L65 307C59 301 59 291 65 285C71 279 81 279 87 285L221 417C228 423 228 433 221 439ZM227 571C221 577 211 577 205 571C199 565 199 555 205 549L339 417V439L205 307C199 301 199 291 205 285C211 279 221 279 227 285L361 417C368 423 368 433 361 439Z" glyph-name="guillemotright" horiz-adv-x="424" unicode="&#187;" /><glyph d="M197 285C203 279 213 279 219 285C225 291 225 301 219 307L85 439V417L219 549C225 555 225 565 219 571C213 577 203 577 197 571L63 439C56 433 56 423 63 417Z" glyph-name="guilsinglleft" horiz-adv-x="284" unicode="&#8249;" /><glyph d="M87 571C81 577 71 577 65 571C59 565 59 555 65 549L199 417V439L65 307C59 301 59 291 65 285C71 279 81 279 87 285L221 417C228 423 228 433 221 439Z" glyph-name="guilsinglright" horiz-adv-x="284" unicode="&#8250;" /><glyph d="M504 16C504 7 511 0 520 0C529 0 536 7 536 16V640C536 766 434 868 308 868C193 868 98 783 82 672C81 664 87 655 96 654C104 653 113 659 114 668C128 763 209 836 308 836C416 836 504 748 504 640ZM112 1200C112 1209 105 1216 96 1216C87 1216 80 1209 80 1200V16C80 7 87 0 96 0C105 0 112 7 112 16Z" glyph-name="h" horiz-adv-x="616" unicode="h" /><glyph d="M504 16C504 7 511 0 520 0C529 0 536 7 536 16V640C536 766 434 868 308 868C193 868 98 783 82 672C81 664 87 655 96 654C104 653 113 659 114 668C128 763 209 836 308 836C416 836 504 748 504 640ZM112 1200C112 1209 105 1216 96 1216C87 1216 80 1209 80 1200V16C80 7 87 0 96 0C105 0 112 7 112 16ZM190 932C198 932 206 940 206 948C206 956 198 964 190 964H16C8 964 0 956 0 948C0 940 8 932 16 932Z" glyph-name="hbar" horiz-adv-x="616" unicode="&#295;" /><glyph d="M504 16C504 7 511 0 520 0C529 0 536 7 536 16V640C536 766 434 868 308 868C193 868 98 783 82 672C81 664 87 655 96 654C104 653 113 659 114 668C128 763 209 836 308 836C416 836 504 748 504 640ZM112 1200C112 1209 105 1216 96 1216C87 1216 80 1209 80 1200V16C80 7 87 0 96 0C105 0 112 7 112 16ZM402 1350C408 1356 408 1366 402 1372C396 1378 386 1378 380 1372L297 1289H319L236 1372C230 1378 220 1378 214 1372C208 1366 208 1356 214 1350L297 1267C303 1260 313 1260 319 1267Z" glyph-name="hcaron" horiz-adv-x="616" unicode="&#543;" /><glyph d="M504 16C504 7 511 0 520 0C529 0 536 7 536 16V640C536 766 434 868 308 868C193 868 98 783 82 672C81 664 87 655 96 654C104 653 113 659 114 668C128 763 209 836 308 836C416 836 504 748 504 640ZM112 1200C112 1209 105 1216 96 1216C87 1216 80 1209 80 1200V16C80 7 87 0 96 0C105 0 112 7 112 16ZM476 -204C512 -204 542 -174 542 -138C542 -110 524 -84 498 -76L530 2C534 10 530 20 522 22C514 26 504 22 502 14L462 -82C456 -94 462 -104 476 -104C496 -104 510 -118 510 -138C510 -158 496 -172 476 -172C456 -172 442 -158 442 -138C442 -130 434 -122 426 -122C418 -122 410 -130 410 -138C410 -174 440 -204 476 -204Z" glyph-name="hcedilla" horiz-adv-x="616" unicode="&#7721;" /><glyph d="M504 16C504 7 511 0 520 0C529 0 536 7 536 16V640C536 766 434 868 308 868C193 868 98 783 82 672C81 664 87 655 96 654C104 653 113 659 114 668C128 763 209 836 308 836C416 836 504 748 504 640ZM112 1200C112 1209 105 1216 96 1216C87 1216 80 1209 80 1200V16C80 7 87 0 96 0C105 0 112 7 112 16ZM214 1289C208 1283 208 1273 214 1267C220 1261 230 1261 236 1267L319 1350H297L380 1267C386 1261 396 1261 402 1267C408 1273 408 1283 402 1289L319 1372C313 1379 303 1379 297 1372Z" glyph-name="hcircumflex" horiz-adv-x="616" unicode="&#293;" /><glyph d="M504 16C504 7 511 0 520 0C529 0 536 7 536 16V640C536 766 434 868 308 868C193 868 98 783 82 672C81 664 87 655 96 654C104 653 113 659 114 668C128 763 209 836 308 836C416 836 504 748 504 640ZM112 1200C112 1209 105 1216 96 1216C87 1216 80 1209 80 1200V16C80 7 87 0 96 0C105 0 112 7 112 16ZM348 1004C358 1004 368 1012 368 1024C368 1034 358 1044 348 1044C336 1044 328 1034 328 1024C328 1012 336 1004 348 1004ZM268 1004C278 1004 288 1012 288 1024C288 1034 278 1044 268 1044C256 1044 248 1034 248 1024C248 1012 256 1004 268 1004Z" glyph-name="hdieresis" horiz-adv-x="616" unicode="&#7719;" /><glyph d="M504 16C504 7 511 0 520 0C529 0 536 7 536 16V640C536 766 434 868 308 868C193 868 98 783 82 672C81 664 87 655 96 654C104 653 113 659 114 668C128 763 209 836 308 836C416 836 504 748 504 640ZM112 1200C112 1209 105 1216 96 1216C87 1216 80 1209 80 1200V16C80 7 87 0 96 0C105 0 112 7 112 16ZM308 1298C318 1298 328 1306 328 1318C328 1328 318 1338 308 1338C296 1338 288 1328 288 1318C288 1306 296 1298 308 1298Z" glyph-name="hdotaccent" horiz-adv-x="616" unicode="&#7715;" /><glyph d="M233 1389C239 1395 239 1405 233 1411C227 1417 217 1417 211 1411L87 1289C81 1283 81 1273 87 1267C93 1261 103 1261 109 1267ZM373 1389C379 1395 379 1405 373 1411C367 1417 357 1417 351 1411L227 1289C221 1283 221 1273 227 1267C233 1261 243 1261 249 1267Z" glyph-name="hungarumlaut" horiz-adv-x="318" unicode="&#733;" /><glyph d="M308 410C316 410 324 418 324 426C324 436 316 442 308 442H96C88 442 80 436 80 426C80 418 88 410 96 410Z" glyph-name="hyphen" horiz-adv-x="404" unicode="-" /><glyph d="M96 852C88 852 80 844 80 836V16C80 8 88 0 96 0C104 0 112 8 112 16V836C112 844 104 852 96 852ZM96 1014C106 1014 116 1022 116 1034C116 1044 106 1054 96 1054C84 1054 76 1044 76 1034C76 1022 84 1014 96 1014Z" glyph-name="i" horiz-adv-x="192" unicode="i" /><glyph d="M96 852C88 852 80 844 80 836V16C80 8 88 0 96 0C104 0 112 8 112 16V836C112 844 104 852 96 852ZM231 1095C237 1101 237 1111 231 1117C225 1123 215 1123 209 1117L85 995C79 989 79 979 85 973C91 967 101 967 107 973Z" glyph-name="iacute" horiz-adv-x="192" unicode="&#237;" /><glyph d="M96 852C88 852 80 844 80 836V16C80 8 88 0 96 0C104 0 112 8 112 16V836C112 844 104 852 96 852ZM2 995C-4 989 -4 979 2 973C8 967 18 967 24 973L107 1056H85L168 973C174 967 184 967 190 973C196 979 196 989 190 995L107 1078C101 1085 91 1085 85 1078Z" glyph-name="icircumflex" horiz-adv-x="192" unicode="&#238;" /><glyph d="M96 852C88 852 80 844 80 836V16C80 8 88 0 96 0C104 0 112 8 112 16V836C112 844 104 852 96 852ZM136 1004C146 1004 156 1012 156 1024C156 1034 146 1044 136 1044C124 1044 116 1034 116 1024C116 1012 124 1004 136 1004ZM56 1004C66 1004 76 1012 76 1024C76 1034 66 1044 56 1044C44 1044 36 1034 36 1024C36 1012 44 1004 56 1004Z" glyph-name="idieresis" horiz-adv-x="192" unicode="&#239;" /><glyph d="M96 852C88 852 80 844 80 836V16C80 8 88 0 96 0C104 0 112 8 112 16V836C112 844 104 852 96 852ZM79 973C85 967 95 967 101 973C107 979 107 989 101 995L-23 1117C-29 1123 -39 1123 -45 1117C-51 1111 -51 1101 -45 1095Z" glyph-name="igrave" horiz-adv-x="192" unicode="&#236;" /><glyph d="M296 1014C306 1014 316 1022 316 1034C316 1044 306 1054 296 1054C284 1054 276 1044 276 1034C276 1022 284 1014 296 1014ZM223 -123C217 -129 217 -139 223 -145C229 -151 239 -151 245 -145C286 -104 312 -47 312 16V836C312 845 305 852 296 852C287 852 280 845 280 836V16C280 -39 258 -88 223 -123ZM96 852C88 852 80 844 80 836V16C80 8 88 0 96 0C104 0 112 8 112 16V836C112 844 104 852 96 852ZM96 1014C106 1014 116 1022 116 1034C116 1044 106 1054 96 1054C84 1054 76 1044 76 1034C76 1022 84 1014 96 1014Z" glyph-name="ij" horiz-adv-x="396" unicode="&#307;" /><glyph d="M96 852C88 852 80 844 80 836V16C80 8 88 0 96 0C104 0 112 8 112 16V836C112 844 104 852 96 852ZM183 1008C191 1008 199 1016 199 1024C199 1032 191 1040 183 1040H9C1 1040 -7 1032 -7 1024C-7 1016 1 1008 9 1008Z" glyph-name="imacron" horiz-adv-x="192" unicode="&#299;" /><glyph d="M612 567C606 560 607 550 614 545C621 539 631 540 636 547C673 592 727 617 786 617H840C947 617 1036 528 1036 421C1036 313 947 225 840 225H816C707 225 609 295 590 423C569 568 457 649 332 649H308C182 649 80 546 80 421C80 295 182 193 308 193H362C434 193 499 227 539 278C545 285 544 295 537 300C530 306 520 305 515 298C479 255 424 225 362 225H308C200 225 112 313 112 421C112 528 200 617 308 617H332C441 617 539 546 558 419C579 273 691 193 816 193H840C965 193 1068 295 1068 421C1068 546 965 649 840 649H786C717 649 655 620 612 567Z" glyph-name="infinity" horiz-adv-x="1248" unicode="&#8734;" /><glyph d="M308 1184C317 1184 324 1191 324 1200C324 1209 317 1216 308 1216C182 1216 80 1114 80 988V16C80 -43 31 -92 -28 -92C-37 -92 -44 -99 -44 -108C-44 -117 -37 -124 -28 -124C49 -124 112 -61 112 16V988C112 1096 200 1184 308 1184Z" glyph-name="integral" horiz-adv-x="364" unicode="&#8747;" /><glyph d="M96 852C88 852 80 844 80 836V16C80 8 88 0 96 0C104 0 112 8 112 16V836C112 844 104 852 96 852ZM96 1014C106 1014 116 1022 116 1034C116 1044 106 1054 96 1054C84 1054 76 1044 76 1034C76 1022 84 1014 96 1014ZM136 -204C172 -204 202 -174 202 -138C202 -130 194 -122 186 -122C178 -122 170 -130 170 -138C170 -158 156 -172 136 -172C116 -172 102 -158 102 -138C102 -118 116 -104 136 -104C150 -104 156 -94 150 -82L110 14C108 22 98 26 90 22C82 20 78 10 82 2L114 -76C88 -84 70 -110 70 -138C70 -174 100 -204 136 -204Z" glyph-name="iogonek" horiz-adv-x="192" unicode="&#303;" /><glyph d="M96 852C88 852 80 844 80 836V16C80 8 88 0 96 0C104 0 112 8 112 16V836C112 844 104 852 96 852ZM-11 1021C-5 1051 21 1075 54 1075C78 1075 99 1062 111 1042C117 1032 128 1025 140 1025C157 1025 171 1037 173 1053C175 1061 183 1067 192 1066C200 1064 206 1056 205 1047C199 1017 173 993 140 993C116 993 95 1006 83 1026C77 1036 66 1043 54 1043C37 1043 23 1031 21 1015C19 1007 11 1001 2 1002C-6 1004 -12 1012 -11 1021Z" glyph-name="itilde" horiz-adv-x="192" unicode="&#297;" /><glyph d="M96 1014C106 1014 116 1022 116 1034C116 1044 106 1054 96 1054C84 1054 76 1044 76 1034C76 1022 84 1014 96 1014ZM23 -123C17 -129 17 -139 23 -145C29 -151 39 -151 45 -145C86 -104 112 -47 112 16V836C112 845 105 852 96 852C87 852 80 845 80 836V16C80 -39 58 -88 23 -123Z" glyph-name="j" horiz-adv-x="196" unicode="j" /><glyph d="M96 852C88 852 80 844 80 836V16C80 8 88 0 96 0C104 0 112 8 112 16V836C112 844 104 852 96 852ZM2 995C-4 989 -4 979 2 973C8 967 18 967 24 973L107 1056H85L168 973C174 967 184 967 190 973C196 979 196 989 190 995L107 1078C101 1085 91 1085 85 1078Z" glyph-name="jcircumflex" horiz-adv-x="192" unicode="&#309;" /><glyph d="M112 1216C112 1225 105 1232 96 1232C87 1232 80 1225 80 1216V16C80 7 87 0 96 0C105 0 112 7 112 16ZM531 824C537 830 538 841 532 847C526 853 515 854 509 848L91 454C85 448 84 437 90 431C96 425 107 424 113 430ZM134 463C128 469 117 470 111 464C105 458 104 447 110 441L518 5C524 -1 535 -2 541 4C547 10 548 21 542 27Z" glyph-name="k" horiz-adv-x="616" unicode="k" /><glyph d="M112 1216C112 1225 105 1232 96 1232C87 1232 80 1225 80 1216V16C80 7 87 0 96 0C105 0 112 7 112 16ZM531 824C537 830 538 841 532 847C526 853 515 854 509 848L91 454C85 448 84 437 90 431C96 425 107 424 113 430ZM134 463C128 469 117 470 111 464C105 458 104 447 110 441L518 5C524 -1 535 -2 541 4C547 10 548 21 542 27ZM233 1389C239 1395 239 1405 233 1411C227 1417 217 1417 211 1411L87 1289C81 1283 81 1273 87 1267C93 1261 103 1261 109 1267Z" glyph-name="kacute" horiz-adv-x="616" unicode="&#7729;" /><glyph d="M112 1216C112 1225 105 1232 96 1232C87 1232 80 1225 80 1216V16C80 7 87 0 96 0C105 0 112 7 112 16ZM531 824C537 830 538 841 532 847C526 853 515 854 509 848L91 454C85 448 84 437 90 431C96 425 107 424 113 430ZM134 463C128 469 117 470 111 464C105 458 104 447 110 441L518 5C524 -1 535 -2 541 4C547 10 548 21 542 27ZM190 1350C196 1356 196 1366 190 1372C184 1378 174 1378 168 1372L85 1289H107L24 1372C18 1378 8 1378 2 1372C-4 1366 -4 1356 2 1350L85 1267C91 1260 101 1260 107 1267Z" glyph-name="kcaron" horiz-adv-x="616" unicode="&#489;" /><glyph d="M112 1216C112 1225 105 1232 96 1232C87 1232 80 1225 80 1216V16C80 7 87 0 96 0C105 0 112 7 112 16ZM531 824C537 830 538 841 532 847C526 853 515 854 509 848L91 454C85 448 84 437 90 431C96 425 107 424 113 430ZM134 463C128 469 117 470 111 464C105 458 104 447 110 441L518 5C524 -1 535 -2 541 4C547 10 548 21 542 27ZM480 -200C516 -200 546 -170 546 -134C546 -106 528 -80 502 -72L534 6C538 14 534 24 526 26C518 30 508 26 506 18L466 -78C460 -90 466 -100 480 -100C500 -100 514 -114 514 -134C514 -154 500 -168 480 -168C460 -168 446 -154 446 -134C446 -126 438 -118 430 -118C422 -118 414 -126 414 -134C414 -170 444 -200 480 -200Z" glyph-name="kcedilla" horiz-adv-x="616" unicode="&#311;" /><glyph d="M112 836C112 845 105 852 96 852C87 852 80 845 80 836V16C80 7 87 0 96 0C105 0 112 7 112 16ZM531 824C537 830 538 841 532 847C526 853 515 854 509 848L91 454C85 448 84 437 90 431C96 425 107 424 113 430ZM134 463C128 469 117 470 111 464C105 458 104 447 110 441L518 5C524 -1 535 -2 541 4C547 10 548 21 542 27Z" glyph-name="kgreenlandic" horiz-adv-x="616" unicode="&#312;" /><glyph d="M96 0C104 0 112 8 112 16V1216C112 1224 104 1232 96 1232C88 1232 80 1224 80 1216V16C80 8 88 0 96 0Z" glyph-name="l" horiz-adv-x="192" unicode="l" /><glyph d="M96 0C104 0 112 8 112 16V1216C112 1224 104 1232 96 1232C88 1232 80 1224 80 1216V16C80 8 88 0 96 0ZM229 1389C235 1395 235 1405 229 1411C223 1417 213 1417 207 1411L83 1289C77 1283 77 1273 83 1267C89 1261 99 1261 105 1267Z" glyph-name="lacute" horiz-adv-x="192" unicode="&#314;" /><glyph d="M96 0C104 0 112 8 112 16V1216C112 1224 104 1232 96 1232C88 1232 80 1224 80 1216V16C80 8 88 0 96 0ZM190 1350C196 1356 196 1366 190 1372C184 1378 174 1378 168 1372L85 1289H107L24 1372C18 1378 8 1378 2 1372C-4 1366 -4 1356 2 1350L85 1267C91 1260 101 1260 107 1267Z" glyph-name="lcaron" horiz-adv-x="192" unicode="&#318;" /><glyph d="M96 0C104 0 112 8 112 16V1216C112 1224 104 1232 96 1232C88 1232 80 1224 80 1216V16C80 8 88 0 96 0ZM56 -204C92 -204 122 -174 122 -138C122 -110 104 -84 78 -76L110 2C114 10 110 20 102 22C94 26 84 22 82 14L42 -82C36 -94 42 -104 56 -104C76 -104 90 -118 90 -138C90 -158 76 -172 56 -172C36 -172 22 -158 22 -138C22 -130 14 -122 6 -122C-2 -122 -10 -130 -10 -138C-10 -174 20 -204 56 -204Z" glyph-name="lcedilla" horiz-adv-x="192" unicode="&#316;" /><glyph d="M308 402C321 402 332 413 332 426C332 439 321 450 308 450C295 450 284 439 284 426C284 413 295 402 308 402ZM96 0C104 0 112 8 112 16V1216C112 1224 104 1232 96 1232C88 1232 80 1224 80 1216V16C80 8 88 0 96 0Z" glyph-name="ldot" horiz-adv-x="408" unicode="&#320;" /><glyph d="M507 -9C513 -15 523 -15 529 -9C535 -3 535 7 529 13L103 437V415L527 837C533 843 533 853 527 859C521 865 511 865 505 859L81 437C74 431 74 421 81 415Z" glyph-name="less" horiz-adv-x="616" unicode="&lt;" /><glyph d="M510 72C517 66 527 67 532 74C538 81 537 91 530 96L109 438V414L530 754C537 759 538 769 532 776C527 783 517 784 510 778L89 438C80 432 80 420 89 414ZM516 -16C525 -16 532 -9 532 0C532 9 525 16 516 16H96C87 16 80 9 80 0C80 -9 87 -16 96 -16Z" glyph-name="lessequal" horiz-adv-x="616" unicode="&#8804;" /><glyph d="M96 442C87 442 80 435 80 426C80 417 87 410 96 410H520L504 426V214C504 205 511 198 520 198C529 198 536 205 536 214V426C536 435 529 442 520 442Z" glyph-name="logicalnot" horiz-adv-x="616" unicode="&#172;" /><glyph d="M308 1216C182 1216 80 1114 80 988V16C80 8 88 0 96 0C104 0 112 8 112 16V988C112 1096 200 1184 308 1184C316 1184 324 1192 324 1200C324 1208 316 1216 308 1216Z" glyph-name="longs" horiz-adv-x="324" unicode="&#383;" /><glyph d="M179 884C186 888 189 899 185 906C181 912 170 915 163 911L13 824C6 820 3 809 7 803C11 796 22 793 29 797ZM96 0C104 0 112 8 112 16V1216C112 1224 104 1232 96 1232C88 1232 80 1224 80 1216V16C80 8 88 0 96 0Z" glyph-name="lslash" horiz-adv-x="191.7916" unicode="&#322;" /><glyph d="M112 820C112 829 105 836 96 836C87 836 80 829 80 820V16C80 7 87 0 96 0C105 0 112 7 112 16ZM369 736C366 728 372 719 380 717C388 714 397 720 399 728C414 781 462 820 520 820C589 820 645 764 645 695V16C645 7 652 0 661 0C670 0 677 7 677 16V695C677 782 607 852 520 852C448 852 386 803 369 736ZM86 736C83 728 89 719 97 717C105 714 114 720 116 728C131 781 179 820 237 820C306 820 363 764 363 695V16C363 7 370 0 379 0C388 0 395 7 395 16V695C395 782 324 852 237 852C165 852 103 803 86 736Z" glyph-name="m" horiz-adv-x="758" unicode="m" /><glyph d="M270 1302C278 1302 286 1310 286 1318C286 1326 278 1334 270 1334H96C88 1334 80 1326 80 1318C80 1310 88 1302 96 1302Z" glyph-name="macron" horiz-adv-x="366" unicode="&#175;" /><glyph d="M112 820C112 829 105 836 96 836C87 836 80 829 80 820V16C80 7 87 0 96 0C105 0 112 7 112 16ZM369 736C366 728 372 719 380 717C388 714 397 720 399 728C414 781 462 820 520 820C589 820 645 764 645 695V16C645 7 652 0 661 0C670 0 677 7 677 16V695C677 782 607 852 520 852C448 852 386 803 369 736ZM86 736C83 728 89 719 97 717C105 714 114 720 116 728C131 781 179 820 237 820C306 820 363 764 363 695V16C363 7 370 0 379 0C388 0 395 7 395 16V695C395 782 324 852 237 852C165 852 103 803 86 736ZM513 1095C519 1101 519 1111 513 1117C507 1123 497 1123 491 1117L367 995C361 989 361 979 367 973C373 967 383 967 389 973Z" glyph-name="macute" horiz-adv-x="758" unicode="&#7743;" /><glyph d="M112 820C112 829 105 836 96 836C87 836 80 829 80 820V16C80 7 87 0 96 0C105 0 112 7 112 16ZM369 736C366 728 372 719 380 717C388 714 397 720 399 728C414 781 462 820 520 820C589 820 645 764 645 695V16C645 7 652 0 661 0C670 0 677 7 677 16V695C677 782 607 852 520 852C448 852 386 803 369 736ZM86 736C83 728 89 719 97 717C105 714 114 720 116 728C131 781 179 820 237 820C306 820 363 764 363 695V16C363 7 370 0 379 0C388 0 395 7 395 16V695C395 782 324 852 237 852C165 852 103 803 86 736ZM380 1004C390 1004 400 1012 400 1024C400 1034 390 1044 380 1044C368 1044 360 1034 360 1024C360 1012 368 1004 380 1004Z" glyph-name="mdotaccent" horiz-adv-x="758" unicode="&#7745;" /><glyph d="M516 410C524 410 532 418 532 426C532 436 524 442 516 442H96C88 442 80 436 80 426C80 418 88 410 96 410Z" glyph-name="minus" horiz-adv-x="612" unicode="&#8722;" /><glyph d="M80 -314C80 -323 87 -330 96 -330C105 -330 112 -323 112 -314V836C112 845 105 852 96 852C87 852 80 845 80 836ZM536 836C536 845 529 852 520 852C511 852 504 845 504 836V212C504 104 416 16 308 16C218 16 143 76 119 158C117 166 108 171 99 168C91 166 86 157 89 148C117 54 204 -16 308 -16C434 -16 536 86 536 212Z" glyph-name="mu" horiz-adv-x="616" unicode="&#956;" /><glyph d="M106 203 531 627C537 633 537 643 531 649C525 655 515 655 509 649L84 225C78 219 78 209 84 203C90 197 100 197 106 203ZM85 627 510 203C516 197 526 197 532 203C538 209 538 219 532 225L107 649C101 655 91 655 85 649C79 643 79 633 85 627Z" glyph-name="multiply" horiz-adv-x="617" unicode="&#215;" /><glyph d="M112 836C112 845 105 852 96 852C87 852 80 845 80 836V16C80 7 87 0 96 0C105 0 112 7 112 16ZM504 16C504 7 511 0 520 0C529 0 536 7 536 16V640C536 766 434 868 308 868C193 868 98 783 82 672C81 664 87 655 96 654C104 653 113 659 114 668C128 763 209 836 308 836C416 836 504 748 504 640Z" glyph-name="n" horiz-adv-x="616" unicode="n" /><glyph d="M112 836C112 845 105 852 96 852C87 852 80 845 80 836V16C80 7 87 0 96 0C105 0 112 7 112 16ZM504 16C504 7 511 0 520 0C529 0 536 7 536 16V640C536 766 434 868 308 868C193 868 98 783 82 672C81 664 87 655 96 654C104 653 113 659 114 668C128 763 209 836 308 836C416 836 504 748 504 640ZM443 1095C449 1101 449 1111 443 1117C437 1123 427 1123 421 1117L297 995C291 989 291 979 297 973C303 967 313 967 319 973Z" glyph-name="nacute" horiz-adv-x="616" unicode="&#324;" /><glyph d="M112 836C112 845 105 852 96 852C87 852 80 845 80 836V16C80 7 87 0 96 0C105 0 112 7 112 16ZM504 16C504 7 511 0 520 0C529 0 536 7 536 16V640C536 766 434 868 308 868C193 868 98 783 82 672C81 664 87 655 96 654C104 653 113 659 114 668C128 763 209 836 308 836C416 836 504 748 504 640ZM110 931 145 1003C150 1013 147 1028 133 1034C121 1040 103 1031 99 1019L80 943C78 934 82 926 89 924C97 920 106 923 110 931Z" glyph-name="napostrophe" horiz-adv-x="616" unicode="&#329;" /><glyph d="M112 836C112 845 105 852 96 852C87 852 80 845 80 836V16C80 7 87 0 96 0C105 0 112 7 112 16ZM504 16C504 7 511 0 520 0C529 0 536 7 536 16V640C536 766 434 868 308 868C193 868 98 783 82 672C81 664 87 655 96 654C104 653 113 659 114 668C128 763 209 836 308 836C416 836 504 748 504 640ZM402 1056C408 1062 408 1072 402 1078C396 1084 386 1084 380 1078L297 995H319L236 1078C230 1084 220 1084 214 1078C208 1072 208 1062 214 1056L297 973C303 966 313 966 319 973Z" glyph-name="ncaron" horiz-adv-x="616" unicode="&#328;" /><glyph d="M112 836C112 845 105 852 96 852C87 852 80 845 80 836V16C80 7 87 0 96 0C105 0 112 7 112 16ZM504 16C504 7 511 0 520 0C529 0 536 7 536 16V640C536 766 434 868 308 868C193 868 98 783 82 672C81 664 87 655 96 654C104 653 113 659 114 668C128 763 209 836 308 836C416 836 504 748 504 640ZM480 -204C516 -204 546 -174 546 -138C546 -110 528 -84 502 -76L534 2C538 10 534 20 526 22C518 26 508 22 506 14L466 -82C460 -94 466 -104 480 -104C500 -104 514 -118 514 -138C514 -158 500 -172 480 -172C460 -172 446 -158 446 -138C446 -130 438 -122 430 -122C422 -122 414 -130 414 -138C414 -174 444 -204 480 -204Z" glyph-name="ncedilla" horiz-adv-x="616" unicode="&#326;" /><glyph d="M112 836C112 845 105 852 96 852C87 852 80 845 80 836V16C80 7 87 0 96 0C105 0 112 7 112 16ZM504 16C504 7 511 0 520 0C529 0 536 7 536 16V640C536 766 434 868 308 868C193 868 98 783 82 672C81 664 87 655 96 654C104 653 113 659 114 668C128 763 209 836 308 836C416 836 504 748 504 640ZM308 1004C318 1004 328 1012 328 1024C328 1034 318 1044 308 1044C296 1044 288 1034 288 1024C288 1012 296 1004 308 1004Z" glyph-name="ndotaccent" horiz-adv-x="616" unicode="&#7749;" /><glyph d="M112 836C112 845 105 852 96 852C87 852 80 845 80 836V16C80 7 87 0 96 0C105 0 112 7 112 16ZM504 16C504 7 511 0 520 0C529 0 536 7 536 16V640C536 766 434 868 308 868C193 868 98 783 82 672C81 664 87 655 96 654C104 653 113 659 114 668C128 763 209 836 308 836C416 836 504 748 504 640ZM299 973C305 967 315 967 321 973C327 979 327 989 321 995L197 1117C191 1123 181 1123 175 1117C169 1111 169 1101 175 1095Z" glyph-name="ngrave" horiz-adv-x="616" unicode="&#505;" /><glyph d="M112 196C112 205 105 212 96 212C87 212 80 205 80 196C80 70 183 -32 308 -32C434 -32 536 70 536 196V1004C536 1129 434 1232 308 1232C183 1232 80 1129 80 1004V684C80 558 183 456 308 456C419 456 511 536 532 641C533 649 528 658 519 660C511 661 502 656 500 647C483 556 403 488 308 488C201 488 112 576 112 684V1004C112 1111 201 1200 308 1200C416 1200 504 1111 504 1004V196C504 88 416 0 308 0C201 0 112 88 112 196Z" glyph-name="nine" horiz-adv-x="616" unicode="9" /><glyph d="M112 -168C112 -159 105 -152 96 -152C87 -152 80 -159 80 -168C80 -294 183 -396 308 -396C434 -396 536 -294 536 -168V640C536 765 434 868 308 868C183 868 80 765 80 640V212C80 86 183 -16 308 -16C419 -16 511 64 532 169C533 177 528 186 519 188C511 189 502 184 500 175C483 84 403 16 308 16C201 16 112 104 112 212V640C112 747 201 836 308 836C416 836 504 747 504 640V-168C504 -276 416 -364 308 -364C201 -364 112 -276 112 -168Z" glyph-name="nine.oldstyle" horiz-adv-x="616" unicode="&#63289;" /><glyph d="M112 -44C112 -35 105 -28 96 -28C87 -28 80 -35 80 -44C80 -111 135 -166 202 -166C269 -166 324 -111 324 -44V360C324 428 269 482 202 482C135 482 80 428 80 360V170C80 103 135 48 202 48C269 48 324 103 324 170C324 179 317 186 308 186C299 186 292 179 292 170C292 121 251 80 202 80C153 80 112 121 112 170V360C112 410 153 450 202 450C251 450 292 410 292 360V-44C292 -93 251 -134 202 -134C153 -134 112 -93 112 -44Z" glyph-name="nine.sub" horiz-adv-x="404" unicode="&#8329;" /><glyph d="M112 706C112 715 105 722 96 722C87 722 80 715 80 706C80 639 135 584 202 584C269 584 324 639 324 706V1110C324 1178 269 1232 202 1232C135 1232 80 1178 80 1110V920C80 853 135 798 202 798C269 798 324 853 324 920C324 929 317 936 308 936C299 936 292 929 292 920C292 871 251 830 202 830C153 830 112 871 112 920V1110C112 1160 153 1200 202 1200C251 1200 292 1160 292 1110V706C292 657 251 616 202 616C153 616 112 657 112 706Z" glyph-name="nine.sup" horiz-adv-x="404" unicode="&#8313;" /><glyph d="M361 632C362 640 355 649 348 651C338 652 330 645 329 638L255 220C254 212 259 203 268 201C276 200 286 207 287 214ZM520 286C528 286 536 294 536 302C536 310 528 318 520 318H96C88 318 80 310 80 302C80 294 88 286 96 286ZM520 526C528 526 536 534 536 542C536 550 528 558 520 558H96C88 558 80 550 80 542C80 534 88 526 96 526Z" glyph-name="notequal" horiz-adv-x="616" unicode="&#8800;" /><glyph d="M112 836C112 845 105 852 96 852C87 852 80 845 80 836V16C80 7 87 0 96 0C105 0 112 7 112 16ZM504 16C504 7 511 0 520 0C529 0 536 7 536 16V640C536 766 434 868 308 868C193 868 98 783 82 672C81 664 87 655 96 654C104 653 113 659 114 668C128 763 209 836 308 836C416 836 504 748 504 640ZM201 1021C207 1051 233 1075 266 1075C290 1075 311 1062 323 1042C329 1032 340 1025 352 1025C369 1025 383 1037 385 1053C387 1061 395 1067 404 1066C412 1064 418 1056 417 1047C411 1017 385 993 352 993C328 993 307 1006 295 1026C289 1036 278 1043 266 1043C249 1043 235 1031 233 1015C231 1007 223 1001 214 1002C206 1004 200 1012 201 1021Z" glyph-name="ntilde" horiz-adv-x="616" unicode="&#241;" /><glyph d="M580 462H470L532 648C532 650 532 650 532 652C532 660 526 668 516 668C510 668 504 664 500 658L436 462H290L352 648C352 650 352 650 352 652C352 660 346 668 336 668C330 668 324 664 320 658L256 462H148C140 462 132 456 132 446C132 438 140 430 148 430H246L202 300H96C88 300 80 292 80 284C80 274 88 268 96 268H190L108 20C108 18 108 18 108 16C108 8 114 0 124 0C130 0 136 4 140 10L224 268H370L288 20C288 18 288 18 288 16C288 8 294 0 304 0C310 0 316 4 320 10L404 268H520C528 268 536 274 536 284C536 292 528 300 520 300H416L458 430H580C588 430 596 438 596 446C596 456 588 462 580 462ZM382 300H236L278 430H426Z" glyph-name="numbersign" horiz-adv-x="676" unicode="#" /><glyph d="M80 212C80 86 182 -16 308 -16C434 -16 536 86 536 212V640C536 766 434 868 308 868C182 868 80 766 80 640ZM112 212V640C112 748 200 836 308 836C416 836 504 748 504 640V212C504 104 416 16 308 16C200 16 112 104 112 212Z" glyph-name="o" horiz-adv-x="616" unicode="o" /><glyph d="M80 212C80 86 182 -16 308 -16C434 -16 536 86 536 212V640C536 766 434 868 308 868C182 868 80 766 80 640ZM112 212V640C112 748 200 836 308 836C416 836 504 748 504 640V212C504 104 416 16 308 16C200 16 112 104 112 212ZM457 1095C463 1101 463 1111 457 1117C451 1123 441 1123 435 1117L311 995C305 989 305 979 311 973C317 967 327 967 333 973Z" glyph-name="oacute" horiz-adv-x="616" unicode="&#243;" /><glyph d="M80 212C80 86 182 -16 308 -16C434 -16 536 86 536 212V640C536 766 434 868 308 868C182 868 80 766 80 640ZM112 212V640C112 748 200 836 308 836C416 836 504 748 504 640V212C504 104 416 16 308 16C200 16 112 104 112 212ZM308 968C342 968 372 996 374 1032V1034C374 1042 366 1050 358 1050C350 1050 342 1042 342 1034C342 1016 326 1000 308 1000C290 1000 274 1016 274 1034C274 1042 266 1050 258 1050C250 1050 242 1042 242 1034C242 998 272 968 308 968Z" glyph-name="obreve" horiz-adv-x="616" unicode="&#335;" /><glyph d="M80 212C80 86 182 -16 308 -16C434 -16 536 86 536 212V640C536 766 434 868 308 868C182 868 80 766 80 640ZM112 212V640C112 748 200 836 308 836C416 836 504 748 504 640V212C504 104 416 16 308 16C200 16 112 104 112 212ZM402 1056C408 1062 408 1072 402 1078C396 1084 386 1084 380 1078L297 995H319L236 1078C230 1084 220 1084 214 1078C208 1072 208 1062 214 1056L297 973C303 966 313 966 319 973Z" glyph-name="ocaron" horiz-adv-x="616" unicode="&#466;" /><glyph d="M80 212C80 86 182 -16 308 -16C434 -16 536 86 536 212V640C536 766 434 868 308 868C182 868 80 766 80 640ZM112 212V640C112 748 200 836 308 836C416 836 504 748 504 640V212C504 104 416 16 308 16C200 16 112 104 112 212ZM214 995C208 989 208 979 214 973C220 967 230 967 236 973L319 1056H297L380 973C386 967 396 967 402 973C408 979 408 989 402 995L319 1078C313 1085 303 1085 297 1078Z" glyph-name="ocircumflex" horiz-adv-x="616" unicode="&#244;" /><glyph d="M80 212C80 86 182 -16 308 -16C434 -16 536 86 536 212V640C536 766 434 868 308 868C182 868 80 766 80 640ZM112 212V640C112 748 200 836 308 836C416 836 504 748 504 640V212C504 104 416 16 308 16C200 16 112 104 112 212ZM348 1004C358 1004 368 1012 368 1024C368 1034 358 1044 348 1044C336 1044 328 1034 328 1024C328 1012 336 1004 348 1004ZM268 1004C278 1004 288 1012 288 1024C288 1034 278 1044 268 1044C256 1044 248 1034 248 1024C248 1012 256 1004 268 1004Z" glyph-name="odieresis" horiz-adv-x="616" unicode="&#246;" /><glyph d="M80 212C80 86 182 -16 308 -16C434 -16 536 86 536 212V640C536 766 434 868 308 868C182 868 80 766 80 640ZM112 212V640C112 748 200 836 308 836C416 836 504 748 504 640V212C504 104 416 16 308 16C200 16 112 104 112 212ZM308 1004C318 1004 328 1012 328 1024C328 1034 318 1044 308 1044C296 1044 288 1034 288 1024C288 1012 296 1004 308 1004Z" glyph-name="odotaccent" horiz-adv-x="616" unicode="&#559;" /><glyph d="M960 212C960 221 953 228 944 228C935 228 928 221 928 212C928 104 840 16 732 16C624 16 536 104 536 212V640C536 748 624 836 732 836C840 836 928 748 928 640V434L944 450H530C521 450 514 443 514 434C514 425 521 418 530 418H944C953 418 960 425 960 434V640C960 766 858 868 732 868C606 868 504 766 504 640V212C504 86 606 -16 732 -16C858 -16 960 86 960 212ZM504 640C504 631 511 624 520 624C529 624 536 631 536 640C536 766 434 868 308 868C182 868 80 766 80 640V212C80 86 182 -16 308 -16C434 -16 536 86 536 212C536 221 529 228 520 228C511 228 504 221 504 212C504 104 416 16 308 16C200 16 112 104 112 212V640C112 748 200 836 308 836C416 836 504 748 504 640Z" glyph-name="oe" horiz-adv-x="1040" unicode="&#339;" /><glyph d="M146 -204C182 -204 212 -174 212 -138C212 -130 204 -122 196 -122C188 -122 180 -130 180 -138C180 -158 166 -172 146 -172C126 -172 112 -158 112 -138C112 -118 126 -104 146 -104C160 -104 166 -94 160 -82L120 14C118 22 108 26 100 22C92 20 88 10 92 2L124 -76C98 -84 80 -110 80 -138C80 -174 110 -204 146 -204Z" glyph-name="ogonek" horiz-adv-x="292" unicode="&#731;" /><glyph d="M80 212C80 86 182 -16 308 -16C434 -16 536 86 536 212V640C536 766 434 868 308 868C182 868 80 766 80 640ZM112 212V640C112 748 200 836 308 836C416 836 504 748 504 640V212C504 104 416 16 308 16C200 16 112 104 112 212ZM299 973C305 967 315 967 321 973C327 979 327 989 321 995L197 1117C191 1123 181 1123 175 1117C169 1111 169 1101 175 1095Z" glyph-name="ograve" horiz-adv-x="616" unicode="&#242;" /><glyph d="M80 212C80 86 182 -16 308 -16C434 -16 536 86 536 212V640C536 766 434 868 308 868C182 868 80 766 80 640ZM112 212V640C112 748 200 836 308 836C416 836 504 748 504 640V212C504 104 416 16 308 16C200 16 112 104 112 212ZM373 1089C379 1095 379 1105 373 1111C367 1117 357 1117 351 1111L227 989C221 983 221 973 227 967C233 961 243 961 249 967ZM513 1089C519 1095 519 1105 513 1111C507 1117 497 1117 491 1111L367 989C361 983 361 973 367 967C373 961 383 961 389 967Z" glyph-name="ohungarumlaut" horiz-adv-x="616" unicode="&#337;" /><glyph d="M80 212C80 86 182 -16 308 -16C434 -16 536 86 536 212V640C536 766 434 868 308 868C182 868 80 766 80 640ZM112 212V640C112 748 200 836 308 836C416 836 504 748 504 640V212C504 104 416 16 308 16C200 16 112 104 112 212ZM395 1008C403 1008 411 1016 411 1024C411 1032 403 1040 395 1040H221C213 1040 205 1032 205 1024C205 1016 213 1008 221 1008Z" glyph-name="omacron" horiz-adv-x="616" unicode="&#333;" /><glyph d="M294 16C294 7 301 0 310 0C319 0 326 7 326 16V1202C326 1223 314 1229 299 1213L84 996C78 990 78 980 84 974C90 968 100 968 106 974L321 1191L294 1202ZM522 0C531 0 538 7 538 16C538 25 531 32 522 32H98C89 32 82 25 82 16C82 7 89 0 98 0Z" glyph-name="one" horiz-adv-x="616" unicode="1" /><glyph d="M294 16C294 7 301 0 310 0C319 0 326 7 326 16V870C326 891 314 897 299 881L84 664C78 658 78 648 84 642C90 636 100 636 106 642L321 859L294 870ZM522 0C531 0 538 7 538 16C538 25 531 32 522 32H98C89 32 82 25 82 16C82 7 89 0 98 0Z" glyph-name="one.oldstyle" horiz-adv-x="616" unicode="&#63281;" /><glyph d="M187 -139C187 -148 194 -155 203 -155C212 -155 219 -148 219 -139V452C219 473 207 478 192 463L84 355C78 349 78 339 84 333C90 327 100 327 106 333L214 441L187 452ZM309 -157C318 -157 325 -150 325 -141C325 -132 318 -125 309 -125H97C88 -125 81 -132 81 -141C81 -150 88 -157 97 -157Z" glyph-name="one.sub" horiz-adv-x="405" unicode="&#8321;" /><glyph d="M187 611C187 602 194 595 203 595C212 595 219 602 219 611V1202C219 1223 207 1228 192 1213L84 1105C78 1099 78 1089 84 1083C90 1077 100 1077 106 1083L214 1191L187 1202ZM309 593C318 593 325 600 325 609C325 618 318 625 309 625H97C88 625 81 618 81 609C81 600 88 593 97 593Z" glyph-name="one.sup" horiz-adv-x="405" unicode="&#185;" /><glyph d="M789 1216C785 1215 782 1212 780 1209L2 11C1 9 0 7 0 5C0 3 1 2 1 0C3 -9 9 -13 16 -13C17 -13 18 -13 19 -13C23 -12 26 -9 28 -6L806 1192C807 1194 808 1197 808 1200C808 1201 808 1202 808 1203C806 1211 800 1216 792 1216C791 1216 790 1216 789 1216ZM187 611C187 602 194 595 203 595C212 595 219 602 219 611V1202C219 1223 207 1228 192 1213L84 1105C78 1099 78 1089 84 1083C90 1077 100 1077 106 1083L214 1191L187 1202ZM309 593C318 593 325 600 325 609C325 618 318 625 309 625H97C88 625 81 618 81 609C81 600 88 593 97 593ZM597 272C606 273 613 281 612 289C611 298 603 305 595 304C532 298 484 245 484 182V42C484 -25 539 -80 606 -80H607C674 -80 729 -25 729 42V182C729 250 674 304 607 304H606C557 304 516 345 516 394V446C516 496 557 536 606 536H607C656 536 697 496 697 446V394C697 347 661 309 616 305C608 304 601 296 602 287C603 279 611 272 620 273C681 279 729 331 729 394V446C729 514 674 568 607 568H606C539 568 484 514 484 446V394C484 327 539 272 606 272H607C656 272 697 232 697 182V42C697 -7 656 -48 607 -48H606C557 -48 516 -7 516 42V182C516 229 552 268 597 272Z" glyph-name="oneeight" horiz-adv-x="808" unicode="&#8539;" /><glyph d="M789 1216C785 1215 782 1212 780 1209L2 11C1 9 0 7 0 5C0 3 1 2 1 0C3 -9 9 -13 16 -13C17 -13 18 -13 19 -13C23 -12 26 -9 28 -6L806 1192C807 1194 808 1197 808 1200C808 1201 808 1202 808 1203C806 1211 800 1216 792 1216C791 1216 790 1216 789 1216ZM187 611C187 602 194 595 203 595C212 595 219 602 219 611V1202C219 1223 207 1228 192 1213L84 1105C78 1099 78 1089 84 1083C90 1077 100 1077 106 1083L214 1191L187 1202ZM309 593C318 593 325 600 325 609C325 618 318 625 309 625H97C88 625 81 618 81 609C81 600 88 593 97 593ZM516 26C516 35 509 42 500 42C491 42 484 35 484 26C484 -41 539 -96 606 -96C673 -96 728 -41 728 26V171C728 239 673 293 606 293H501L517 277L516 520L500 504H713C722 504 729 511 729 520C729 529 722 536 713 536H500C491 536 484 529 484 520L485 277C485 268 492 261 501 261H606C655 261 696 221 696 171V26C696 -23 655 -64 606 -64C557 -64 516 -23 516 26Z" glyph-name="onefifth" horiz-adv-x="808" unicode="&#8533;" /><glyph d="M789 1216C785 1215 782 1212 780 1209L2 11C1 9 0 7 0 5C0 3 1 2 1 0C3 -9 9 -13 16 -13C17 -13 18 -13 19 -13C23 -12 26 -9 28 -6L806 1192C807 1194 808 1197 808 1200C808 1201 808 1202 808 1203C806 1211 800 1216 792 1216C791 1216 790 1216 789 1216ZM187 611C187 602 194 595 203 595C212 595 219 602 219 611V1202C219 1223 207 1228 192 1213L84 1105C78 1099 78 1089 84 1083C90 1077 100 1077 106 1083L214 1191L187 1202ZM309 593C318 593 325 600 325 609C325 618 318 625 309 625H97C88 625 81 618 81 609C81 600 88 593 97 593ZM712 -64C721 -64 728 -57 728 -48C728 -39 721 -32 712 -32H500L516 -48V89C516 139 557 179 606 179C673 179 728 234 728 301V446C728 514 673 568 606 568C539 568 484 514 484 446C484 437 491 430 500 430C509 430 516 437 516 446C516 496 557 536 606 536C655 536 696 496 696 446V301C696 252 655 211 606 211C539 211 484 157 484 89V-48C484 -57 491 -64 500 -64Z" glyph-name="onehalf" horiz-adv-x="808" unicode="&#189;" /><glyph d="M789 1216C785 1215 782 1212 780 1209L2 11C1 9 0 7 0 5C0 3 1 2 1 0C3 -9 9 -13 16 -13C17 -13 18 -13 19 -13C23 -12 26 -9 28 -6L806 1192C807 1194 808 1197 808 1200C808 1201 808 1202 808 1203C806 1211 800 1216 792 1216C791 1216 790 1216 789 1216ZM187 611C187 602 194 595 203 595C212 595 219 602 219 611V1202C219 1223 207 1228 192 1213L84 1105C78 1099 78 1089 84 1083C90 1077 100 1077 106 1083L214 1191L187 1202ZM309 593C318 593 325 600 325 609C325 618 318 625 309 625H97C88 625 81 618 81 609C81 600 88 593 97 593ZM516 42C516 51 509 58 500 58C491 58 484 51 484 42C484 -25 539 -80 606 -80C673 -80 728 -25 728 42V446C728 514 673 568 606 568C539 568 484 514 484 446V256C484 189 539 134 606 134C673 134 728 189 728 256C728 265 721 272 712 272C703 272 696 265 696 256C696 207 655 166 606 166C557 166 516 207 516 256V446C516 496 557 536 606 536C655 536 696 496 696 446V42C696 -7 655 -48 606 -48C557 -48 516 -7 516 42Z" glyph-name="onenineth" horiz-adv-x="808" unicode="&#8529;" /><glyph d="M187 611C187 602 194 595 203 595C212 595 219 602 219 611V1202C219 1223 207 1228 192 1213L84 1105C78 1099 78 1089 84 1083C90 1077 100 1077 106 1083L214 1191L187 1202ZM309 593C318 593 325 600 325 609C325 618 318 625 309 625H97C88 625 81 618 81 609C81 600 88 593 97 593ZM789 1216C785 1215 782 1212 780 1209L2 11C1 9 0 7 0 5C0 3 1 2 1 0C3 -9 9 -13 16 -13C17 -13 18 -13 19 -13C23 -12 26 -9 28 -6L806 1192C807 1194 808 1197 808 1200C808 1201 808 1202 808 1203C806 1211 800 1216 792 1216C791 1216 790 1216 789 1216ZM710 71C719 71 726 78 726 87C726 96 719 103 710 103H500L516 83L622 533L606 521H712L696 537V-47C696 -56 703 -63 712 -63C721 -63 728 -56 728 -47V537C728 546 721 553 712 553H606C599 553 592 547 590 541L484 91C482 80 489 71 500 71Z" glyph-name="onequarter" horiz-adv-x="808" unicode="&#188;" /><glyph d="M789 1216C785 1215 782 1212 780 1209L2 11C1 9 0 7 0 5C0 3 1 2 1 0C3 -9 9 -13 16 -13C17 -13 18 -13 19 -13C23 -12 26 -9 28 -6L806 1192C807 1194 808 1197 808 1200C808 1201 808 1202 808 1203C806 1211 800 1216 792 1216C791 1216 790 1216 789 1216ZM187 611C187 602 194 595 203 595C212 595 219 602 219 611V1202C219 1223 207 1228 192 1213L84 1105C78 1099 78 1089 84 1083C90 1077 100 1077 106 1083L214 1191L187 1202ZM309 593C318 593 325 600 325 609C325 618 318 625 309 625H97C88 625 81 618 81 609C81 600 88 593 97 593ZM500 536C491 536 484 529 484 520C484 511 491 504 500 504H712L696 523L590 -61C589 -70 595 -78 603 -80C612 -81 620 -75 622 -67L728 517C730 528 723 536 712 536Z" glyph-name="oneseventh" horiz-adv-x="808" unicode="&#8528;" /><glyph d="M187 611C187 602 194 595 203 595C212 595 219 602 219 611V1202C219 1223 207 1228 192 1213L84 1105C78 1099 78 1089 84 1083C90 1077 100 1077 106 1083L214 1191L187 1202ZM309 593C318 593 325 600 325 609C325 618 318 625 309 625H97C88 625 81 618 81 609C81 600 88 593 97 593ZM789 1216C785 1215 782 1212 780 1209L2 11C1 9 0 7 0 5C0 3 1 2 1 0C3 -9 9 -13 16 -13C17 -13 18 -13 19 -13C23 -12 26 -9 28 -6L806 1192C807 1194 808 1197 808 1200C808 1201 808 1202 808 1203C806 1211 800 1216 792 1216C791 1216 790 1216 789 1216ZM696 446C696 437 703 430 712 430C721 430 728 437 728 446C728 514 673 568 606 568C539 568 484 514 484 446V42C484 -25 539 -80 606 -80C673 -80 728 -25 728 42V202C728 270 673 324 606 324C539 324 484 270 484 202C484 193 491 186 500 186C509 186 516 193 516 202C516 252 557 292 606 292C655 292 696 252 696 202V42C696 -7 655 -48 606 -48C557 -48 516 -7 516 42V446C516 496 557 536 606 536C655 536 696 496 696 446Z" glyph-name="onesixth" horiz-adv-x="808" unicode="&#8537;" /><glyph d="M789 1216C785 1215 782 1212 780 1209L2 11C1 9 0 7 0 5C0 3 1 2 1 0C3 -9 9 -13 16 -13C17 -13 18 -13 19 -13C23 -12 26 -9 28 -6L806 1192C807 1194 808 1197 808 1200C808 1201 808 1202 808 1203C806 1211 800 1216 792 1216C791 1216 790 1216 789 1216ZM187 611C187 602 194 595 203 595C212 595 219 602 219 611V1202C219 1223 207 1228 192 1213L84 1105C78 1099 78 1089 84 1083C90 1077 100 1077 106 1083L214 1191L187 1202ZM309 593C318 593 325 600 325 609C325 618 318 625 309 625H97C88 625 81 618 81 609C81 600 88 593 97 593ZM591 -53C591 -62 598 -69 607 -69C616 -69 623 -62 623 -53V538C623 559 611 564 596 549L488 441C482 435 482 425 488 419C494 413 504 413 510 419L618 527L591 538ZM713 -71C722 -71 729 -64 729 -55C729 -46 722 -39 713 -39H501C492 -39 485 -46 485 -55C485 -64 492 -71 501 -71ZM1132 446C1132 514 1077 568 1010 568C943 568 888 514 888 446V42C888 -25 943 -80 1010 -80C1077 -80 1132 -25 1132 42ZM1100 446V42C1100 -7 1059 -48 1010 -48C961 -48 920 -7 920 42V446C920 496 961 536 1010 536C1059 536 1100 496 1100 446ZM890 51C886 43 889 33 896 29C904 25 914 28 918 35L1130 434C1134 442 1131 452 1124 456C1116 460 1106 457 1102 450Z" glyph-name="onetenth" horiz-adv-x="1212" unicode="&#8530;" /><glyph d="M789 1216C785 1215 782 1212 780 1209L2 11C1 9 0 7 0 5C0 3 1 2 1 0C3 -9 9 -13 16 -13C17 -13 18 -13 19 -13C23 -12 26 -9 28 -6L806 1192C807 1194 808 1197 808 1200C808 1201 808 1202 808 1203C806 1211 800 1216 792 1216C791 1216 790 1216 789 1216ZM187 611C187 602 194 595 203 595C212 595 219 602 219 611V1202C219 1223 207 1228 192 1213L84 1105C78 1099 78 1089 84 1083C90 1077 100 1077 106 1083L214 1191L187 1202ZM309 593C318 593 325 600 325 609C325 618 318 625 309 625H97C88 625 81 618 81 609C81 600 88 593 97 593ZM607 309C598 309 591 302 591 293C591 284 598 277 607 277C674 277 729 332 729 399V446C729 514 674 568 607 568H605C538 568 483 514 483 446C483 437 490 430 499 430C508 430 515 437 515 446C515 496 556 536 605 536H607C656 536 697 496 697 446V399C697 350 656 309 607 309ZM515 42C515 51 508 58 499 58C490 58 483 51 483 42C483 -25 538 -80 605 -80H607C674 -80 729 -25 729 42V187C729 255 674 309 607 309C598 309 591 302 591 293C591 284 598 277 607 277C656 277 697 237 697 187V42C697 -7 656 -48 607 -48H605C556 -48 515 -7 515 42Z" glyph-name="onethird" horiz-adv-x="808" unicode="&#8531;" /><glyph d="M80 212C80 86 182 -16 308 -16C434 -16 536 86 536 212V640C536 766 434 868 308 868C182 868 80 766 80 640ZM112 212V640C112 748 200 836 308 836C416 836 504 748 504 640V212C504 104 416 16 308 16C200 16 112 104 112 212ZM348 -218C384 -218 414 -188 414 -152C414 -144 406 -136 398 -136C390 -136 382 -144 382 -152C382 -172 368 -186 348 -186C328 -186 314 -172 314 -152C314 -132 328 -118 348 -118C362 -118 368 -108 362 -96L322 0C320 8 310 12 302 8C294 6 290 -4 294 -12L326 -90C300 -98 282 -124 282 -152C282 -188 312 -218 348 -218Z" glyph-name="oogonek" horiz-adv-x="616" unicode="&#491;" /><glyph d="M280 1022C354 1022 418 1086 418 1162V1302C418 1376 354 1440 280 1440H220C211 1440 204 1433 204 1424C204 1415 211 1408 220 1408H280C338 1408 386 1360 386 1302V1279C360 1310 322 1330 280 1330H220C144 1330 80 1266 80 1192V1162C80 1086 144 1022 220 1022ZM220 1054C160 1054 112 1102 112 1162V1192C112 1250 160 1298 220 1298H280C338 1298 386 1250 386 1192V1162C386 1102 338 1054 280 1054Z" glyph-name="ordfeminine" horiz-adv-x="498" unicode="&#170;" /><glyph d="M220 1054C160 1054 112 1102 112 1162V1302C112 1360 160 1408 220 1408H280C338 1408 386 1360 386 1302V1162C386 1102 338 1054 280 1054ZM418 1302C418 1376 354 1440 280 1440C280 1440 220 1440 220 1440C144 1440 80 1376 80 1302V1162C80 1086 144 1022 220 1022H280C354 1022 418 1086 418 1162Z" glyph-name="ordmasculine" horiz-adv-x="498" unicode="&#186;" /><glyph d="M478 847C481 855 477 864 468 867C460 870 451 866 448 857L140 4C137 -4 141 -13 150 -16C158 -19 167 -15 170 -6ZM80 212C80 86 182 -16 308 -16C434 -16 536 86 536 212V640C536 766 434 868 308 868C182 868 80 766 80 640ZM112 212V640C112 748 200 836 308 836C416 836 504 748 504 640V212C504 104 416 16 308 16C200 16 112 104 112 212Z" glyph-name="oslash" horiz-adv-x="616" unicode="&#248;" /><glyph d="M80 212C80 86 182 -16 308 -16C434 -16 536 86 536 212V640C536 766 434 868 308 868C182 868 80 766 80 640ZM112 212V640C112 748 200 836 308 836C416 836 504 748 504 640V212C504 104 416 16 308 16C200 16 112 104 112 212ZM201 1021C207 1051 233 1075 266 1075C290 1075 311 1062 323 1042C329 1032 340 1025 352 1025C369 1025 383 1037 385 1053C387 1061 395 1067 404 1066C412 1064 418 1056 417 1047C411 1017 385 993 352 993C328 993 307 1006 295 1026C289 1036 278 1043 266 1043C249 1043 235 1031 233 1015C231 1007 223 1001 214 1002C206 1004 200 1012 201 1021Z" glyph-name="otilde" horiz-adv-x="616" unicode="&#245;" /><glyph d="M80 212C80 86 182 -16 308 -16C434 -16 536 86 536 212V640C536 766 434 868 308 868C182 868 80 766 80 640V-348C80 -357 87 -364 96 -364C105 -364 112 -357 112 -348V640C112 748 200 836 308 836C416 836 504 748 504 640V212C504 104 416 16 308 16C200 16 112 104 112 212C112 221 105 228 96 228C87 228 80 221 80 212Z" glyph-name="p" horiz-adv-x="616" unicode="p" /><glyph d="M80 212C80 86 182 -16 308 -16C434 -16 536 86 536 212V640C536 766 434 868 308 868C182 868 80 766 80 640V-348C80 -357 87 -364 96 -364C105 -364 112 -357 112 -348V640C112 748 200 836 308 836C416 836 504 748 504 640V212C504 104 416 16 308 16C200 16 112 104 112 212C112 221 105 228 96 228C87 228 80 221 80 212ZM382 1095C388 1101 388 1111 382 1117C376 1123 366 1123 360 1117L236 995C230 989 230 979 236 973C242 967 252 967 258 973Z" glyph-name="pacute" horiz-adv-x="616" unicode="&#7765;" /><glyph d="M428 16C428 7 435 0 444 0C453 0 460 7 460 16V1184C460 1193 453 1200 444 1200C435 1200 428 1193 428 1184ZM338 16C338 7 345 0 354 0C363 0 370 7 370 16V1184C370 1193 363 1200 354 1200C345 1200 338 1193 338 1184ZM480 1184C489 1184 496 1191 496 1200C496 1209 489 1216 480 1216H270C165 1216 80 1131 80 1026C80 921 165 836 270 836H347C356 836 363 843 363 852C363 861 356 868 347 868H270C183 868 112 939 112 1026C112 1113 183 1184 270 1184Z" glyph-name="paragraph" horiz-adv-x="576" unicode="&#182;" /><glyph d="M324 1207C191 1040 112 828 112 600C112 372 191 161 323 -6C328 -13 327 -23 320 -29C313 -34 303 -33 297 -26C161 147 80 364 80 600C80 836 161 1054 298 1227C304 1234 314 1235 321 1230C328 1224 329 1214 324 1207Z" glyph-name="parenleft" horiz-adv-x="404" unicode="(" /><glyph d="M85 1207C80 1214 81 1224 88 1230C95 1235 105 1234 111 1227C248 1054 329 836 329 600C329 364 248 147 112 -26C106 -33 96 -34 89 -29C82 -23 81 -13 86 -6C218 161 297 372 297 600C297 828 218 1040 85 1207Z" glyph-name="parenright" horiz-adv-x="409" unicode=")" /><glyph d="M504 656C504 647 511 640 520 640C529 640 536 647 536 656C536 782 434 884 308 884C182 884 80 782 80 656V196C80 70 182 -32 308 -32C434 -32 536 70 536 196V984C536 1110 434 1212 308 1212C299 1212 292 1205 292 1196C292 1187 299 1180 308 1180C416 1180 504 1092 504 984V196C504 88 416 0 308 0C200 0 112 88 112 196V656C112 764 200 852 308 852C416 852 504 764 504 656Z" glyph-name="partialdiff" horiz-adv-x="616" unicode="&#8706;" /><glyph d="M80 212C80 86 182 -16 308 -16C434 -16 536 86 536 212V640C536 766 434 868 308 868C182 868 80 766 80 640V-348C80 -357 87 -364 96 -364C105 -364 112 -357 112 -348V640C112 748 200 836 308 836C416 836 504 748 504 640V212C504 104 416 16 308 16C200 16 112 104 112 212C112 221 105 228 96 228C87 228 80 221 80 212ZM308 1004C318 1004 328 1012 328 1024C328 1034 318 1044 308 1044C296 1044 288 1034 288 1024C288 1012 296 1004 308 1004Z" glyph-name="pdotaccent" horiz-adv-x="616" unicode="&#7767;" /><glyph d="M202 424C269 424 324 479 324 546C324 613 269 668 202 668C135 668 80 613 80 546C80 479 135 424 202 424ZM202 456C153 456 112 497 112 546C112 595 153 636 202 636C251 636 292 595 292 546C292 497 251 456 202 456ZM533 645C538 652 536 663 529 667C522 672 511 670 507 663L83 25C78 18 80 7 87 3C94 -2 105 0 109 7ZM414 -16C481 -16 536 39 536 106C536 173 481 228 414 228C347 228 292 173 292 106C292 39 347 -16 414 -16ZM414 16C365 16 324 57 324 106C324 155 365 196 414 196C463 196 504 155 504 106C504 57 463 16 414 16Z" glyph-name="percent" horiz-adv-x="616" unicode="%" /><glyph d="M100 -4C113 -4 124 7 124 20C124 33 113 44 100 44C87 44 76 33 76 20C76 7 87 -4 100 -4Z" glyph-name="period" horiz-adv-x="200" unicode="." /><glyph d="M100 402C113 402 124 413 124 426C124 439 113 450 100 450C87 450 76 439 76 426C76 413 87 402 100 402Z" glyph-name="periodcentered" horiz-adv-x="200" unicode="&#183;" /><glyph d="M202 424C269 424 324 479 324 546C324 613 269 668 202 668C135 668 80 613 80 546C80 479 135 424 202 424ZM202 456C153 456 112 497 112 546C112 595 153 636 202 636C251 636 292 595 292 546C292 497 251 456 202 456ZM533 645C538 652 536 663 529 667C522 672 511 670 507 663L83 25C78 18 80 7 87 3C94 -2 105 0 109 7ZM414 -16C481 -16 536 39 536 106C536 173 481 228 414 228C347 228 292 173 292 106C292 39 347 -16 414 -16ZM414 16C365 16 324 57 324 106C324 155 365 196 414 196C463 196 504 155 504 106C504 57 463 16 414 16ZM724 -16C791 -16 846 39 846 106C846 173 791 228 724 228C657 228 602 173 602 106C602 39 657 -16 724 -16ZM724 16C675 16 634 57 634 106C634 155 675 196 724 196C773 196 814 155 814 106C814 57 773 16 724 16Z" glyph-name="perthousand" horiz-adv-x="926" unicode="&#8240;" /><glyph d="M580 820C589 820 596 827 596 836C596 845 589 852 580 852H96C87 852 80 845 80 836C80 827 87 820 96 820ZM192 16C192 7 199 0 208 0C217 0 224 7 224 16V830C224 839 217 846 208 846C199 846 192 839 192 830ZM472 830C472 839 465 846 456 846C447 846 440 839 440 830V124C440 47 503 -16 580 -16C589 -16 596 -9 596 0C596 9 589 16 580 16C521 16 472 65 472 124Z" glyph-name="pi" horiz-adv-x="676" unicode="&#960;" /><glyph d="M290 216C290 207 297 200 306 200C315 200 322 207 322 216V636C322 645 315 652 306 652C297 652 290 645 290 636ZM516 410C525 410 532 417 532 426C532 435 525 442 516 442H96C87 442 80 435 80 426C80 417 87 410 96 410Z" glyph-name="plus" horiz-adv-x="612" unicode="+" /><glyph d="M290 216C290 207 297 200 306 200C315 200 322 207 322 216V636C322 645 315 652 306 652C297 652 290 645 290 636ZM516 410C525 410 532 417 532 426C532 435 525 442 516 442H96C87 442 80 435 80 426C80 417 87 410 96 410ZM516 90C524 90 532 98 532 106C532 116 524 122 516 122H96C88 122 80 116 80 106C80 98 88 90 96 90Z" glyph-name="plusminus" horiz-adv-x="612" unicode="&#177;" /><glyph d="M730 -16C739 -16 746 -9 746 0C746 9 739 16 730 16C671 16 622 65 622 124V1178C622 1187 615 1194 606 1194C597 1194 590 1187 590 1178V124C590 47 653 -16 730 -16ZM192 16C192 7 199 0 208 0C217 0 224 7 224 16V1178C224 1187 217 1194 208 1194C199 1194 192 1187 192 1178ZM730 1168C739 1168 746 1175 746 1184C746 1193 739 1200 730 1200H96C87 1200 80 1193 80 1184C80 1175 87 1168 96 1168Z" glyph-name="product" horiz-adv-x="826" unicode="&#8719;" /><glyph d="M536 212C536 221 529 228 520 228C511 228 504 221 504 212C504 104 416 16 308 16C200 16 112 104 112 212V640C112 748 200 836 308 836C416 836 504 748 504 640V-348C504 -357 511 -364 520 -364C529 -364 536 -357 536 -348V640C536 766 434 868 308 868C182 868 80 766 80 640V212C80 86 182 -16 308 -16C434 -16 536 86 536 212Z" glyph-name="q" horiz-adv-x="616" unicode="q" /><glyph d="M308 -4C320 -4 332 8 332 20C332 32 320 44 308 44C296 44 284 32 284 20C284 8 296 -4 308 -4ZM292 284C292 275 299 268 308 268C317 268 324 275 324 284V642L308 626C434 626 536 728 536 854V1004C536 1130 434 1232 308 1232C182 1232 80 1130 80 1004C80 995 87 988 96 988C105 988 112 995 112 1004C112 1112 200 1200 308 1200C416 1200 504 1112 504 1004V854C504 746 416 658 308 658C299 658 292 651 292 642Z" glyph-name="question" horiz-adv-x="616" unicode="?" /><glyph d="M308 1220C296 1220 284 1208 284 1196C284 1184 296 1172 308 1172C320 1172 332 1184 332 1196C332 1208 320 1220 308 1220ZM324 932C324 941 317 948 308 948C299 948 292 941 292 932V574L308 590C182 590 80 488 80 362V212C80 86 182 -16 308 -16C434 -16 536 86 536 212C536 221 529 228 520 228C511 228 504 221 504 212C504 104 416 16 308 16C200 16 112 104 112 212V362C112 470 200 558 308 558C317 558 324 565 324 574Z" glyph-name="questiondown" horiz-adv-x="616" unicode="&#191;" /><glyph d="M96 1114C104 1114 112 1122 112 1130V1256C112 1264 104 1272 96 1272C88 1272 80 1264 80 1256V1130C80 1122 88 1114 96 1114ZM196 1114C204 1114 212 1122 212 1130V1256C212 1264 204 1272 196 1272C188 1272 180 1264 180 1256V1130C180 1122 188 1114 196 1114Z" glyph-name="quotedbl" horiz-adv-x="292" unicode="&quot;" /><glyph d="M89 -105 124 -33C129 -23 126 -8 112 -2C100 4 82 -5 78 -17L59 -93C57 -102 61 -110 68 -112C76 -116 85 -113 89 -105ZM189 -105 224 -33C229 -23 226 -8 212 -2C200 4 182 -5 178 -17L159 -93C157 -102 161 -110 168 -112C176 -116 185 -113 189 -105Z" glyph-name="quotedblbase" horiz-adv-x="284" unicode="&#8222;" /><glyph d="M97 1209 62 1137C57 1127 60 1112 74 1106C86 1100 104 1109 108 1121L127 1197C129 1206 125 1214 118 1216C110 1220 101 1217 97 1209ZM197 1209 162 1137C157 1127 160 1112 174 1106C186 1100 204 1109 208 1121L227 1197C229 1206 225 1214 218 1216C210 1220 201 1217 197 1209Z" glyph-name="quotedblleft" horiz-adv-x="284" unicode="&#8220;" /><glyph d="M89 1111 124 1183C129 1193 126 1208 112 1214C100 1220 82 1211 78 1199L59 1123C57 1114 61 1106 68 1104C76 1100 85 1103 89 1111ZM189 1111 224 1183C229 1193 226 1208 212 1214C200 1220 182 1211 178 1199L159 1123C157 1114 161 1106 168 1104C176 1100 185 1103 189 1111Z" glyph-name="quotedblright" horiz-adv-x="284" unicode="&#8221;" /><glyph d="M97 1209 62 1137C57 1127 60 1112 74 1106C86 1100 104 1109 108 1121L127 1197C129 1206 125 1214 118 1216C110 1220 101 1217 97 1209Z" glyph-name="quoteleft" horiz-adv-x="500" unicode="&#8216;" /><glyph d="M89 1111 124 1183C129 1193 126 1208 112 1214C100 1220 82 1211 78 1199L59 1123C57 1114 61 1106 68 1104C76 1100 85 1103 89 1111Z" glyph-name="quoteright" horiz-adv-x="184" unicode="&#8217;" /><glyph d="M91 -103 126 -31C131 -21 128.1176 -5.8824 114 0C102 6 84 -3 80 -15L61 -91C58.6962 -100.2154 62.9321 -108.233 70 -110C78 -114 87 -111 91 -103Z" glyph-name="quotesinglbase" horiz-adv-x="184" unicode="&#8218;" /><glyph d="M96 1114C104 1114 112 1122 112 1130V1256C112 1264 104 1272 96 1272C88 1272 80 1264 80 1256V1130C80 1122 88 1114 96 1114Z" glyph-name="quotesingle" horiz-adv-x="192" unicode="'" /><glyph d="M308 836C317 836 324 843 324 852C324 861 317 868 308 868C207 868 121 802 92 711C89 703 94 693 102 691C110 688 120 693 122 701C147 780 221 836 308 836ZM112 820C112 829 105 836 96 836C87 836 80 829 80 820V16C80 7 87 0 96 0C105 0 112 7 112 16Z" glyph-name="r" horiz-adv-x="364" unicode="r" /><glyph d="M308 836C317 836 324 843 324 852C324 861 317 868 308 868C207 868 121 802 92 711C89 703 94 693 102 691C110 688 120 693 122 701C147 780 221 836 308 836ZM112 820C112 829 105 836 96 836C87 836 80 829 80 820V16C80 7 87 0 96 0C105 0 112 7 112 16ZM276 1095C282 1101 282 1111 276 1117C270 1123 260 1123 254 1117L130 995C124 989 124 979 130 973C136 967 146 967 152 973Z" glyph-name="racute" horiz-adv-x="364" unicode="&#341;" /><glyph d="M112 855C110 863 102 869 93 868C85 866 79 858 80 849L233 -19C240 -57 258 -57 265 -19L477 1181L461 1168H635C644 1168 651 1175 651 1184C651 1193 644 1200 635 1200H461C454 1200 447 1194 445 1187L233 -13H265Z" glyph-name="radical" horiz-adv-x="651" unicode="&#8730;" /><glyph d="M308 836C317 836 324 843 324 852C324 861 317 868 308 868C207 868 121 802 92 711C89 703 94 693 102 691C110 688 120 693 122 701C147 780 221 836 308 836ZM112 820C112 829 105 836 96 836C87 836 80 829 80 820V16C80 7 87 0 96 0C105 0 112 7 112 16ZM296 1056C302 1062 302 1072 296 1078C290 1084 280 1084 274 1078L191 995H213L130 1078C124 1084 114 1084 108 1078C102 1072 102 1062 108 1056L191 973C197 966 207 966 213 973Z" glyph-name="rcaron" horiz-adv-x="364" unicode="&#345;" /><glyph d="M308 836C317 836 324 843 324 852C324 861 317 868 308 868C207 868 121 802 92 711C89 703 94 693 102 691C110 688 120 693 122 701C147 780 221 836 308 836ZM112 820C112 829 105 836 96 836C87 836 80 829 80 820V16C80 7 87 0 96 0C105 0 112 7 112 16ZM58 -204C94 -204 124 -174 124 -138C124 -110 106 -84 80 -76L112 2C116 10 112 20 104 22C96 26 86 22 84 14L44 -82C38 -94 44 -104 58 -104C78 -104 92 -118 92 -138C92 -158 78 -172 58 -172C38 -172 24 -158 24 -138C24 -130 16 -122 8 -122C0 -122 -8 -130 -8 -138C-8 -174 22 -204 58 -204Z" glyph-name="rcedilla" horiz-adv-x="364" unicode="&#343;" /><glyph d="M308 836C317 836 324 843 324 852C324 861 317 868 308 868C207 868 121 802 92 711C89 703 94 693 102 691C110 688 120 693 122 701C147 780 221 836 308 836ZM112 820C112 829 105 836 96 836C87 836 80 829 80 820V16C80 7 87 0 96 0C105 0 112 7 112 16ZM202 1004C212 1004 222 1012 222 1024C222 1034 212 1044 202 1044C190 1044 182 1034 182 1024C182 1012 190 1004 202 1004Z" glyph-name="rdotaccent" horiz-adv-x="364" unicode="&#7769;" /><glyph d="M171 246C171 237 178 230 187 230C196 230 203 237 203 246V975L187 959H310C368 959 416 911 416 853V723C416 665 368 617 310 617L200 616C191 616 184 608 184 600C184 591 192 584 200 584L310 585C386 585 448 647 448 723V853C448 929 386 991 310 991H187C178 991 171 984 171 975ZM407 239C410 230 419 226 427 229C436 232 440 241 437 249L312 598C309 607 300 611 292 608C283 605 279 596 282 588ZM308 -32C434 -32 536 70 536 196V1004C536 1130 434 1232 308 1232C182 1232 80 1130 80 1004V196C80 70 182 -32 308 -32ZM308 1200C416 1200 504 1112 504 1004V196C504 88 416 0 308 0C200 0 112 88 112 196V1004C112 1112 200 1200 308 1200Z" glyph-name="registered" horiz-adv-x="500" unicode="&#174;" /><glyph d="M146 1262C182 1262 212 1292 212 1328C212 1364 182 1394 146 1394C110 1394 80 1364 80 1328C80 1292 110 1262 146 1262ZM146 1362C164 1362 180 1346 180 1328C180 1310 164 1294 146 1294C128 1294 112 1310 112 1328C112 1346 128 1362 146 1362Z" glyph-name="ring" horiz-adv-x="292" unicode="&#730;" /><glyph d="M112 217C112 226 105 233 96 233C87 233 80 226 80 217C80 89 185 -16 314 -16H316C444 -16 549 89 549 217V218C549 347 444 452 316 452H314C209 452 122 540 122 645C122 749 209 836 314 836H316C423 836 510 749 510 645C510 636 517 629 526 629C535 629 542 636 542 645C542 767 441 868 316 868H314C191 868 90 767 90 645C90 522 191 420 314 420H316C426 420 517 329 517 218V217C517 107 426 16 316 16H314C203 16 112 107 112 217Z" glyph-name="s" horiz-adv-x="629" unicode="s" /><glyph d="M112 217C112 226 105 233 96 233C87 233 80 226 80 217C80 89 185 -16 314 -16H316C444 -16 549 89 549 217V218C549 347 444 452 316 452H314C209 452 122 540 122 645C122 749 209 836 314 836H316C423 836 510 749 510 645C510 636 517 629 526 629C535 629 542 636 542 645C542 767 441 868 316 868H314C191 868 90 767 90 645C90 522 191 420 314 420H316C426 420 517 329 517 218V217C517 107 426 16 316 16H314C203 16 112 107 112 217ZM443 1095C449 1101 449 1111 443 1117C437 1123 427 1123 421 1117L297 995C291 989 291 979 297 973C303 967 313 967 319 973Z" glyph-name="sacute" horiz-adv-x="616" unicode="&#347;" /><glyph d="M112 217C112 226 105 233 96 233C87 233 80 226 80 217C80 89 185 -16 314 -16H316C444 -16 549 89 549 217V218C549 347 444 452 316 452H314C209 452 122 540 122 645C122 749 209 836 314 836H316C423 836 510 749 510 645C510 636 517 629 526 629C535 629 542 636 542 645C542 767 441 868 316 868H314C191 868 90 767 90 645C90 522 191 420 314 420H316C426 420 517 329 517 218V217C517 107 426 16 316 16H314C203 16 112 107 112 217ZM402 1056C408 1062 408 1072 402 1078C396 1084 386 1084 380 1078L297 995H319L236 1078C230 1084 220 1084 214 1078C208 1072 208 1062 214 1056L297 973C303 966 313 966 319 973Z" glyph-name="scaron" horiz-adv-x="616" unicode="&#353;" /><glyph d="M112 217C112 226 105 233 96 233C87 233 80 226 80 217C80 89 185 -16 314 -16H316C444 -16 549 89 549 217V218C549 347 444 452 316 452H314C209 452 122 540 122 645C122 749 209 836 314 836H316C423 836 510 749 510 645C510 636 517 629 526 629C535 629 542 636 542 645C542 767 441 868 316 868H314C191 868 90 767 90 645C90 522 191 420 314 420H316C426 420 517 329 517 218V217C517 107 426 16 316 16H314C203 16 112 107 112 217ZM308 -224C344 -224 374 -194 374 -158C374 -130 356 -104 330 -96L362 -18C366 -10 362 0 354 2C346 6 336 2 334 -6L294 -102C288 -114 294 -124 308 -124C328 -124 342 -138 342 -158C342 -178 328 -192 308 -192C288 -192 274 -178 274 -158C274 -150 266 -142 258 -142C250 -142 242 -150 242 -158C242 -194 272 -224 308 -224Z" glyph-name="scedilla" horiz-adv-x="616" unicode="&#351;" /><glyph d="M112 217C112 226 105 233 96 233C87 233 80 226 80 217C80 89 185 -16 314 -16H316C444 -16 549 89 549 217V218C549 347 444 452 316 452H314C209 452 122 540 122 645C122 749 209 836 314 836H316C423 836 510 749 510 645C510 636 517 629 526 629C535 629 542 636 542 645C542 767 441 868 316 868H314C191 868 90 767 90 645C90 522 191 420 314 420H316C426 420 517 329 517 218V217C517 107 426 16 316 16H314C203 16 112 107 112 217ZM214 995C208 989 208 979 214 973C220 967 230 967 236 973L319 1056H297L380 973C386 967 396 967 402 973C408 979 408 989 402 995L319 1078C313 1085 303 1085 297 1078Z" glyph-name="scircumflex" horiz-adv-x="616" unicode="&#349;" /><glyph d="M112 217C112 226 105 233 96 233C87 233 80 226 80 217C80 89 185 -16 314 -16H316C444 -16 549 89 549 217V218C549 347 444 452 316 452H314C209 452 122 540 122 645C122 749 209 836 314 836H316C423 836 510 749 510 645C510 636 517 629 526 629C535 629 542 636 542 645C542 767 441 868 316 868H314C191 868 90 767 90 645C90 522 191 420 314 420H316C426 420 517 329 517 218V217C517 107 426 16 316 16H314C203 16 112 107 112 217ZM308 1004C318 1004 328 1012 328 1024C328 1034 318 1044 308 1044C296 1044 288 1034 288 1024C288 1012 296 1004 308 1004Z" glyph-name="sdotaccent" horiz-adv-x="616" unicode="&#7777;" /><glyph d="M514 924C514 915 521 908 530 908C539 908 546 915 546 924C546 1050 444 1152 318 1152H308C182 1152 80 1050 80 924V888C80 762 182 660 308 660H318C426 660 514 572 514 464V316C514 208 426 120 318 120H316C307 120 300 113 300 104C300 95 307 88 316 88H318C444 88 546 190 546 316V464C546 590 444 692 318 692H308C200 692 112 780 112 888V924C112 1032 200 1120 308 1120H318C426 1120 514 1032 514 924ZM112 -144C112 -135 105 -128 96 -128C87 -128 80 -135 80 -144C80 -270 182 -372 308 -372H318C444 -372 546 -270 546 -144V-108C546 18 444 120 318 120H308C200 120 112 208 112 316V464C112 572 200 660 308 660H310C319 660 326 667 326 676C326 685 319 692 310 692H308C182 692 80 590 80 464V316C80 190 182 88 308 88H318C426 88 514 0 514 -108V-144C514 -252 426 -340 318 -340H308C200 -340 112 -252 112 -144Z" glyph-name="section" horiz-adv-x="1000" unicode="&#167;" /><glyph d="M100 520C113 520 124 531 124 544C124 557 113 568 100 568C87 568 76 557 76 544C76 531 87 520 100 520ZM79 -71C85 -71 92 -67 94 -62L122 14C123 16 123 19 123 21C123 32 113 44 100 44C90 44 78 36 76 26C63 -53 62 -55 62 -55C61 -63 69 -71 79 -71Z" glyph-name="semicolon" horiz-adv-x="204" unicode=";" /><glyph d="M96 1200C87 1200 80 1193 80 1184C80 1175 87 1168 96 1168H520L504 1187L292 19C291 10 297 2 305 0C314 -1 322 5 324 13L536 1181C538 1192 531 1200 520 1200Z" glyph-name="seven" horiz-adv-x="616" unicode="7" /><glyph d="M96 852C87 852 80 845 80 836C80 827 87 820 96 820H520L504 839L292 -329C291 -338 297 -346 305 -348C314 -349 322 -343 324 -335L536 833C538 844 531 852 520 852Z" glyph-name="seven.oldstyle" horiz-adv-x="616" unicode="&#63287;" /><glyph d="M96 450C87 450 80 443 80 434C80 425 87 418 96 418H308L292 437L186 -147C185 -156 191 -164 199 -166C208 -167 216 -161 218 -153L324 431C326 442 319 450 308 450Z" glyph-name="seven.sub" horiz-adv-x="404.095" unicode="&#8327;" /><glyph d="M96 1200C87 1200 80 1193 80 1184C80 1175 87 1168 96 1168H308L292 1187L186 603C185 594 191 586 199 584C208 583 216 589 218 597L324 1181C326 1192 319 1200 308 1200Z" glyph-name="seven.sup" horiz-adv-x="404" unicode="&#8311;" /><glyph d="M789 1216C785 1215 782 1212 780 1209L2 11C1 9 0 7 0 5C0 3 1 2 1 0C3 -9 9 -13 16 -13C17 -13 18 -13 19 -13C23 -12 26 -9 28 -6L806 1192C807 1194 808 1197 808 1200C808 1201 808 1202 808 1203C806 1211 800 1216 792 1216C791 1216 790 1216 789 1216ZM96 1200C87 1200 80 1193 80 1184C80 1175 87 1168 96 1168H308L292 1187L186 603C185 594 191 586 199 584C208 583 216 589 218 597L324 1181C326 1192 319 1200 308 1200ZM597 272C606 273 613 281 612 289C611 298 603 305 595 304C532 298 484 245 484 182V42C484 -25 539 -80 606 -80H607C674 -80 729 -25 729 42V182C729 250 674 304 607 304H606C557 304 516 345 516 394V446C516 496 557 536 606 536H607C656 536 697 496 697 446V394C697 347 661 309 616 305C608 304 601 296 602 287C603 279 611 272 620 273C681 279 729 331 729 394V446C729 514 674 568 607 568H606C539 568 484 514 484 446V394C484 327 539 272 606 272H607C656 272 697 232 697 182V42C697 -7 656 -48 607 -48H606C557 -48 516 -7 516 42V182C516 229 552 268 597 272Z" glyph-name="seveneighths" horiz-adv-x="808" unicode="&#8542;" /><glyph d="M504 1004C504 995 511 988 520 988C529 988 536 995 536 1004C536 1130 433 1232 308 1232C182 1232 80 1130 80 1004V196C80 71 182 -32 308 -32C433 -32 536 71 536 196V516C536 642 433 744 308 744C197 744 105 664 84 559C83 551 88 542 97 540C105 539 114 544 116 553C133 644 213 712 308 712C415 712 504 624 504 516V196C504 89 415 0 308 0C200 0 112 89 112 196V1004C112 1112 200 1200 308 1200C415 1200 504 1112 504 1004Z" glyph-name="six" horiz-adv-x="616" unicode="6" /><glyph d="M504 1004C504 995 511 988 520 988C529 988 536 995 536 1004C536 1130 433 1232 308 1232C182 1232 80 1130 80 1004V196C80 71 182 -32 308 -32C433 -32 536 71 536 196V516C536 642 433 744 308 744C197 744 105 664 84 559C83 551 88 542 97 540C105 539 114 544 116 553C133 644 213 712 308 712C415 712 504 624 504 516V196C504 89 415 0 308 0C200 0 112 89 112 196V1004C112 1112 200 1200 308 1200C415 1200 504 1112 504 1004Z" glyph-name="six.oldstyle" horiz-adv-x="616" unicode="&#63286;" /><glyph d="M292 360C292 351 299 344 308 344C317 344 324 351 324 360C324 428 269 482 202 482C135 482 80 428 80 360V-44C80 -111 135 -166 202 -166C269 -166 324 -111 324 -44V116C324 184 269 238 202 238C135 238 80 184 80 116C80 107 87 100 96 100C105 100 112 107 112 116C112 166 153 206 202 206C251 206 292 166 292 116V-44C292 -93 251 -134 202 -134C153 -134 112 -93 112 -44V360C112 410 153 450 202 450C251 450 292 410 292 360Z" glyph-name="six.sub" horiz-adv-x="404" unicode="&#8326;" /><glyph d="M292 1110C292 1101 299 1094 308 1094C317 1094 324 1101 324 1110C324 1178 269 1232 202 1232C135 1232 80 1178 80 1110V706C80 639 135 584 202 584C269 584 324 639 324 706V866C324 934 269 988 202 988C135 988 80 934 80 866C80 857 87 850 96 850C105 850 112 857 112 866C112 916 153 956 202 956C251 956 292 916 292 866V706C292 657 251 616 202 616C153 616 112 657 112 706V1110C112 1160 153 1200 202 1200C251 1200 292 1160 292 1110Z" glyph-name="six.sup" horiz-adv-x="404" unicode="&#8310;" /><glyph d="M98 -16C106 -16 112 -10 114 -2L326 1198V1200C326 1208 318 1216 308 1216C302 1216 296 1210 294 1202L82 2C82 0 82 0 82 -2C82 -8 88 -16 98 -16Z" glyph-name="slash" horiz-adv-x="408" unicode="/" /><glyph glyph-name="space" horiz-adv-x="313" unicode=" " /><glyph d="M430 1184C439 1184 446 1191 446 1200C446 1209 439 1216 430 1216C304 1216 202 1114 202 988V124C202 65 155 16 96 16V-16H520C529 -16 536 -9 536 0C536 9 529 16 520 16H96V-16C173 -16 234 47 234 124V988C234 1096 322 1184 430 1184ZM358 654C367 654 374 661 374 670C374 679 367 686 358 686H229C220 686 213 679 213 670C213 661 220 654 229 654Z" glyph-name="sterling" horiz-adv-x="616" unicode="&#163;" /><glyph d="M536 1168C545 1168 552 1175 552 1184C552 1193 545 1200 536 1200H96C80 1200 74 1189 82 1176L434 590V606L82 24C74 11 80 0 96 0H536C545 0 552 7 552 16C552 25 545 32 536 32H96L110 8L462 590C464 594 464 602 462 606L110 1192L96 1168Z" glyph-name="summation" horiz-adv-x="632" unicode="&#8721;" /><glyph d="M112 1034C112 1043 105 1050 96 1050C87 1050 80 1043 80 1034V212C80 86 182 -16 308 -16H310C319 -16 326 -9 326 0C326 9 319 16 310 16H308C200 16 112 104 112 212ZM101 685C92 685 85 678 85 669C85 660 92 653 101 653H236C245 653 252 660 252 669C252 678 245 685 236 685Z" glyph-name="t" horiz-adv-x="404" unicode="t" /><glyph d="M112 1034C112 1043 105 1050 96 1050C87 1050 80 1043 80 1034V212C80 86 182 -16 308 -16H310C319 -16 326 -9 326 0C326 9 319 16 310 16H308C200 16 112 104 112 212ZM101 685C92 685 85 678 85 669C85 660 92 653 101 653H236C245 653 252 660 252 669C252 678 245 685 236 685ZM190 432C198 432 206 440 206 448C206 456 198 464 190 464H16C8 464 0 456 0 448C0 440 8 432 16 432Z" glyph-name="tbar" horiz-adv-x="404" unicode="&#359;" /><glyph d="M112 1034C112 1043 105 1050 96 1050C87 1050 80 1043 80 1034V212C80 86 182 -16 308 -16H310C319 -16 326 -9 326 0C326 9 319 16 310 16H308C200 16 112 104 112 212ZM101 685C92 685 85 678 85 669C85 660 92 653 101 653H236C245 653 252 660 252 669C252 678 245 685 236 685ZM196 1230C202 1236 202 1246 196 1252C190 1258 180 1258 174 1252L91 1169H113L30 1252C24 1258 14 1258 8 1252C2 1246 2 1236 8 1230L91 1147C97 1140 107 1140 113 1147Z" glyph-name="tcaron" horiz-adv-x="404" unicode="&#357;" /></font>
</defs>
</svg>
